SplineFontDB: 3.0
FontName: RIT-Sundar-Bold
FullName: RIT-Sundar Bold
FamilyName: RIT-Sundar
Weight: Bold
Copyright: Copyright (c) 2018,\n  Rachana Institute of Typography, Trivandrum (www.rachana.org.in; info@rachana.org.in); and\n  STM Document Engineering Pvt Ltd, Trivandrum (www.stmdocs.in; info@stmdocs.in),\n  with Reserved Font Name RIT-Sundar.\n\nContributors:\n1. Hussain KH <hussain@rachana.org.in>\n2. Narayana Bhattathiri <nbhattathiri@gmail.com>\n3. Rajeesh KV <rajeesh@rachana.org.in>\n4. Radhakrishnan CV <cvr@rachana.org.in>\n\nThis font is created, named and released in memory of Sundar (Sundar Ramanatha Iyer; April 23, 1953 -- November 12, 2016) who was a relentless advocate of open fonts, open standards and open publishing. He dreamed of making available several good quality Malayalam fonts, particularly created by N Bhattathiri with his unique calligraphic and typographic signature, freely and openly to the users. This Font Software is licensed under the SIL Open Font License, Version 1.1. http://scripts.sil.org/OFL.
Version: 2.0.0+20170909
ItalicAngle: 0
UnderlinePosition: -100
UnderlineWidth: 20
Ascent: 1220
Descent: 828
InvalidEm: 0
sfntRevision: 0x00010000
LayerCount: 2
Layer: 0 1 "Back" 1
Layer: 1 1 "Fore" 0
XUID: [1021 339 384270074 12278291]
StyleMap: 0x0020
FSType: 0
OS2Version: 4
OS2_WeightWidthSlopeOnly: 0
OS2_UseTypoMetrics: 1
CreationTime: 1418347145
ModificationTime: 1518074437
PfmFamily: 17
TTFWeight: 700
TTFWidth: 5
LineGap: 0
VLineGap: 0
Panose: 0 0 8 0 0 0 0 0 0 0
OS2TypoAscent: 1304
OS2TypoAOffset: 0
OS2TypoDescent: -744
OS2TypoDOffset: 0
OS2TypoLinegap: 0
OS2WinAscent: 1304
OS2WinAOffset: 0
OS2WinDescent: 744
OS2WinDOffset: 0
HheadAscent: 1304
HheadAOffset: 0
HheadDescent: -744
HheadDOffset: 0
OS2SubXSize: 700
OS2SubYSize: 650
OS2SubXOff: 0
OS2SubYOff: 140
OS2SupXSize: 700
OS2SupYSize: 650
OS2SupXOff: 0
OS2SupYOff: 477
OS2StrikeYSize: 50
OS2StrikeYPos: 250
OS2Vendor: 'RIT '
OS2CodePages: 00000001.00000000

StartChar: .notdef
Encoding: 65536 -1 0
Width: 584
GlyphClass: 2
Flags: W
HStem: 0 46 884 48
VStem: 46 46 466 46
LayerCount: 2
Fore
SplineSet
45 904 m 1,0,-1
 497 904 l 1,1,-1
 497 0 l 1,2,-1
 45 0 l 1,3,-1
 45 904 l 1,0,-1
452 45 m 1,4,-1
 452 857 l 1,5,-1
 89 857 l 1,6,-1
 89 45 l 1,7,-1
 452 45 l 1,4,-1
EndSplineSet
EndChar

StartChar: exclam
Encoding: 33 33 6
Width: 211
GlyphClass: 2
Flags: W
HStem: -29 230 -29 1020
VStem: 72 228
LayerCount: 2
Fore
SplineSet
236 67 m 128,-1,1
 236 -23 236 -23 147 -23 c 0,2,3
 104 -23 104 -23 80.5 0.5 c 128,-1,4
 57 24 57 24 57 67 c 128,-1,5
 57 110 57 110 80.5 133.5 c 128,-1,6
 104 157 104 157 147 157 c 0,7,0
 236 157 236 157 236 67 c 128,-1,1
226 711 m 1,8,-1
 194 256 l 1,9,-1
 101 256 l 1,10,-1
 70 711 l 1,11,-1
 70 717 l 2,12,13
 70 740 70 740 88.5 759 c 128,-1,14
 107 778 107 778 129 778 c 2,15,-1
 167 778 l 2,16,17
 191 778 191 778 209 758.5 c 128,-1,18
 227 739 227 739 226 715 c 1,19,-1
 226 711 l 1,8,-1
EndSplineSet
EndChar

StartChar: quotedbl
Encoding: 34 34 7
Width: 438
GlyphClass: 2
Flags: W
HStem: 922 399
VStem: 53 154
LayerCount: 2
Fore
SplineSet
426 1145 m 1,0,-1
 409 832 l 1,1,-1
 300 832 l 1,2,-1
 275 1145 l 1,3,4
 306 1175 306 1175 351 1175 c 0,5,6
 393 1175 393 1175 426 1145 c 1,0,-1
222 1145 m 1,7,-1
 205 831 l 1,8,-1
 96 831 l 1,9,-1
 71 1145 l 1,10,11
 102 1175 102 1175 147 1175 c 0,12,13
 189 1175 189 1175 222 1145 c 1,7,-1
EndSplineSet
EndChar

StartChar: numbersign
Encoding: 35 35 8
Width: 914
GlyphClass: 2
Flags: W
HStem: 249 147 571 147
VStem: 95 1048
LayerCount: 2
Fore
SplineSet
549 303 m 1,0,-1
 585 456 l 1,1,-1
 419 456 l 1,2,-1
 383 303 l 1,3,-1
 549 303 l 1,0,-1
741 556 m 1,4,-1
 900 556 l 1,5,-1
 872 456 l 1,6,-1
 718 456 l 1,7,-1
 682 303 l 1,8,-1
 860 303 l 1,9,-1
 839 203 l 1,10,-1
 659 203 l 1,11,-1
 579 -140 l 1,12,-1
 446 -140 l 1,13,-1
 526 203 l 1,14,-1
 360 203 l 1,15,-1
 279 -140 l 1,16,-1
 147 -140 l 1,17,-1
 227 203 l 1,18,-1
 72 203 l 1,19,-1
 93 303 l 1,20,-1
 250 303 l 1,21,-1
 286 456 l 1,22,-1
 105 456 l 1,23,-1
 133 556 l 1,24,-1
 309 556 l 1,25,-1
 386 886 l 1,26,-1
 519 886 l 1,27,-1
 442 556 l 1,28,-1
 608 556 l 1,29,-1
 685 886 l 1,30,-1
 818 886 l 1,31,-1
 741 556 l 1,4,-1
EndSplineSet
EndChar

StartChar: dollar
Encoding: 36 36 9
Width: 663
GlyphClass: 2
Flags: W
HStem: -128 1407
VStem: 71 176 90 180 397 164 656 182
LayerCount: 2
Fore
SplineSet
528 248 m 0,0,1
 528 300 528 300 506.5 330 c 128,-1,2
 485 360 485 360 435 372 c 1,3,-1
 435 98 l 1,4,5
 528 137 528 137 528 248 c 0,0,1
318 500 m 1,6,-1
 318 796 l 1,7,8
 200 757 200 757 200 621 c 0,9,10
 200 575 200 575 234.5 544.5 c 128,-1,11
 269 514 269 514 318 500 c 1,6,-1
666 741 m 2,12,-1
 666 737 l 1,13,-1
 531 744 l 1,14,15
 523 780 523 780 435 795 c 1,16,-1
 435 486 l 1,17,18
 660 478 660 478 660 255 c 0,19,20
 660 31 660 31 435 -5 c 1,21,-1
 435 -93 l 1,22,-1
 318 -93 l 1,23,-1
 318 -9 l 1,24,25
 272 -5 272 -5 233 3.5 c 128,-1,26
 194 12 194 12 150 30 c 128,-1,27
 106 48 106 48 80.5 81.5 c 128,-1,28
 55 115 55 115 55 161 c 1,29,-1
 182 155 l 1,30,31
 192 110 192 110 318 93 c 1,32,-1
 318 381 l 1,33,34
 70 398 70 398 70 635 c 0,35,36
 70 752 70 752 135 819.5 c 128,-1,37
 200 887 200 887 318 902 c 1,38,-1
 318 996 l 1,39,-1
 435 996 l 1,40,-1
 435 901 l 1,41,42
 473 896 473 896 509 886 c 128,-1,43
 545 876 545 876 583 858.5 c 128,-1,44
 621 841 621 841 643.5 810.5 c 128,-1,45
 666 780 666 780 666 741 c 2,12,-1
EndSplineSet
EndChar

StartChar: percent
Encoding: 37 37 10
Width: 743
GlyphClass: 2
Flags: W
HStem: -26 110 365 113 626 111 1019 113
VStem: 93 130 341 131 553 130 801 131
LayerCount: 2
Fore
SplineSet
642 164 m 0,0,1
 642 270 642 270 581 270 c 0,2,3
 542 270 542 270 526 237 c 128,-1,4
 510 204 510 204 510 161 c 0,5,6
 510 57 510 57 581 57 c 0,7,8
 642 57 642 57 642 164 c 0,0,1
264 607 m 0,9,10
 264 713 264 713 203 713 c 0,11,12
 165 713 165 713 148.5 679.5 c 128,-1,13
 132 646 132 646 132 603 c 0,14,15
 132 500 132 500 203 500 c 0,16,17
 264 500 264 500 264 607 c 0,9,10
551 688 m 1,18,-1
 615 650 l 1,19,-1
 195 -27 l 1,20,-1
 131 11 l 1,21,-1
 551 688 l 1,18,-1
750 161 m 0,22,23
 750 64 750 64 715 27.5 c 128,-1,24
 680 -9 680 -9 581 -9 c 0,25,26
 445 -9 445 -9 445 164 c 0,27,28
 445 252 445 252 480 295 c 128,-1,29
 515 338 515 338 600 338 c 0,30,31
 689 338 689 338 719.5 295.5 c 128,-1,32
 750 253 750 253 750 161 c 0,22,23
372 604 m 0,33,34
 372 506 372 506 337 469.5 c 128,-1,35
 302 433 302 433 204 433 c 0,36,37
 68 433 68 433 68 607 c 0,38,39
 68 695 68 695 103 738 c 128,-1,40
 138 781 138 781 223 781 c 0,41,42
 312 781 312 781 342 738.5 c 128,-1,43
 372 696 372 696 372 604 c 0,33,34
EndSplineSet
EndChar

StartChar: ampersand
Encoding: 38 38 11
Width: 1003
GlyphClass: 2
Flags: W
LayerCount: 2
Fore
SplineSet
1032 111 m 1,0,-1
 991 34 l 1,1,2
 883 37 883 37 757 109.5 c 128,-1,3
 631 182 631 182 538 274 c 0,4,5
 435 377 435 377 374 508.5 c 128,-1,6
 313 640 313 640 313 778 c 0,7,8
 313 886 313 886 377 951 c 128,-1,9
 441 1016 441 1016 549 1016 c 0,10,11
 641 1016 641 1016 693 962.5 c 128,-1,12
 745 909 745 909 745 816 c 0,13,14
 745 658 745 658 549 563 c 0,15,16
 540 558 540 558 514 546.5 c 128,-1,17
 488 535 488 535 475 528 c 0,18,19
 363 465 363 465 363 337 c 0,20,21
 363 233 363 233 419 170.5 c 128,-1,22
 475 108 475 108 578 108 c 0,23,24
 636 108 636 108 683.5 130 c 128,-1,25
 731 152 731 152 762.5 188.5 c 128,-1,26
 794 225 794 225 815.5 274 c 128,-1,27
 837 323 837 323 846.5 374 c 128,-1,28
 856 425 856 425 856 478 c 0,29,30
 856 535 856 535 845 582 c 1,31,-1
 922 603 l 1,32,33
 939 535 939 535 939 469 c 0,34,35
 939 336 939 336 885.5 227.5 c 128,-1,36
 832 119 832 119 729 54 c 128,-1,37
 626 -11 626 -11 492 -11 c 0,38,39
 349 -11 349 -11 266 61.5 c 128,-1,40
 183 134 183 134 183 274 c 0,41,42
 183 310 183 310 191 342.5 c 128,-1,43
 199 375 199 375 208.5 399.5 c 128,-1,44
 218 424 218 424 240 450 c 128,-1,45
 262 476 262 476 277 491 c 128,-1,46
 292 506 292 506 324.5 529 c 128,-1,47
 357 552 357 552 372.5 562 c 128,-1,48
 388 572 388 572 427.5 595.5 c 128,-1,49
 467 619 467 619 481 627 c 0,50,51
 529 656 529 656 550.5 687.5 c 128,-1,52
 572 719 572 719 572 771 c 0,53,54
 572 819 572 819 551.5 852 c 128,-1,55
 531 885 531 885 486 885 c 0,56,57
 440 885 440 885 419.5 852.5 c 128,-1,58
 399 820 399 820 399 771 c 0,59,60
 399 660 399 660 457.5 547.5 c 128,-1,61
 516 435 516 435 606 346 c 0,62,63
 694 258 694 258 814 185.5 c 128,-1,64
 934 113 934 113 1032 111 c 1,0,-1
EndSplineSet
EndChar

StartChar: quotesingle
Encoding: 39 39 12
Width: 226
GlyphClass: 2
Flags: W
HStem: 922 399
VStem: 53 154
LayerCount: 2
Fore
SplineSet
222 1145 m 1,0,-1
 205 831 l 1,1,-1
 96 831 l 1,2,-1
 71 1145 l 1,3,4
 102 1175 102 1175 147 1175 c 0,5,6
 189 1175 189 1175 222 1145 c 1,0,-1
EndSplineSet
EndChar

StartChar: parenleft
Encoding: 40 40 13
Width: 427
GlyphClass: 2
Flags: W
HStem: -437 20G
VStem: 99 180
LayerCount: 2
Fore
SplineSet
429 -227 m 1,0,-1
 429 -344 l 1,1,2
 360 -338 360 -338 303 -301.5 c 128,-1,3
 246 -265 246 -265 208.5 -206.5 c 128,-1,4
 171 -148 171 -148 143.5 -79 c 128,-1,5
 116 -10 116 -10 101 67.5 c 128,-1,6
 86 145 86 145 79.5 211 c 128,-1,7
 73 277 73 277 73 339 c 0,8,9
 73 414 73 414 82 495 c 128,-1,10
 91 576 91 576 116 670 c 128,-1,11
 141 764 141 764 179 838.5 c 128,-1,12
 217 913 217 913 282 965.5 c 128,-1,13
 347 1018 347 1018 429 1025 c 1,14,-1
 429 907 l 1,15,16
 391 907 391 907 361 882.5 c 128,-1,17
 331 858 331 858 312 822 c 128,-1,18
 293 786 293 786 279 732 c 128,-1,19
 265 678 265 678 258 631.5 c 128,-1,20
 251 585 251 585 247 525.5 c 128,-1,21
 243 466 243 466 242.5 434 c 128,-1,22
 242 402 242 402 242 364 c 0,23,24
 242 -227 242 -227 429 -227 c 1,0,-1
EndSplineSet
EndChar

StartChar: parenright
Encoding: 41 41 14
Width: 427
GlyphClass: 2
Flags: W
HStem: -437 20G
VStem: 99 180
LayerCount: 2
Fore
SplineSet
429 339 m 128,-1,1
 429 264 429 264 420 183 c 128,-1,2
 411 102 411 102 386 8 c 128,-1,3
 361 -86 361 -86 323 -159.5 c 128,-1,4
 285 -233 285 -233 220 -285 c 128,-1,5
 155 -337 155 -337 73 -344 c 1,6,-1
 73 -227 l 1,7,8
 259 -227 259 -227 259 364 c 0,9,10
 259 402 259 402 258.5 434 c 128,-1,11
 258 466 258 466 254 525.5 c 128,-1,12
 250 585 250 585 243 631.5 c 128,-1,13
 236 678 236 678 222.5 732 c 128,-1,14
 209 786 209 786 190 822 c 128,-1,15
 171 858 171 858 140.5 882.5 c 128,-1,16
 110 907 110 907 73 907 c 1,17,-1
 73 1025 l 1,18,19
 155 1018 155 1018 219.5 965.5 c 128,-1,20
 284 913 284 913 322 838.5 c 128,-1,21
 360 764 360 764 385.5 670 c 128,-1,22
 411 576 411 576 420 495 c 128,-1,0
 429 414 429 414 429 339 c 128,-1,1
EndSplineSet
EndChar

StartChar: asterisk
Encoding: 42 42 15
Width: 612
GlyphClass: 2
Flags: W
HStem: 639 636
VStem: 354 165
LayerCount: 2
Fore
SplineSet
615 816 m 0,0,1
 615 798 615 798 597 780 c 128,-1,2
 579 762 579 762 552 748 c 128,-1,3
 525 734 525 734 502 725.5 c 128,-1,4
 479 717 479 717 459 711 c 1,5,6
 495 679 495 679 528.5 634 c 128,-1,7
 562 589 562 589 562 556 c 0,8,9
 562 534 562 534 541 518.5 c 128,-1,10
 520 503 520 503 497 503 c 0,11,12
 458 503 458 503 414 546 c 128,-1,13
 370 589 370 589 340 636 c 1,14,15
 309 587 309 587 265.5 544 c 128,-1,16
 222 501 222 501 184 501 c 0,17,18
 162 501 162 501 142 517.5 c 128,-1,19
 122 534 122 534 122 556 c 0,20,21
 122 589 122 589 154 632.5 c 128,-1,22
 186 676 186 676 222 708 c 1,23,24
 202 713 202 713 178 721 c 128,-1,25
 154 729 154 729 125 741.5 c 128,-1,26
 96 754 96 754 77.5 771.5 c 128,-1,27
 59 789 59 789 59 808 c 0,28,29
 59 837 59 837 84 854.5 c 128,-1,30
 109 872 109 872 139 872 c 0,31,32
 195 872 195 872 265 841 c 1,33,34
 265 868 265 868 267.5 894 c 128,-1,35
 270 920 270 920 278.5 950.5 c 128,-1,36
 287 981 287 981 305.5 999.5 c 128,-1,37
 324 1018 324 1018 351 1018 c 0,38,39
 377 1018 377 1018 395 999 c 128,-1,40
 413 980 413 980 420 949.5 c 128,-1,41
 427 919 427 919 429 893 c 128,-1,42
 431 867 431 867 430 841 c 1,43,44
 494 875 494 875 547 875 c 0,45,46
 573 875 573 875 594 858.5 c 128,-1,47
 615 842 615 842 615 816 c 0,0,1
EndSplineSet
EndChar

StartChar: plus
Encoding: 43 43 16
Width: 766
GlyphClass: 2
Flags: W
HStem: 407 164
VStem: 437 184
LayerCount: 2
Fore
SplineSet
778 449 m 1,0,-1
 778 320 l 1,1,-1
 514 320 l 1,2,-1
 514 47 l 1,3,-1
 365 47 l 1,4,-1
 365 320 l 1,5,-1
 85 320 l 1,6,-1
 85 449 l 1,7,-1
 365 449 l 1,8,-1
 365 721 l 1,9,-1
 514 721 l 1,10,-1
 514 449 l 1,11,-1
 778 449 l 1,0,-1
EndSplineSet
EndChar

StartChar: comma
Encoding: 44 44 17
Width: 309
GlyphClass: 2
Flags: W
HStem: -299 493 -53 247
VStem: 83 279
LayerCount: 2
Fore
SplineSet
295 39 m 0,0,1
 295 18 295 18 286.5 -8.5 c 128,-1,2
 278 -35 278 -35 268.5 -54.5 c 128,-1,3
 259 -74 259 -74 238 -106.5 c 128,-1,4
 217 -139 217 -139 207.5 -151.5 c 128,-1,5
 198 -164 198 -164 172 -198 c 128,-1,6
 146 -232 146 -232 144 -235 c 1,7,-1
 82 -223 l 1,8,9
 90 -206 90 -206 110.5 -173.5 c 128,-1,10
 131 -141 131 -141 140 -122 c 0,11,12
 158 -83 158 -83 176 -23 c 1,13,14
 158 -41 158 -41 135 -41 c 0,15,16
 103 -41 103 -41 82.5 -14 c 128,-1,17
 62 13 62 13 62 46 c 0,18,19
 62 94 62 94 92 123 c 128,-1,20
 122 152 122 152 171 152 c 0,21,22
 227 152 227 152 261 123 c 128,-1,23
 295 94 295 94 295 39 c 0,0,1
EndSplineSet
EndChar

StartChar: hyphen
Encoding: 45 45 18
Width: 537
GlyphClass: 2
Flags: W
HStem: 321 147
VStem: 102 547
LayerCount: 2
Fore
SplineSet
542 360 m 1,0,-1
 542 252 l 1,1,-1
 74 252 l 1,2,-1
 74 360 l 1,3,-1
 542 360 l 1,0,-1
EndSplineSet
EndChar

StartChar: period
Encoding: 46 46 19
Width: 262
GlyphClass: 2
Flags: W
HStem: -5 242
VStem: 88 240
LayerCount: 2
Fore
SplineSet
282 82 m 0,0,1
 282 34 282 34 255.5 8.5 c 128,-1,2
 229 -17 229 -17 180 -17 c 128,-1,3
 131 -17 131 -17 103.5 8.5 c 128,-1,4
 76 34 76 34 76 82 c 128,-1,5
 76 130 76 130 103.5 156.5 c 128,-1,6
 131 183 131 183 180 183 c 0,7,8
 282 183 282 183 282 82 c 0,0,1
EndSplineSet
EndChar

StartChar: slash
Encoding: 47 47 20
Width: 487
GlyphClass: 2
Flags: W
HStem: -298 1577
VStem: 97 584
LayerCount: 2
Fore
SplineSet
409 1122 m 1,0,-1
 550 1122 l 1,1,-1
 203 -234 l 1,2,-1
 62 -234 l 1,3,-1
 409 1122 l 1,0,-1
EndSplineSet
EndChar

StartChar: zero
Encoding: 48 48 21
Width: 596
GlyphClass: 2
Flags: W
HStem: 1 105 885 105
VStem: 95 100 977 294
LayerCount: 2
Fore
SplineSet
440 423 m 128,-1,1
 440 456 440 456 439 480.5 c 128,-1,2
 438 505 438 505 434.5 546.5 c 128,-1,3
 431 588 431 588 421.5 617 c 128,-1,4
 412 646 412 646 397 675.5 c 128,-1,5
 382 705 382 705 357 720.5 c 128,-1,6
 332 736 332 736 299 736 c 0,7,8
 250 736 250 736 215.5 701.5 c 128,-1,9
 181 667 181 667 166 611.5 c 128,-1,10
 151 556 151 556 145 509 c 128,-1,11
 139 462 139 462 139 414 c 0,12,13
 139 108 139 108 299 108 c 0,14,15
 332 108 332 108 357 123.5 c 128,-1,16
 382 139 382 139 397 169 c 128,-1,17
 412 199 412 199 421.5 228.5 c 128,-1,18
 431 258 431 258 434.5 299.5 c 128,-1,19
 438 341 438 341 439 365.5 c 128,-1,0
 440 390 440 390 440 423 c 128,-1,1
335 -8 m 2,20,-1
 300 -8 l 2,21,22
 67 -8 67 -8 67 424 c 0,23,24
 67 854 67 854 300 854 c 2,25,-1
 335 854 l 2,26,27
 387 854 387 854 428 840.5 c 128,-1,28
 469 827 469 827 496 807 c 128,-1,29
 523 787 523 787 542 752.5 c 128,-1,30
 561 718 561 718 571 687 c 128,-1,31
 581 656 581 656 586.5 609 c 128,-1,32
 592 562 592 562 593 528.5 c 128,-1,33
 594 495 594 495 594 445 c 0,34,35
 594 438 594 438 594.024 424.524 c 0,36,37
 594 359 594 359 592.5 323.5 c 128,-1,38
 591 288 591 288 585 228 c 128,-1,39
 579 168 579 168 562 134 c 128,-1,40
 545 100 545 100 518 63 c 128,-1,41
 491 26 491 26 444.5 9 c 128,-1,42
 398 -8 398 -8 335 -8 c 2,20,-1
EndSplineSet
EndChar

StartChar: one
Encoding: 49 49 22
Width: 313
GlyphClass: 2
Flags: W
HStem: 1 105 885 105
VStem: 95 100 977 294
LayerCount: 2
Fore
SplineSet
308 851 m 1,0,-1
 308 2 l 1,1,-1
 151 2 l 1,2,-1
 151 851 l 1,3,-1
 308 851 l 1,0,-1
200 838 m 1,4,-1
 214 788 l 1,5,6
 166 767 166 767 144.5 746 c 128,-1,7
 123 725 123 725 94 675 c 1,8,-1
 32 710 l 1,9,10
 65 769 65 769 83.5 791.5 c 128,-1,11
 102 814 102 814 152 851 c 1,12,-1
 200 838 l 1,4,-1
EndSplineSet
EndChar

StartChar: two
Encoding: 50 50 23
Width: 635
GlyphClass: 2
Flags: W
HStem: 1 105 885 105
VStem: 95 100 977 294
LayerCount: 2
Fore
SplineSet
643 568 m 0,0,1
 643 445 643 445 572.5 362.5 c 128,-1,2
 502 280 502 280 382 280 c 2,3,-1
 340 280 l 2,4,5
 295 280 295 280 266.5 222.5 c 128,-1,6
 238 165 238 165 239 115 c 1,7,-1
 239 99 l 1,8,-1
 575 98 l 1,9,-1
 575 9 l 1,10,-1
 63 9 l 1,11,-1
 64 131 l 2,12,13
 64 218 64 218 122.5 289.5 c 128,-1,14
 181 361 181 361 266 361 c 2,15,-1
 327 361 l 2,16,17
 370 361 370 361 400 399 c 128,-1,18
 430 437 430 437 441 482 c 128,-1,19
 452 527 452 527 452 568 c 0,20,21
 452 620 452 620 440.5 661 c 128,-1,22
 429 702 429 702 395.5 732.5 c 128,-1,23
 362 763 362 763 309 763 c 0,24,25
 241 763 241 763 202.5 709 c 128,-1,26
 164 655 164 655 164 585 c 1,27,-1
 74 585 l 1,28,29
 74 712 74 712 140.5 782.5 c 128,-1,30
 207 853 207 853 333 853 c 0,31,32
 489 853 489 853 566 786 c 128,-1,33
 643 719 643 719 643 568 c 0,0,1
EndSplineSet
EndChar

StartChar: three
Encoding: 51 51 24
Width: 650
GlyphClass: 2
Flags: W
LayerCount: 2
Fore
SplineSet
653 617 m 0,0,1
 653 476 653 476 550 420 c 1,2,3
 653 365 653 365 653 217 c 0,4,5
 653 156 653 156 633.5 113 c 128,-1,6
 614 70 614 70 585 46 c 128,-1,7
 556 22 556 22 509 8 c 128,-1,8
 462 -6 462 -6 420 -9.5 c 128,-1,9
 378 -13 378 -13 320 -13 c 0,10,11
 207 -13 207 -13 139 48 c 128,-1,12
 71 109 71 109 71 220 c 1,13,-1
 155 220 l 1,14,-1
 155 205 l 1,15,16
 154 134 154 134 200.5 95.5 c 128,-1,17
 247 57 247 57 319 57 c 0,18,19
 392 57 392 57 429 102 c 128,-1,20
 466 147 466 147 466 221 c 0,21,22
 466 306 466 306 428.5 340 c 128,-1,23
 391 374 391 374 305 374 c 0,24,25
 288 374 288 374 203 369 c 1,26,27
 203 380 203 380 203 401 c 128,-1,28
 203 422 203 422 203 439.5 c 128,-1,29
 203 457 203 457 203 472 c 1,30,31
 269 466 269 466 301 466 c 0,32,33
 387 466 387 466 426.5 501 c 128,-1,34
 466 536 466 536 466 622 c 0,35,36
 466 696 466 696 429 740.5 c 128,-1,37
 392 785 392 785 319 785 c 0,38,39
 252 785 252 785 204.5 742 c 128,-1,40
 157 699 157 699 156 633 c 1,41,-1
 72 634 l 1,42,43
 91 856 91 856 320 856 c 2,44,-1
 355 856 l 2,45,46
 423 856 423 856 473.5 845.5 c 128,-1,47
 524 835 524 835 566.5 809.5 c 128,-1,48
 609 784 609 784 631 735.5 c 128,-1,49
 653 687 653 687 653 617 c 0,0,1
EndSplineSet
EndChar

StartChar: four
Encoding: 52 52 25
Width: 655
GlyphClass: 2
Flags: W
HStem: 204 157
VStem: 584 188
LayerCount: 2
Fore
SplineSet
202 246 m 1,0,-1
 439 246 l 1,1,-1
 436 599 l 1,2,-1
 202 246 l 1,0,-1
654 246 m 1,3,-1
 654 152 l 1,4,-1
 590 152 l 1,5,-1
 590 2 l 1,6,-1
 442 2 l 1,7,-1
 440 152 l 1,8,-1
 108 152 l 2,9,10
 89 152 89 152 76.5 165 c 128,-1,11
 64 178 64 178 64 196 c 0,12,13
 64 206 64 206 74 226 c 2,14,-1
 397 822 l 1,15,-1
 403 822 l 1,16,17
 412 844 412 844 438 844 c 2,18,-1
 549 844 l 2,19,20
 565 844 565 844 577.5 833 c 128,-1,21
 590 822 590 822 590 807 c 2,22,-1
 590 246 l 1,23,-1
 654 246 l 1,3,-1
EndSplineSet
EndChar

StartChar: five
Encoding: 53 53 26
Width: 654
GlyphClass: 2
Flags: W
HStem: 1 105 885 105
VStem: 95 100 977 294
LayerCount: 2
Fore
SplineSet
657 272 m 0,0,1
 657 133 657 133 571 59 c 128,-1,2
 485 -15 485 -15 343 -15 c 0,3,4
 95 -15 95 -15 68 250 c 1,5,-1
 152 265 l 1,6,7
 165 78 165 78 329 78 c 0,8,9
 396 78 396 78 433 137.5 c 128,-1,10
 470 197 470 197 470 268 c 0,11,12
 470 317 470 317 462.5 354.5 c 128,-1,13
 455 392 455 392 436.5 424.5 c 128,-1,14
 418 457 418 457 382.5 474.5 c 128,-1,15
 347 492 347 492 296 492 c 2,16,-1
 222 492 l 1,17,-1
 74 492 l 1,18,-1
 74 852 l 1,19,-1
 645 852 l 1,20,-1
 645 757 l 1,21,-1
 265 757 l 1,22,-1
 265 577 l 1,23,-1
 335 577 l 2,24,25
 657 577 657 577 657 272 c 0,0,1
EndSplineSet
EndChar

StartChar: six
Encoding: 54 54 27
Width: 628
GlyphClass: 2
Flags: W
HStem: 1 105 885 105
VStem: 95 100 977 294
LayerCount: 2
Fore
SplineSet
543 259 m 128,-1,1
 543 337 543 337 503 379.5 c 128,-1,2
 463 422 463 422 386 422 c 0,3,4
 312 422 312 422 278 375.5 c 128,-1,5
 244 329 244 329 244 253 c 0,6,7
 244 174 244 174 277.5 121.5 c 128,-1,8
 311 69 311 69 386 69 c 128,-1,9
 461 69 461 69 502 125 c 128,-1,0
 543 181 543 181 543 259 c 128,-1,1
637 626 m 1,10,-1
 541 626 l 1,11,12
 541 688 541 688 498 731 c 128,-1,13
 455 774 455 774 393 774 c 0,14,15
 345 774 345 774 309.5 740 c 128,-1,16
 274 706 274 706 259 660.5 c 128,-1,17
 244 615 244 615 244 569 c 2,18,-1
 244 483 l 1,19,20
 285 511 285 511 370 511 c 0,21,22
 498 511 498 511 566.5 445.5 c 128,-1,23
 635 380 635 380 635 253 c 0,24,25
 635 130 635 130 570.5 55.5 c 128,-1,26
 506 -19 506 -19 384 -19 c 2,27,-1
 350 -19 l 2,28,29
 294 -19 294 -19 250 -5.5 c 128,-1,30
 206 8 206 8 177 29 c 128,-1,31
 148 50 148 50 127 86 c 128,-1,32
 106 122 106 122 95.5 155 c 128,-1,33
 85 188 85 188 79 238 c 128,-1,34
 73 288 73 288 71.5 324.5 c 128,-1,35
 70 361 70 361 70 417 c 0,36,37
 70 466 70 466 71 499.5 c 128,-1,38
 72 533 72 533 76 577.5 c 128,-1,39
 80 622 80 622 88.5 653 c 128,-1,40
 97 684 97 684 110 718.5 c 128,-1,41
 123 753 123 753 144.5 776 c 128,-1,42
 166 799 166 799 194.5 818.5 c 128,-1,43
 223 838 223 838 263.5 847.5 c 128,-1,44
 304 857 304 857 354 857 c 0,45,46
 408 857 408 857 458 843 c 128,-1,47
 508 829 508 829 548.5 801.5 c 128,-1,48
 589 774 589 774 613 728.5 c 128,-1,49
 637 683 637 683 637 626 c 1,10,-1
EndSplineSet
EndChar

StartChar: seven
Encoding: 55 55 28
Width: 651
GlyphClass: 2
Flags: W
HStem: 1 20G 974 154
VStem: 86 728
LayerCount: 2
Fore
SplineSet
656 789 m 0,0,1
 656 779 656 779 650 761 c 1,2,-1
 319 0 l 1,3,-1
 212 0 l 1,4,-1
 434 743 l 1,5,-1
 59 743 l 1,6,-1
 59 842 l 1,7,-1
 614 842 l 1,8,-1
 614 841 l 1,9,10
 656 828 656 828 656 789 c 0,0,1
EndSplineSet
EndChar

StartChar: eight
Encoding: 56 56 29
Width: 668
GlyphClass: 2
Flags: W
HStem: 1 105 885 105
VStem: 95 100 977 294
LayerCount: 2
Fore
SplineSet
567 216 m 0,0,1
 567 288 567 288 522 333.5 c 128,-1,2
 477 379 477 379 405 379 c 128,-1,3
 333 379 333 379 297 336.5 c 128,-1,4
 261 294 261 294 261 221 c 0,5,6
 261 149 261 149 297 106 c 128,-1,7
 333 63 333 63 405 63 c 0,8,9
 480 63 480 63 523.5 103 c 128,-1,10
 567 143 567 143 567 216 c 0,0,1
478 622 m 128,-1,12
 478 695 478 695 442 737 c 128,-1,13
 406 779 406 779 334 779 c 128,-1,14
 262 779 262 779 217 734 c 128,-1,15
 172 689 172 689 172 617 c 0,16,17
 172 543 172 543 215.5 503 c 128,-1,18
 259 463 259 463 334 463 c 0,19,20
 406 463 406 463 442 506 c 128,-1,11
 478 549 478 549 478 622 c 128,-1,12
666 222 m 0,21,22
 666 106 666 106 594.5 43.5 c 128,-1,23
 523 -19 523 -19 404 -19 c 2,24,-1
 368 -19 l 2,25,26
 300 -19 300 -19 249 -8 c 128,-1,27
 198 3 198 3 157 28.5 c 128,-1,28
 116 54 116 54 94.5 101.5 c 128,-1,29
 73 149 73 149 73 217 c 0,30,31
 73 281 73 281 90 326 c 128,-1,32
 107 371 107 371 134 397.5 c 128,-1,33
 161 424 161 424 206 438.5 c 128,-1,34
 251 453 251 453 295.5 457.5 c 128,-1,35
 340 462 340 462 404 462 c 0,36,37
 522 462 522 462 594 399.5 c 128,-1,38
 666 337 666 337 666 222 c 0,21,22
666 617 m 0,39,40
 666 556 666 556 648 512 c 128,-1,41
 630 468 630 468 602.5 443 c 128,-1,42
 575 418 575 418 529 403.5 c 128,-1,43
 483 389 483 389 439.5 385 c 128,-1,44
 396 381 396 381 335 381 c 0,45,46
 217 381 217 381 145 444 c 128,-1,47
 73 507 73 507 73 622 c 128,-1,48
 73 737 73 737 145 799.5 c 128,-1,49
 217 862 217 862 335 862 c 2,50,-1
 371 862 l 2,51,52
 518 862 518 862 592 808.5 c 128,-1,53
 666 755 666 755 666 617 c 0,39,40
EndSplineSet
EndChar

StartChar: nine
Encoding: 57 57 30
Width: 628
GlyphClass: 2
Flags: W
HStem: 1 105 885 105
VStem: 95 100 977 294
LayerCount: 2
Fore
SplineSet
458 583 m 0,0,1
 458 661 458 661 425 712.5 c 128,-1,2
 392 764 392 764 319 764 c 128,-1,3
 246 764 246 764 205.5 709 c 128,-1,4
 165 654 165 654 165 578 c 0,5,6
 165 499 165 499 204 450 c 128,-1,7
 243 401 243 401 319 401 c 0,8,9
 392 401 392 401 425 453.5 c 128,-1,10
 458 506 458 506 458 583 c 0,0,1
635 432 m 0,11,12
 635 389 635 389 634.5 363.5 c 128,-1,13
 634 338 634 338 632 298 c 128,-1,14
 630 258 630 258 626 233.5 c 128,-1,15
 622 209 622 209 615 175.5 c 128,-1,16
 608 142 608 142 596.5 120.5 c 128,-1,17
 585 99 585 99 569.5 74.5 c 128,-1,18
 554 50 554 50 532.5 35 c 128,-1,19
 511 20 511 20 483.5 6.5 c 128,-1,20
 456 -7 456 -7 420.5 -13 c 128,-1,21
 385 -19 385 -19 343 -19 c 0,22,23
 227 -19 227 -19 147 41.5 c 128,-1,24
 67 102 67 102 68 214 c 1,25,-1
 167 214 l 1,26,27
 167 153 167 153 212.5 113.5 c 128,-1,28
 258 74 258 74 320 74 c 0,29,30
 352 74 352 74 376 84.5 c 128,-1,31
 400 95 400 95 414.5 115.5 c 128,-1,32
 429 136 429 136 438.5 158 c 128,-1,33
 448 180 448 180 452 211 c 128,-1,34
 456 242 456 242 457 264 c 128,-1,35
 458 286 458 286 458 317 c 2,36,-1
 458 346 l 1,37,38
 427 323 427 323 397.5 316 c 128,-1,39
 368 309 368 309 321 309 c 0,40,41
 200 309 200 309 135 385 c 128,-1,42
 70 461 70 461 70 584 c 128,-1,43
 70 707 70 707 135 782 c 128,-1,44
 200 857 200 857 321 857 c 2,45,-1
 355 857 l 2,46,47
 412 857 412 857 456 844 c 128,-1,48
 500 831 500 831 529 811.5 c 128,-1,49
 558 792 558 792 578.5 757.5 c 128,-1,50
 599 723 599 723 610 692 c 128,-1,51
 621 661 621 661 627 611 c 128,-1,52
 633 561 633 561 634 525 c 128,-1,53
 635 489 635 489 635 432 c 0,11,12
EndSplineSet
EndChar

StartChar: colon
Encoding: 58 58 31
Width: 262
GlyphClass: 2
Flags: W
HStem: -5 242
VStem: 88 240
LayerCount: 2
Fore
SplineSet
282 200 m 0,0,1
 282 151 282 151 255.5 125 c 128,-1,2
 229 99 229 99 180 99 c 128,-1,3
 131 99 131 99 103.5 125 c 128,-1,4
 76 151 76 151 76 200 c 0,5,6
 76 248 76 248 103.5 274.5 c 128,-1,7
 131 301 131 301 180 301 c 0,8,9
 282 301 282 301 282 200 c 0,0,1
282 515 m 0,10,11
 282 466 282 466 255.5 440 c 128,-1,12
 229 414 229 414 180 414 c 128,-1,13
 131 414 131 414 103.5 440 c 128,-1,14
 76 466 76 466 76 514 c 128,-1,15
 76 562 76 562 104 589 c 128,-1,16
 132 616 132 616 180 616 c 0,17,18
 282 616 282 616 282 515 c 0,10,11
EndSplineSet
EndChar

StartChar: semicolon
Encoding: 59 59 32
Width: 312
GlyphClass: 2
Flags: W
HStem: -299 493 -53 247
VStem: 83 279
LayerCount: 2
Fore
SplineSet
303 7 m 0,0,1
 303 -11 303 -11 298 -31 c 128,-1,2
 293 -51 293 -51 281 -74.5 c 128,-1,3
 269 -98 269 -98 260.5 -114.5 c 128,-1,4
 252 -131 252 -131 232.5 -158.5 c 128,-1,5
 213 -186 213 -186 205.5 -196 c 128,-1,6
 198 -206 198 -206 176 -235 c 128,-1,7
 154 -264 154 -264 152 -266 c 1,8,-1
 90 -254 l 1,9,10
 99 -236 99 -236 119.5 -203.5 c 128,-1,11
 140 -171 140 -171 148 -154 c 0,12,13
 166 -115 166 -115 184 -55 c 1,14,15
 164 -73 164 -73 143 -73 c 0,16,17
 111 -73 111 -73 90.5 -45.5 c 128,-1,18
 70 -18 70 -18 70 14 c 0,19,20
 70 63 70 63 100 91.5 c 128,-1,21
 130 120 130 120 179 120 c 0,22,23
 235 120 235 120 269 91.5 c 128,-1,24
 303 63 303 63 303 7 c 0,0,1
290 287 m 0,25,26
 290 239 290 239 263 212.5 c 128,-1,27
 236 186 236 186 188 186 c 0,28,29
 139 186 139 186 111.5 212 c 128,-1,30
 84 238 84 238 84 286 c 0,31,32
 84 335 84 335 111.5 361.5 c 128,-1,33
 139 388 139 388 188 388 c 0,34,35
 290 388 290 388 290 287 c 0,25,26
EndSplineSet
EndChar

StartChar: less
Encoding: 60 60 33
Width: 708
GlyphClass: 2
Flags: W
HStem: 50 816
VStem: 127 834
LayerCount: 2
Fore
SplineSet
249 352 m 1,0,-1
 710 39 l 1,1,-1
 465 39 l 1,2,-1
 102 339 l 1,3,-1
 102 359 l 1,4,-1
 465 680 l 1,5,-1
 710 680 l 1,6,-1
 249 352 l 1,0,-1
EndSplineSet
EndChar

StartChar: equal
Encoding: 61 61 34
Width: 717
GlyphClass: 2
Flags: W
HStem: 321 147
VStem: 102 547
LayerCount: 2
Fore
SplineSet
676 307 m 1,0,-1
 676 178 l 1,1,-1
 116 178 l 1,2,-1
 116 307 l 1,3,-1
 676 307 l 1,0,-1
676 527 m 1,4,-1
 676 398 l 1,5,-1
 116 398 l 1,6,-1
 116 527 l 1,7,-1
 676 527 l 1,4,-1
EndSplineSet
EndChar

StartChar: greater
Encoding: 62 62 35
Width: 686
GlyphClass: 2
Flags: W
HStem: 50 816
VStem: 127 834
LayerCount: 2
Fore
SplineSet
686 359 m 1,0,-1
 686 339 l 1,1,-1
 324 39 l 1,2,-1
 79 39 l 1,3,-1
 540 352 l 1,4,-1
 79 680 l 1,5,-1
 324 680 l 1,6,-1
 686 359 l 1,0,-1
EndSplineSet
EndChar

StartChar: question
Encoding: 63 63 36
Width: 572
GlyphClass: 2
Flags: W
LayerCount: 2
Fore
SplineSet
375 75 m 128,-1,1
 375 28 375 28 347.5 1.5 c 128,-1,2
 320 -25 320 -25 273 -25 c 128,-1,3
 226 -25 226 -25 197.5 1.5 c 128,-1,4
 169 28 169 28 169 75 c 128,-1,5
 169 122 169 122 197.5 149 c 128,-1,6
 226 176 226 176 273 176 c 128,-1,7
 320 176 320 176 347.5 149 c 128,-1,0
 375 122 375 122 375 75 c 128,-1,1
581 701 m 128,-1,9
 581 657 581 657 568 620 c 128,-1,10
 555 583 555 583 533.5 557.5 c 128,-1,11
 512 532 512 532 486.5 509 c 128,-1,12
 461 486 461 486 436 466 c 128,-1,13
 411 446 411 446 389.5 425 c 128,-1,14
 368 404 368 404 355 377 c 128,-1,15
 342 350 342 350 342 318 c 0,16,17
 342 302 342 302 342.5 283.5 c 128,-1,18
 343 265 343 265 344 242.5 c 128,-1,19
 345 220 345 220 345 208 c 1,20,-1
 193 208 l 1,21,22
 186 245 186 245 186 272 c 0,23,24
 186 332 186 332 209.5 378.5 c 128,-1,25
 233 425 233 425 266 455 c 128,-1,26
 299 485 299 485 332 513 c 128,-1,27
 365 541 365 541 388.5 580 c 128,-1,28
 412 619 412 619 412 667 c 0,29,30
 412 730 412 730 377 768.5 c 128,-1,31
 342 807 342 807 279 807 c 0,32,33
 211 807 211 807 179.5 763 c 128,-1,34
 148 719 148 719 151 649 c 1,35,-1
 63 646 l 1,36,-1
 62 668 l 1,37,38
 61 782 61 782 132.5 840.5 c 128,-1,39
 204 899 204 899 322 899 c 0,40,41
 363 899 363 899 399 893 c 128,-1,42
 435 887 435 887 469 873 c 128,-1,43
 503 859 503 859 527.5 836.5 c 128,-1,44
 552 814 552 814 566.5 779.5 c 128,-1,8
 581 745 581 745 581 701 c 128,-1,9
EndSplineSet
EndChar

StartChar: at
Encoding: 64 64 37
Width: 1082
GlyphClass: 2
Flags: W
LayerCount: 2
Fore
SplineSet
733 344 m 2,0,-1
 733 463 l 2,1,2
 733 495 733 495 702.5 516.5 c 128,-1,3
 672 538 672 538 639 538 c 0,4,5
 600 538 600 538 573 506.5 c 128,-1,6
 546 475 546 475 536 437 c 128,-1,7
 526 399 526 399 526 361 c 0,8,9
 526 314 526 314 545 274 c 128,-1,10
 564 234 564 234 606 234 c 0,11,12
 652 234 652 234 692.5 266.5 c 128,-1,13
 733 299 733 299 733 344 c 2,0,-1
1078 406 m 0,14,15
 1078 358 1078 358 1066.5 309.5 c 128,-1,16
 1055 261 1055 261 1032.5 216.5 c 128,-1,17
 1010 172 1010 172 969.5 144.5 c 128,-1,18
 929 117 929 117 877 117 c 0,19,20
 794 117 794 117 736 190 c 1,21,22
 668 127 668 127 581 127 c 0,23,24
 481 127 481 127 422 196 c 128,-1,25
 363 265 363 265 363 367 c 0,26,27
 363 483 363 483 436 563.5 c 128,-1,28
 509 644 509 644 624 644 c 0,29,30
 738 644 738 644 816 563 c 1,31,-1
 816 290 l 2,32,33
 816 262 816 262 835.5 243 c 128,-1,34
 855 224 855 224 882 224 c 0,35,36
 904 224 904 224 919.5 243 c 128,-1,37
 935 262 935 262 942.5 291.5 c 128,-1,38
 950 321 950 321 953 345.5 c 128,-1,39
 956 370 956 370 956 391 c 0,40,41
 956 554 956 554 875 653.5 c 128,-1,42
 794 753 794 753 634 753 c 0,43,44
 451 753 451 753 349 659.5 c 128,-1,45
 247 566 247 566 247 385 c 0,46,47
 247 262 247 262 303.5 178.5 c 128,-1,48
 360 95 360 95 452 58 c 128,-1,49
 544 21 544 21 665 21 c 0,50,51
 768 21 768 21 866 66 c 1,52,-1
 925 -26 l 1,53,54
 805 -86 805 -86 651 -86 c 0,55,56
 531 -86 531 -86 430.5 -59 c 128,-1,57
 330 -32 330 -32 249 23 c 128,-1,58
 168 78 168 78 122 172 c 128,-1,59
 76 266 76 266 76 390 c 0,60,61
 76 515 76 515 116.5 607.5 c 128,-1,62
 157 700 157 700 231.5 755 c 128,-1,63
 306 810 306 810 403 836.5 c 128,-1,64
 500 863 500 863 621 863 c 0,65,66
 833 863 833 863 955.5 740.5 c 128,-1,67
 1078 618 1078 618 1078 406 c 0,14,15
EndSplineSet
EndChar

StartChar: A
Encoding: 65 65 38
Width: 1234
GlyphClass: 2
Flags: W
HStem: 0 74 385 114 1223 19
VStem: 117 1314
LayerCount: 2
Fore
SplineSet
803 0 m 1,0,-1
 803 65 l 1,1,2
 805 65 805 65 824.5 64 c 128,-1,3
 844 63 844 63 856 64 c 128,-1,4
 868 65 868 65 884 67.5 c 128,-1,5
 900 70 900 70 908.5 78.5 c 128,-1,6
 917 87 917 87 917 100 c 0,7,8
 917 112 917 112 911.5 133 c 128,-1,9
 906 154 906 154 899 173.5 c 128,-1,10
 892 193 892 193 879.5 221 c 128,-1,11
 867 249 867 249 859.5 265 c 128,-1,12
 852 281 852 281 840 306.5 c 128,-1,13
 828 332 828 332 826 336 c 1,14,-1
 430 336 l 1,15,-1
 361 165 l 1,16,17
 347 133 347 133 347 112 c 0,18,19
 347 94 347 94 359.5 83 c 128,-1,20
 372 72 372 72 389.5 69 c 128,-1,21
 407 66 407 66 425.5 64.5 c 128,-1,22
 444 63 444 63 457 65 c 1,23,-1
 457 0 l 1,24,-1
 102 0 l 1,25,-1
 102 64 l 1,26,27
 130 65 130 65 152.5 73.5 c 128,-1,28
 175 82 175 82 189 92.5 c 128,-1,29
 203 103 203 103 218 126 c 128,-1,30
 233 149 233 149 239.5 163.5 c 128,-1,31
 246 178 246 178 260 210 c 2,32,-1
 642 1084 l 1,33,-1
 698 1084 l 1,34,-1
 1103 190 l 1,35,36
 1147 96 1147 96 1177 79 c 0,37,38
 1193 69 1193 69 1249 63 c 1,39,-1
 1249 0 l 1,40,-1
 803 0 l 1,0,-1
629 801 m 1,41,-1
 471 436 l 1,42,-1
 788 436 l 1,43,-1
 629 801 l 1,41,-1
EndSplineSet
EndChar

StartChar: B
Encoding: 66 66 39
Width: 1062
GlyphClass: 2
Flags: W
HStem: -28 72 -28 106 552 112 1084 107
VStem: 301 228 933 229 971 254
LayerCount: 2
Fore
SplineSet
842 533 m 1,0,1
 1069 458 1069 458 1069 265 c 0,2,3
 1069 201 1069 201 1044 150 c 128,-1,4
 1019 99 1019 99 979 67 c 128,-1,5
 939 35 939 35 885 14 c 128,-1,6
 831 -7 831 -7 776 -15.5 c 128,-1,7
 721 -24 721 -24 662 -24 c 2,8,-1
 107 -24 l 1,9,-1
 107 38 l 1,10,11
 193.369 41.2903 193.369 41.2903 217.091 51.989 c 0,12,13
 259.997 71.3394 259.997 71.3394 262.76 148.074 c 0,14,15
 263 154.751 263 154.751 263 162 c 2,16,-1
 263 852 l 2,17,18
 263 896 263 896 255 921 c 128,-1,19
 247 946 247 946 225.5 957 c 128,-1,20
 204 968 204 968 182 971 c 128,-1,21
 160 974 160 974 115.429 974.766 c 0,22,23
 110 975 110 975 107 975 c 1,24,-1
 107 1040 l 1,25,-1
 575 1040 l 2,26,27
 639 1040 639 1040 694.5 1034 c 128,-1,28
 750 1028 750 1028 811 1009.5 c 128,-1,29
 872 991 872 991 915 961 c 128,-1,30
 958 931 958 931 986 879 c 128,-1,31
 1014 827 1014 827 1014 758 c 0,32,33
 1014 590 1014 590 842 533 c 1,0,1
551 946 m 2,34,-1
 480 946 l 2,35,36
 462 946 462 946 462 918 c 2,37,-1
 462 580 l 1,38,-1
 596 580 l 2,39,40
 693 580 693 580 754 620 c 128,-1,41
 815 660 815 660 815 752 c 0,42,43
 815 946 815 946 551 946 c 2,34,-1
462 482 m 1,44,-1
 462 113 l 2,45,46
 462 99 462 99 467 89.5 c 128,-1,47
 472 80 472 80 477.5 76 c 128,-1,48
 483 72 483 72 497 69.5 c 128,-1,49
 511 67 511 67 516.5 67 c 128,-1,50
 522 67 522 67 540 67 c 0,51,52
 578 67 578 67 609.5 69.5 c 128,-1,53
 641 72 641 72 678.5 78.5 c 128,-1,54
 716 85 716 85 744.5 99 c 128,-1,55
 773 113 773 113 797.5 133.5 c 128,-1,56
 822 154 822 154 835 186.5 c 128,-1,57
 848 219 848 219 848 261 c 0,58,59
 848 297 848 297 839.5 326.5 c 128,-1,60
 831 356 831 356 818.5 377.5 c 128,-1,61
 806 399 806 399 783.5 415.5 c 128,-1,62
 761 432 761 432 741 443 c 128,-1,63
 721 454 721 454 689.5 462 c 128,-1,64
 658 470 658 470 635 473.5 c 128,-1,65
 612 477 612 477 576 479 c 128,-1,66
 540 481 540 481 519 481.5 c 128,-1,67
 498 482 498 482 462 482 c 1,44,-1
EndSplineSet
EndChar

StartChar: C
Encoding: 67 67 40
Width: 1093
GlyphClass: 2
Flags: W
HStem: -33 118 1123 113
VStem: 122 254
LayerCount: 2
Fore
SplineSet
709 73 m 0,0,1
 889 73 889 73 1069 237 c 1,2,-1
 1120 187 l 1,3,4
 953 -29 953 -29 658 -29 c 0,5,6
 410 -29 410 -29 258.5 118.5 c 128,-1,7
 107 266 107 266 107 513 c 0,8,9
 107 676 107 676 176.5 804.5 c 128,-1,10
 246 933 246 933 373 1006 c 128,-1,11
 500 1079 500 1079 663 1079 c 0,12,13
 758 1079 758 1079 854 1053 c 0,14,15
 953 1027 953 1027 959 1027 c 0,16,17
 1004 1027 1004 1027 1013 1079 c 1,18,-1
 1079 1079 l 1,19,-1
 1095 691 l 1,20,-1
 1024 691 l 1,21,22
 938 980 938 980 693 980 c 0,23,24
 600 980 600 980 528 943 c 128,-1,25
 456 906 456 906 413.5 842.5 c 128,-1,26
 371 779 371 779 349.5 701 c 128,-1,27
 328 623 328 623 328 534 c 0,28,29
 328 437 328 437 349 356 c 128,-1,30
 370 275 370 275 413.5 210.5 c 128,-1,31
 457 146 457 146 532.5 109.5 c 128,-1,32
 608 73 608 73 709 73 c 0,0,1
EndSplineSet
EndChar

StartChar: D
Encoding: 68 68 41
Width: 1199
GlyphClass: 2
Flags: W
HStem: 0 72 0 107 1114 106 1144 75
VStem: 261 230 1130 242
LayerCount: 2
Fore
SplineSet
1198 517 m 0,0,1
 1198 430 1198 430 1162 335 c 0,2,3
 1128 245 1128 245 1063 180 c 0,4,5
 965 81 965 81 841 40.5 c 128,-1,6
 717 0 717 0 561 0 c 2,7,-1
 86 0 l 1,8,-1
 86 63 l 1,9,10
 168.064 68.5771 168.064 68.5771 189.612 80.2017 c 0,11,12
 225.319 99.4652 225.319 99.4652 227.758 172.688 c 0,13,14
 228 179.958 228 179.958 228 188 c 2,15,-1
 228 877 l 2,16,17
 228 920 228 920 223 944 c 128,-1,18
 218 968 218 968 200 980 c 128,-1,19
 182 992 182 992 164 994.5 c 128,-1,20
 146 997 146 997 103.075 999.945 c 0,21,22
 92 1001 92 1001 86 1001 c 1,23,-1
 86 1065 l 1,24,-1
 540 1065 l 2,25,26
 854 1065 854 1065 1027 925 c 0,27,28
 1093 872 1093 872 1145 775 c 0,29,30
 1198 678 1198 678 1198 517 c 0,0,1
986 524 m 0,31,32
 986 641 986 641 949 728.5 c 128,-1,33
 912 816 912 816 844 869 c 128,-1,34
 776 922 776 922 685 947.5 c 128,-1,35
 594 973 594 973 480 973 c 0,36,37
 452 973 452 973 440.5 964 c 128,-1,38
 429 955 429 955 429 929 c 2,39,-1
 429 140 l 2,40,41
 429 119 429 119 439 108 c 128,-1,42
 449 97 449 97 460.5 95 c 128,-1,43
 472 93 472 93 493 93 c 0,44,45
 986 93 986 93 986 524 c 0,31,32
EndSplineSet
EndChar

StartChar: E
Encoding: 69 69 42
Width: 1036
GlyphClass: 2
Flags: W
HStem: 0 72 0 107 583 114 1112 108 1143 76
VStem: 252 230 929 81
LayerCount: 2
Fore
SplineSet
982 299 m 1,0,-1
 1062 299 l 1,1,-1
 980 0 l 1,2,-1
 80 0 l 1,3,-1
 80 63 l 1,4,5
 107 65 107 65 115.5 66 c 128,-1,6
 124 67 124 67 143.5 70 c 128,-1,7
 163 73 163 73 168.5 76 c 128,-1,8
 174 79 174 79 186.5 85.5 c 128,-1,9
 199 92 199 92 202.5 100.5 c 128,-1,10
 206 109 206 109 211.5 121.5 c 128,-1,11
 217 134 217 134 218.5 150 c 128,-1,12
 220 166 220 166 220 188 c 2,13,-1
 220 877 l 2,14,15
 220 956 220 956 195.5 974.5 c 128,-1,16
 171 993 171 993 89.363 999.293 c 0,17,18
 83 1000 83 1000 80 1000 c 1,19,-1
 80 1065 l 1,20,-1
 970 1065 l 1,21,-1
 975 807 l 1,22,-1
 902 807 l 1,23,24
 892 854 892 854 880.5 882.5 c 128,-1,25
 869 911 869 911 854.5 930 c 128,-1,26
 840 949 840 949 814 957.5 c 128,-1,27
 788 966 788 966 760 968.5 c 128,-1,28
 732 971 732 971 681 971 c 2,29,-1
 456 971 l 2,30,31
 432 971 432 971 426.5 965 c 128,-1,32
 421 959 421 959 421 935 c 2,33,-1
 421 608 l 1,34,-1
 650 608 l 2,35,36
 698 608 698 608 725 613.5 c 128,-1,37
 752 619 752 619 769.5 638.5 c 128,-1,38
 787 658 787 658 794.5 682 c 128,-1,39
 802 706 802 706 811 755 c 1,40,-1
 882 755 l 1,41,-1
 882 360 l 1,42,-1
 810 360 l 1,43,44
 803 410 803 410 795.5 435 c 128,-1,45
 788 460 788 460 770.5 479 c 128,-1,46
 753 498 753 498 726 503.5 c 128,-1,47
 699 509 699 509 650 509 c 2,48,-1
 421 509 l 1,49,-1
 421 142 l 2,50,51
 421 114 421 114 431 107 c 0,52,53
 449 93 449 93 579 93 c 0,54,55
 623 93 623 93 644.5 93.5 c 128,-1,56
 666 94 666 94 701.5 95.5 c 128,-1,57
 737 97 737 97 754.5 100.5 c 128,-1,58
 772 104 772 104 799.5 111 c 128,-1,59
 827 118 827 118 842.5 128.5 c 128,-1,60
 858 139 858 139 879.5 154 c 128,-1,61
 901 169 901 169 916.5 190 c 128,-1,62
 932 211 932 211 949 238 c 128,-1,63
 966 265 966 265 982 299 c 1,0,-1
EndSplineSet
EndChar

StartChar: F
Encoding: 70 70 43
Width: 978
GlyphClass: 2
Flags: W
HStem: 0 72 583 114 1112 108 1146 74
VStem: 251 231 912 80
LayerCount: 2
Fore
SplineSet
80 1065 m 1,0,-1
 969 1065 l 1,1,-1
 975 807 l 1,2,-1
 902 807 l 1,3,4
 892 855 892 855 880.5 883.5 c 128,-1,5
 869 912 869 912 855.5 930.5 c 128,-1,6
 842 949 842 949 816 957.5 c 128,-1,7
 790 966 790 966 762 968.5 c 128,-1,8
 734 971 734 971 683 971 c 2,9,-1
 454 971 l 2,10,11
 431 971 431 971 426 965 c 128,-1,12
 421 959 421 959 421 935 c 2,13,-1
 421 608 l 1,14,-1
 635 608 l 2,15,16
 727 608 727 608 754.5 635 c 128,-1,17
 782 662 782 662 796 755 c 1,18,-1
 866 755 l 1,19,-1
 866 360 l 1,20,-1
 796 360 l 1,21,22
 791 393 791 393 786.5 413 c 128,-1,23
 782 433 782 433 774 451.5 c 128,-1,24
 766 470 766 470 756 479.5 c 128,-1,25
 746 489 746 489 729 496.5 c 128,-1,26
 712 504 712 504 689.5 506.5 c 128,-1,27
 667 509 667 509 635 509 c 2,28,-1
 421 509 l 1,29,-1
 421 188 l 2,30,31
 421 146 421 146 426.5 122 c 128,-1,32
 432 98 432 98 452.5 86 c 128,-1,33
 473 74 473 74 488 71 c 128,-1,34
 503 68 503 68 545.679 64.7791 c 0,35,36
 560 64 560 64 567 63 c 1,37,-1
 567 0 l 1,38,-1
 80 0 l 1,39,-1
 80 63 l 1,40,41
 174 69 174 69 196.5 91 c 128,-1,42
 219 113 219 113 219 204 c 2,43,-1
 219 877 l 2,44,45
 219 918 219 918 214 941 c 128,-1,46
 209 964 209 964 192 976 c 128,-1,47
 175 988 175 988 158.5 991.5 c 128,-1,48
 142 995 142 995 102.951 997.914 c 0,49,50
 88 999 88 999 80 1000 c 1,51,-1
 80 1065 l 1,0,-1
EndSplineSet
EndChar

StartChar: G
Encoding: 71 71 44
Width: 1226
GlyphClass: 2
Flags: W
HStem: -23 111 596 75 1133 113
VStem: 129 253 1068 219
LayerCount: 2
Fore
SplineSet
971 1035 m 0,0,1
 1015 1035 1015 1035 1029 1088 c 1,2,-1
 1096 1088 l 1,3,-1
 1110 724 l 1,4,-1
 1043 724 l 1,5,6
 1018 783 1018 783 990.5 827 c 128,-1,7
 963 871 963 871 924.5 909.5 c 128,-1,8
 886 948 886 948 835 968.5 c 128,-1,9
 784 989 784 989 722 989 c 0,10,11
 620 989 620 989 543.5 952.5 c 128,-1,12
 467 916 467 916 422 850.5 c 128,-1,13
 377 785 377 785 355 703 c 128,-1,14
 333 621 333 621 333 523 c 0,15,16
 333 320 333 320 436 198 c 128,-1,17
 539 76 539 76 737 76 c 0,18,19
 762 76 762 76 787.5 78 c 128,-1,20
 813 80 813 80 849.5 86.5 c 128,-1,21
 886 93 886 93 909 109 c 128,-1,22
 932 125 932 125 932 149 c 2,23,-1
 932 402 l 2,24,25
 932 444 932 444 926.5 467.5 c 128,-1,26
 921 491 921 491 905 502 c 128,-1,27
 889 513 889 513 869 516.5 c 128,-1,28
 849 520 849 520 810.982 522.577 c 0,29,30
 798 523 798 523 791 524 c 1,31,-1
 791 586 l 1,32,-1
 1237 586 l 1,33,-1
 1237 524 l 1,34,35
 1172 520 1172 520 1148 501 c 128,-1,36
 1124 482 1124 482 1124 420 c 2,37,-1
 1124 96 l 1,38,39
 1060 41 1060 41 929 10.5 c 128,-1,40
 798 -20 798 -20 690 -20 c 0,41,42
 567 -20 567 -20 461.5 16.5 c 128,-1,43
 356 53 356 53 278.5 121 c 128,-1,44
 201 189 201 189 157 291.5 c 128,-1,45
 113 394 113 394 113 519 c 0,46,47
 113 772 113 772 271 930 c 128,-1,48
 429 1088 429 1088 682 1088 c 0,49,50
 774 1088 774 1088 929 1044 c 1,51,52
 965 1035 965 1035 971 1035 c 0,0,1
EndSplineSet
EndChar

StartChar: H
Encoding: 72 72 45
Width: 1231
GlyphClass: 2
Flags: W
HStem: 0 72 562 119 1147 73
VStem: 268 229 1012 230
LayerCount: 2
Fore
SplineSet
1226 63 m 1,0,-1
 1226 0 l 1,1,-1
 742 0 l 1,2,-1
 742 63 l 1,3,4
 794 66 794 66 816.5 70 c 128,-1,5
 839 74 839 74 857 89 c 128,-1,6
 875 104 875 104 879 129 c 128,-1,7
 883 154 883 154 883 204 c 2,8,-1
 883 491 l 1,9,-1
 434 491 l 1,10,-1
 434 188 l 2,11,12
 434 146 434 146 440 122.5 c 128,-1,13
 446 99 446 99 465 87 c 128,-1,14
 484 75 484 75 502.5 71.5 c 128,-1,15
 521 68 521 68 560.863 64.1709 c 0,16,17
 570 63 570 63 574 63 c 1,18,-1
 574 0 l 1,19,-1
 91 0 l 1,20,-1
 91 63 l 1,21,22
 185 69 185 69 209.5 91 c 128,-1,23
 234 113 234 113 234 204 c 2,24,-1
 234 877 l 2,25,26
 234 918 234 918 228.5 941.5 c 128,-1,27
 223 965 223 965 201.5 977.5 c 128,-1,28
 180 990 180 990 166 992.5 c 128,-1,29
 152 995 152 995 108.673 999.439 c 0,30,31
 97 1000 97 1000 91 1001 c 1,32,-1
 91 1065 l 1,33,-1
 574 1065 l 1,34,-1
 574 1001 l 1,35,36
 493.09 993.998 493.09 993.998 475.236 986.201 c 0,37,38
 440.529 971.044 440.529 971.044 435.347 912.216 c 0,39,40
 434 896.929 434 896.929 434 877 c 2,41,-1
 434 595 l 1,42,-1
 883 595 l 1,43,-1
 883 877 l 2,44,45
 883 919 883 919 878 942.5 c 128,-1,46
 873 966 873 966 852 978.5 c 128,-1,47
 831 991 831 991 814.5 993.5 c 128,-1,48
 798 996 798 996 751.622 1000.27 c 0,49,50
 745 1001 745 1001 742 1001 c 1,51,-1
 742 1065 l 1,52,-1
 1226 1065 l 1,53,-1
 1226 1001 l 1,54,55
 1144.81 994.755 1144.81 994.755 1125.19 985.742 c 0,56,57
 1089.36 969.285 1089.36 969.285 1084.9 905.695 c 0,58,59
 1084 892.812 1084 892.812 1084 877 c 2,60,-1
 1084 188 l 2,61,62
 1084 109 1084 109 1109.5 90 c 128,-1,63
 1135 71 1135 71 1217.63 63.7194 c 0,64,65
 1223 63 1223 63 1226 63 c 1,0,-1
EndSplineSet
EndChar

StartChar: I
Encoding: 73 73 46
Width: 608
GlyphClass: 2
Flags: W
HStem: 0 75 1146 74
VStem: 302 228
LayerCount: 2
Fore
SplineSet
621 64 m 1,0,-1
 621 0 l 1,1,-1
 107 0 l 1,2,-1
 107 64 l 1,3,4
 117 65 117 65 136.5 65.5 c 128,-1,5
 156 66 156 66 163.5 66.5 c 128,-1,6
 171 67 171 67 186.5 69 c 128,-1,7
 202 71 202 71 207.5 73 c 128,-1,8
 213 75 213 75 224 79.5 c 128,-1,9
 235 84 235 84 239 90 c 128,-1,10
 243 96 243 96 249.5 105 c 128,-1,11
 256 114 256 114 258 126 c 128,-1,12
 260 138 260 138 262 153.5 c 128,-1,13
 264 169 264 169 264 188 c 2,14,-1
 264 877 l 2,15,16
 264 901 264 901 261 919.5 c 128,-1,17
 258 938 258 938 254 950.5 c 128,-1,18
 250 963 250 963 240.5 971.5 c 128,-1,19
 231 980 231 980 224 984.5 c 128,-1,20
 217 989 217 989 201 992 c 128,-1,21
 185 995 185 995 174.5 995.5 c 128,-1,22
 164 996 164 996 142 997.5 c 128,-1,23
 120 999 120 999 107 1000 c 1,24,-1
 107 1065 l 1,25,-1
 621 1065 l 1,26,-1
 621 1000 l 1,27,28
 534.564 998.338 534.564 998.338 510.35 987.89 c 0,29,30
 465.737 968.639 465.737 968.639 463.191 889.337 c 0,31,32
 463 883.385 463 883.385 463 877 c 2,33,-1
 463 188 l 2,34,35
 463 146 463 146 470.5 120.5 c 128,-1,36
 478 95 478 95 502.5 83.5 c 128,-1,37
 527 72 527 72 544 69.5 c 128,-1,38
 561 67 561 67 605.859 64.7272 c 0,39,40
 616 64 616 64 621 64 c 1,0,-1
EndSplineSet
EndChar

StartChar: J
Encoding: 74 74 47
Width: 691
GlyphClass: 2
Flags: W
HStem: -23 107 1142 78
VStem: 413 230
LayerCount: 2
Fore
SplineSet
318 72 m 0,0,1
 361 72 361 72 361 144 c 2,2,-1
 361 877 l 2,3,4
 361 920 361 920 355 944 c 128,-1,5
 349 968 349 968 330 979.5 c 128,-1,6
 311 991 311 991 293 994 c 128,-1,7
 275 997 275 997 233.029 998.906 c 0,8,9
 219 1000 219 1000 212 1000 c 1,10,-1
 212 1065 l 1,11,-1
 709 1065 l 1,12,-1
 709 1000 l 1,13,14
 625.887 995.34 625.887 995.34 608.582 989.424 c 0,15,16
 570.748 976.49 570.748 976.49 563.522 922.403 c 0,17,18
 561 903.528 561 903.528 561 877 c 2,19,-1
 561 301 l 2,20,21
 561 76 561 76 402 3 c 1,22,23
 346 -20 346 -20 295 -20 c 0,24,25
 260 -20 260 -20 228 -14.5 c 128,-1,26
 196 -9 196 -9 164 3.5 c 128,-1,27
 132 16 132 16 113 42.5 c 128,-1,28
 94 69 94 69 94 107 c 0,29,30
 94 146 94 146 122.5 174.5 c 128,-1,31
 151 203 151 203 190 203 c 0,32,33
 225 203 225 203 249.5 182.5 c 128,-1,34
 274 162 274 162 283.5 137.5 c 128,-1,35
 293 113 293 113 301.5 92.5 c 128,-1,36
 310 72 310 72 318 72 c 0,0,1
EndSplineSet
EndChar

StartChar: K
Encoding: 75 75 48
Width: 1223
GlyphClass: 2
Flags: W
HStem: 0 73 1142 78
VStem: 288 229
LayerCount: 2
Fore
SplineSet
826 970 m 0,0,1
 826 978 826 978 821.5 983.5 c 128,-1,2
 817 989 817 989 808 992 c 128,-1,3
 799 995 799 995 790 997 c 128,-1,4
 781 999 781 999 768.5 999.5 c 128,-1,5
 756 1000 756 1000 748 1000.5 c 128,-1,6
 740 1001 740 1001 729 1000.5 c 128,-1,7
 718 1000 718 1000 716 1000 c 1,8,-1
 716 1065 l 1,9,-1
 1173 1065 l 1,10,-1
 1173 1000 l 1,11,12
 1082 995 1082 995 1038.5 973.5 c 128,-1,13
 995 952 995 952 925 884 c 2,14,-1
 631 603 l 1,15,-1
 994 227 l 1,16,-1
 1028 192 l 2,17,18
 1035 185 1035 185 1054.5 164.5 c 128,-1,19
 1074 144 1074 144 1079.5 138.5 c 128,-1,20
 1085 133 1085 133 1101 118.5 c 128,-1,21
 1117 104 1117 104 1125 99.5 c 128,-1,22
 1133 95 1133 95 1149 86 c 128,-1,23
 1165 77 1165 77 1178.5 74 c 128,-1,24
 1192 71 1192 71 1210.5 68 c 128,-1,25
 1229 65 1229 65 1250 64 c 1,26,-1
 1250 0 l 1,27,-1
 724 0 l 1,28,-1
 724 64 l 1,29,30
 836 64 836 64 836 82 c 0,31,32
 836 94 836 94 826 113.5 c 128,-1,33
 816 133 816 133 796.5 157.5 c 128,-1,34
 777 182 777 182 755 208 c 128,-1,35
 733 234 733 234 703 265 c 128,-1,36
 673 296 673 296 648.5 321 c 128,-1,37
 624 346 624 346 592.5 376.5 c 128,-1,38
 561 407 561 407 543 424 c 128,-1,39
 525 441 525 441 501 463.5 c 128,-1,40
 477 486 477 486 475 488 c 1,41,-1
 451 470 l 1,42,-1
 451 188 l 2,43,44
 451 159 451 159 453.5 139.5 c 128,-1,45
 456 120 456 120 464.5 106.5 c 128,-1,46
 473 93 473 93 480.5 85.5 c 128,-1,47
 488 78 488 78 506.5 73.5 c 128,-1,48
 525 69 525 69 539 67.5 c 128,-1,49
 553 66 553 66 582.509 64.0675 c 0,50,51
 592 63 592 63 597 63 c 1,52,-1
 597 0 l 1,53,-1
 107 0 l 1,54,-1
 107 63 l 1,55,56
 149 66 149 66 169 69 c 128,-1,57
 189 72 189 72 209 79.5 c 128,-1,58
 229 87 229 87 236 102.5 c 128,-1,59
 243 118 243 118 247 141 c 128,-1,60
 251 164 251 164 251 204 c 2,61,-1
 251 877 l 2,62,63
 251 906 251 906 248.5 926 c 128,-1,64
 246 946 246 946 237.5 959 c 128,-1,65
 229 972 229 972 222.5 979.5 c 128,-1,66
 216 987 216 987 196.5 991 c 128,-1,67
 177 995 177 995 165.5 996 c 128,-1,68
 154 997 154 997 123.681 999.082 c 0,69,70
 113 1000 113 1000 107 1000 c 1,71,-1
 107 1065 l 1,72,-1
 601 1065 l 1,73,-1
 601 1000 l 1,74,75
 517.189 995.3 517.189 995.3 499.639 989.355 c 0,76,77
 461.106 976.301 461.106 976.301 453.623 922.35 c 0,78,79
 451 903.44 451 903.44 451 877 c 2,80,-1
 451 599 l 1,81,-1
 706 822 l 2,82,83
 792.382 897.911 792.382 897.911 814.587 935.99 c 0,84,85
 826 955.561 826 955.561 826 970 c 0,0,1
EndSplineSet
EndChar

StartChar: L
Encoding: 76 76 49
Width: 1055
GlyphClass: 2
Flags: W
HStem: 0 72 0 110 1143 76 1146 74
VStem: 262 230
LayerCount: 2
Fore
SplineSet
961 230 m 2,0,-1
 997 306 l 1,1,-1
 1072 306 l 1,2,-1
 986 0 l 1,3,-1
 89 0 l 1,4,-1
 89 63 l 1,5,6
 116 65 116 65 124.5 66 c 128,-1,7
 133 67 133 67 152.5 70 c 128,-1,8
 172 73 172 73 177.5 76 c 128,-1,9
 183 79 183 79 195.5 85.5 c 128,-1,10
 208 92 208 92 211.5 100.5 c 128,-1,11
 215 109 215 109 220.5 121.5 c 128,-1,12
 226 134 226 134 227.5 150 c 128,-1,13
 229 166 229 166 229 188 c 2,14,-1
 229 877 l 2,15,16
 229 956 229 956 205.5 974.5 c 128,-1,17
 182 993 182 993 100.383 999.161 c 0,18,19
 93 1000 93 1000 89 1000 c 1,20,-1
 89 1065 l 1,21,-1
 579 1065 l 1,22,-1
 579 1000 l 1,23,24
 570 999 570 999 548 997.5 c 128,-1,25
 526 996 526 996 519.5 995 c 128,-1,26
 513 994 513 994 496.5 991.5 c 128,-1,27
 480 989 480 989 475.5 985.5 c 128,-1,28
 471 982 471 982 460 976 c 128,-1,29
 449 970 449 970 446 961.5 c 128,-1,30
 443 953 443 953 438 941 c 128,-1,31
 433 929 433 929 431.5 913 c 128,-1,32
 430 897 430 897 430 877 c 2,33,-1
 430 142 l 2,34,35
 430 116 430 116 442 107.5 c 128,-1,36
 454 99 454 99 482 98 c 0,37,38
 520 96 520 96 539 96 c 2,39,-1
 656 96 l 2,40,41
 897 96 897 96 961 230 c 2,0,-1
EndSplineSet
EndChar

StartChar: M
Encoding: 77 77 50
Width: 1480
GlyphClass: 2
Flags: W
HStem: 0 72 1142 78 1147 73
VStem: 281 123 1320 231
LayerCount: 2
Fore
SplineSet
1494 63 m 1,0,-1
 1494 0 l 1,1,-1
 1007 0 l 1,2,-1
 1007 63 l 1,3,4
 1043 65 1043 65 1060.5 67 c 128,-1,5
 1078 69 1078 69 1098 74.5 c 128,-1,6
 1118 80 1118 80 1125.5 88 c 128,-1,7
 1133 96 1133 96 1140.5 112 c 128,-1,8
 1148 128 1148 128 1150 149.5 c 128,-1,9
 1152 171 1152 171 1152 204 c 2,10,-1
 1152 826 l 1,11,-1
 772 0 l 1,12,-1
 726 0 l 1,13,-1
 353 792 l 1,14,-1
 353 239 l 2,15,16
 353 183 353 183 356.5 155.5 c 128,-1,17
 360 128 360 128 375.5 105.5 c 128,-1,18
 391 83 391 83 420.5 74.5 c 128,-1,19
 450 66 450 66 504 63 c 1,20,-1
 504 0 l 1,21,-1
 89 0 l 1,22,-1
 89 63 l 1,23,24
 126 67 126 67 150 71.5 c 128,-1,25
 174 76 174 76 192.5 86 c 128,-1,26
 211 96 211 96 220.5 107 c 128,-1,27
 230 118 230 118 236 140 c 128,-1,28
 242 162 242 162 243.5 185 c 128,-1,29
 245 208 245 208 245 247 c 2,30,-1
 245 877 l 2,31,32
 245 919 245 919 238 943.5 c 128,-1,33
 231 968 231 968 211.5 979.5 c 128,-1,34
 192 991 192 991 173 994 c 128,-1,35
 154 997 154 997 114.963 998.79 c 0,36,37
 100 1000 100 1000 92 1000 c 1,38,-1
 92 1065 l 1,39,-1
 441 1065 l 1,40,-1
 801 306 l 1,41,-1
 1144 1065 l 1,42,-1
 1494 1065 l 1,43,-1
 1494 1001 l 1,44,45
 1462 999 1462 999 1447 997.5 c 128,-1,46
 1432 996 1432 996 1412 991 c 128,-1,47
 1392 986 1392 986 1384.5 979 c 128,-1,48
 1377 972 1377 972 1368 958.5 c 128,-1,49
 1359 945 1359 945 1356.5 925.5 c 128,-1,50
 1354 906 1354 906 1354 877 c 2,51,-1
 1354 188 l 2,52,53
 1354 163 1354 163 1357 145 c 128,-1,54
 1360 127 1360 127 1363 114.5 c 128,-1,55
 1366 102 1366 102 1376.5 93 c 128,-1,56
 1387 84 1387 84 1394 79 c 128,-1,57
 1401 74 1401 74 1420.5 71 c 128,-1,58
 1440 68 1440 68 1452.5 66.5 c 128,-1,59
 1465 65 1465 65 1494 63 c 1,0,-1
EndSplineSet
EndChar

StartChar: N
Encoding: 78 78 51
Width: 1223
GlyphClass: 2
Flags: W
HStem: -18 20G 0 72 1146 74
VStem: 281 123 1126 123
LayerCount: 2
Fore
SplineSet
828 1065 m 1,0,-1
 1242 1065 l 1,1,-1
 1242 1001 l 1,2,3
 1146 993 1146 993 1124 971 c 0,4,5
 1090 936 1090 936 1090 818 c 2,6,-1
 1090 -16 l 1,7,-1
 1034 -16 l 1,8,-1
 353 806 l 1,9,-1
 353 230 l 2,10,11
 353 187 353 187 356 162.5 c 128,-1,12
 359 138 359 138 367 117.5 c 128,-1,13
 375 97 375 97 393 87.5 c 128,-1,14
 411 78 411 78 436.5 72 c 128,-1,15
 462 66 462 66 504 63 c 1,16,-1
 504 0 l 1,17,-1
 89 0 l 1,18,-1
 89 62 l 1,19,20
 134 66 134 66 161 73.5 c 128,-1,21
 188 81 188 81 206 92 c 128,-1,22
 224 103 224 103 232 126 c 128,-1,23
 240 149 240 149 242.5 174.5 c 128,-1,24
 245 200 245 200 245 247 c 2,25,-1
 245 925 l 1,26,27
 207 969 207 969 176 984.5 c 128,-1,28
 145 1000 145 1000 89 1000 c 1,29,-1
 89 1065 l 1,30,-1
 390 1065 l 1,31,-1
 983 345 l 1,32,-1
 983 818 l 2,33,34
 983 864 983 864 980.5 889.5 c 128,-1,35
 978 915 978 915 970 938.5 c 128,-1,36
 962 962 962 962 944.5 972.5 c 128,-1,37
 927 983 927 983 899.5 990.5 c 128,-1,38
 872 998 872 998 828 1000 c 1,39,-1
 828 1065 l 1,0,-1
EndSplineSet
EndChar

StartChar: O
Encoding: 79 79 52
Width: 1188
GlyphClass: 2
Flags: W
HStem: -23 104 1140 106
VStem: 123 252 1117 252
LayerCount: 2
Fore
SplineSet
1195 527 m 0,0,1
 1195 284 1195 284 1041.5 132 c 128,-1,2
 888 -20 888 -20 644 -20 c 0,3,4
 402 -20 402 -20 254.5 135.5 c 128,-1,5
 107 291 107 291 107 534 c 0,6,7
 107 778 107 778 258.5 933 c 128,-1,8
 410 1088 410 1088 653 1088 c 0,9,10
 815 1088 815 1088 939 1015.5 c 128,-1,11
 1063 943 1063 943 1129 815.5 c 128,-1,12
 1195 688 1195 688 1195 527 c 0,0,1
651 995 m 0,13,14
 428 995 428 995 354 744 c 0,15,16
 327 650 327 650 327 564 c 0,17,18
 327 479 327 479 333 424 c 0,19,20
 342 352 342 352 363.5 292 c 128,-1,21
 385 232 385 232 421.5 180.5 c 128,-1,22
 458 129 458 129 516 99.5 c 128,-1,23
 574 70 574 70 648 70 c 0,24,25
 869 70 869 70 945 318 c 1,26,27
 975 410 975 410 975 498 c 0,28,29
 975 557 975 557 969.5 610.5 c 128,-1,30
 964 664 964 664 951.5 722.5 c 128,-1,31
 939 781 939 781 915 828 c 128,-1,32
 891 875 891 875 856.5 913.5 c 128,-1,33
 822 952 822 952 769.5 973.5 c 128,-1,34
 717 995 717 995 651 995 c 0,13,14
EndSplineSet
EndChar

StartChar: P
Encoding: 80 80 53
Width: 973
GlyphClass: 2
Flags: W
HStem: 0 72 0 74 513 112 1114 106 1144 76
VStem: 263 231 876 243
LayerCount: 2
Fore
SplineSet
431 451 m 1,0,-1
 431 188 l 2,1,2
 431 144 431 144 438 119 c 128,-1,3
 445 94 445 94 465 83 c 128,-1,4
 485 72 485 72 507 69 c 128,-1,5
 529 66 529 66 572 64.3336 c 0,6,7
 578 64 578 64 581 64 c 1,8,-1
 581 0 l 1,9,-1
 95 0 l 1,10,-1
 95 63 l 1,11,12
 186 69 186 69 208 92 c 128,-1,13
 230 115 230 115 230 204 c 2,14,-1
 230 877 l 2,15,16
 230 906 230 906 228.5 925.5 c 128,-1,17
 227 945 227 945 218 958.5 c 128,-1,18
 209 972 209 972 203 979 c 128,-1,19
 197 986 197 986 176 990.5 c 128,-1,20
 155 995 155 995 142.5 996.5 c 128,-1,21
 130 998 130 998 95 1001 c 1,22,-1
 95 1065 l 1,23,-1
 539 1065 l 2,24,25
 601 1065 601 1065 659 1057 c 128,-1,26
 717 1049 717 1049 776 1027.5 c 128,-1,27
 835 1006 835 1006 878.5 973.5 c 128,-1,28
 922 941 922 941 949.5 887.5 c 128,-1,29
 977 834 977 834 977 766 c 0,30,31
 977 696 977 696 951 640.5 c 128,-1,32
 925 585 925 585 882 549.5 c 128,-1,33
 839 514 839 514 781 490.5 c 128,-1,34
 723 467 723 467 663 457.5 c 128,-1,35
 603 448 603 448 538 448 c 0,36,37
 467 448 467 448 431 451 c 1,0,-1
504 546 m 0,38,39
 765 546 765 546 765 756 c 0,40,41
 765 821 765 821 741 866 c 128,-1,42
 717 911 717 911 672.5 933 c 128,-1,43
 628 955 628 955 579.5 964 c 128,-1,44
 531 973 531 973 468 973 c 0,45,46
 445 973 445 973 438 966.5 c 128,-1,47
 431 960 431 960 431 937 c 2,48,-1
 431 549 l 1,49,50
 467 546 467 546 504 546 c 0,38,39
EndSplineSet
EndChar

StartChar: Q
Encoding: 81 81 54
Width: 1196
GlyphClass: 2
Flags: W
HStem: -324 72 -12 20G 1140 106
VStem: 123 251 1117 252
LayerCount: 2
Fore
SplineSet
1215 -220 m 1,0,-1
 1215 -283 l 1,1,2
 1184 -284 1184 -284 1122 -284 c 0,3,4
 955 -284 955 -284 849 -254 c 0,5,6
 658 -199 658 -199 575 -106 c 0,7,8
 513 -38 513 -38 485 -4 c 1,9,10
 299 57 299 57 203 193 c 128,-1,11
 107 329 107 329 107 526 c 0,12,13
 107 686 107 686 174 813.5 c 128,-1,14
 241 941 241 941 365.5 1014.5 c 128,-1,15
 490 1088 490 1088 650 1088 c 0,16,17
 892 1088 892 1088 1043.5 930.5 c 128,-1,18
 1195 773 1195 773 1195 529 c 0,19,20
 1195 188 1195 188 930 44 c 1,21,22
 859 4 859 4 787 -10 c 1,23,24
 959 -216 959 -216 1215 -220 c 1,0,-1
975 536 m 0,25,26
 975 804 975 804 842 924 c 0,27,28
 762 995 762 995 656 995 c 0,29,30
 431 995 431 995 356 749 c 0,31,32
 327 654 327 654 327 567 c 0,33,34
 327 507 327 507 332 453.5 c 128,-1,35
 337 400 337 400 349.5 340.5 c 128,-1,36
 362 281 362 281 386 233.5 c 128,-1,37
 410 186 410 186 444.5 146.5 c 128,-1,38
 479 107 479 107 532 85.5 c 128,-1,39
 585 64 585 64 651 64 c 0,40,41
 724 64 724 64 781.5 93.5 c 128,-1,42
 839 123 839 123 874.5 170 c 128,-1,43
 910 217 910 217 933.5 280.5 c 128,-1,44
 957 344 957 344 966 406.5 c 128,-1,45
 975 469 975 469 975 536 c 0,25,26
EndSplineSet
EndChar

StartChar: R
Encoding: 82 82 55
Width: 1129
GlyphClass: 2
Flags: W
HStem: 0 72 546 105 1114 106 1147 73
VStem: 267 231 887 241
LayerCount: 2
Fore
SplineSet
985 774 m 0,0,1
 985 559 985 559 711 502 c 1,2,-1
 1021 133 l 2,3,4
 1073 71 1073 71 1165 63 c 1,5,-1
 1165 0 l 1,6,-1
 879 0 l 1,7,-1
 497 478 l 1,8,-1
 435 476 l 1,9,-1
 435 188 l 2,10,11
 435 163 435 163 438 144.5 c 128,-1,12
 441 126 441 126 444.5 113 c 128,-1,13
 448 100 448 100 459.5 91.5 c 128,-1,14
 471 83 471 83 478 78.5 c 128,-1,15
 485 74 485 74 505.5 70.5 c 128,-1,16
 526 67 526 67 537.5 66 c 128,-1,17
 549 65 549 65 579 63 c 1,18,-1
 579 0 l 1,19,-1
 97 0 l 1,20,-1
 97 63 l 1,21,22
 187 69 187 69 210 92 c 128,-1,23
 233 115 233 115 233 204 c 2,24,-1
 233 877 l 2,25,26
 233 956 233 956 209.5 974.5 c 128,-1,27
 186 993 186 993 104.377 1000.36 c 0,28,29
 100 1001 100 1001 97 1001 c 1,30,-1
 97 1065 l 1,31,-1
 559 1065 l 2,32,33
 622 1065 622 1065 678 1058 c 128,-1,34
 734 1051 734 1051 792 1031 c 128,-1,35
 850 1011 850 1011 891.5 979.5 c 128,-1,36
 933 948 933 948 959 895.5 c 128,-1,37
 985 843 985 843 985 774 c 0,0,1
435 934 m 2,38,-1
 435 569 l 1,39,40
 471 570 471 570 496 571.5 c 128,-1,41
 521 573 521 573 559.5 578 c 128,-1,42
 598 583 598 583 624.5 590.5 c 128,-1,43
 651 598 651 598 681.5 612.5 c 128,-1,44
 712 627 712 627 730.5 646.5 c 128,-1,45
 749 666 749 666 761.5 695.5 c 128,-1,46
 774 725 774 725 774 762 c 0,47,48
 774 840 774 840 751 877 c 0,49,50
 731 909 731 909 700.5 930 c 128,-1,51
 670 951 670 951 630.5 959.5 c 128,-1,52
 591 968 591 968 560.5 970.5 c 128,-1,53
 530 973 530 973 485 973 c 0,54,55
 461 973 461 973 448 965 c 128,-1,56
 435 957 435 957 435 934 c 2,38,-1
EndSplineSet
EndChar

StartChar: S
Encoding: 83 83 56
Width: 871
GlyphClass: 2
Flags: W
HStem: -23 104 1132 114
VStem: 124 871 181 200 767 228
LayerCount: 2
Fore
SplineSet
258 30 m 0,0,1
 230 30 230 30 230 -18 c 1,2,-1
 162 -18 l 1,3,-1
 108 345 l 1,4,-1
 180 345 l 1,5,6
 219 252 219 252 263 190 c 128,-1,7
 307 128 307 128 379 93 c 0,8,9
 425 70 425 70 477 70 c 0,10,11
 562 70 562 70 616 108 c 128,-1,12
 670 146 670 146 670 227 c 0,13,14
 670 338 670 338 508 433 c 0,15,16
 485 446 485 446 440 470.5 c 128,-1,17
 395 495 395 495 369 510.5 c 128,-1,18
 343 526 343 526 305 551 c 128,-1,19
 267 576 267 576 245 600 c 128,-1,20
 223 624 223 624 200.5 655.5 c 128,-1,21
 178 687 178 687 168 726 c 128,-1,22
 158 765 158 765 158 810 c 0,23,24
 158 933 158 933 243.5 1010.5 c 128,-1,25
 329 1088 329 1088 454 1088 c 0,26,27
 530 1088 530 1088 654 1044 c 1,28,29
 686 1034 686 1034 694 1034 c 0,30,31
 706 1034 706 1034 714.5 1044.5 c 128,-1,32
 723 1055 723 1055 725 1063 c 128,-1,33
 727 1071 727 1071 730 1088 c 1,34,-1
 797 1088 l 1,35,-1
 835 720 l 1,36,-1
 761 720 l 1,37,38
 747 769 747 769 724.5 813.5 c 128,-1,39
 702 858 702 858 669.5 898.5 c 128,-1,40
 637 939 637 939 591.5 963.5 c 128,-1,41
 546 988 546 988 495 988 c 0,42,43
 429 988 429 988 381 960.5 c 128,-1,44
 333 933 333 933 333 872 c 0,45,46
 333 789 333 789 401 736 c 0,47,48
 460 689 460 689 522 654 c 0,49,50
 661.992 575.798 661.992 575.798 713.418 537.336 c 0,51,52
 869 420.976 869 420.976 869 278 c 0,53,54
 869 143 869 143 765.5 61.5 c 128,-1,55
 662 -20 662 -20 523 -20 c 0,56,57
 451 -20 451 -20 360 4 c 1,58,59
 273 30 273 30 258 30 c 0,0,1
EndSplineSet
EndChar

StartChar: T
Encoding: 84 84 57
Width: 1057
GlyphClass: 2
Flags: W
HStem: 0 72 0 74 1105 115
VStem: 557 231
LayerCount: 2
Fore
SplineSet
117 1065 m 1,0,-1
 1057 1065 l 1,1,-1
 1068 766 l 1,2,-1
 997 766 l 1,3,4
 981 833 981 833 968.5 866 c 128,-1,5
 956 899 956 899 930.5 925 c 128,-1,6
 905 951 905 951 868 958 c 128,-1,7
 831 965 831 965 765 965 c 2,8,-1
 688 965 l 1,9,-1
 688 188 l 2,10,11
 688 144 688 144 695.5 119 c 128,-1,12
 703 94 703 94 722.5 83 c 128,-1,13
 742 72 742 72 765 68.5 c 128,-1,14
 788 65 788 65 828.365 64.4882 c 0,15,16
 837 64 837 64 842 64 c 1,17,-1
 842 0 l 1,18,-1
 336 0 l 1,19,-1
 336 63 l 1,20,21
 424.03 70.3359 424.03 70.3359 445.108 80.6643 c 0,22,23
 478.66 97.1048 478.66 97.1048 484.217 157.211 c 0,24,25
 486 176.491 486 176.491 486 204 c 2,26,-1
 486 965 l 1,27,-1
 418 965 l 2,28,29
 351 965 351 965 312.5 957.5 c 128,-1,30
 274 950 274 950 247 926 c 128,-1,31
 220 902 220 902 206 867 c 128,-1,32
 192 832 192 832 177 766 c 1,33,-1
 105 766 l 1,34,-1
 117 1065 l 1,0,-1
EndSplineSet
EndChar

StartChar: U
Encoding: 85 85 58
Width: 1223
GlyphClass: 2
Flags: W
HStem: -23 118 1146 74
VStem: 271 230 1124 123
LayerCount: 2
Fore
SplineSet
659 -20 m 0,0,1
 237 -20 237 -20 237 393 c 2,2,-1
 237 877 l 2,3,4
 237 919 237 919 231.5 942.5 c 128,-1,5
 226 966 226 966 207 978 c 128,-1,6
 188 990 188 990 173 992.5 c 128,-1,7
 158 995 158 995 117.378 998.179 c 0,8,9
 101 999 101 999 92 1000 c 1,10,-1
 92 1065 l 1,11,-1
 583 1065 l 1,12,-1
 583 1001 l 1,13,14
 501.742 994.564 501.742 994.564 481.533 985.617 c 0,15,16
 442.038 968.133 442.038 968.133 437.712 900.976 c 0,17,18
 437 889.929 437 889.929 437 877 c 2,19,-1
 437 381 l 2,20,21
 437 231 437 231 494 156.5 c 128,-1,22
 551 82 551 82 696 82 c 0,23,24
 858 82 858 82 919.5 158 c 128,-1,25
 981 234 981 234 981 399 c 2,26,-1
 981 818 l 2,27,28
 981 863 981 863 979 888 c 128,-1,29
 977 913 977 913 969 936.5 c 128,-1,30
 961 960 961 960 944 971.5 c 128,-1,31
 927 983 927 983 899.5 990.5 c 128,-1,32
 872 998 872 998 829 1000 c 1,33,-1
 829 1065 l 1,34,-1
 1240 1065 l 1,35,-1
 1240 1001 l 1,36,37
 1228 999 1228 999 1207 995.5 c 128,-1,38
 1186 992 1186 992 1177.5 990.5 c 128,-1,39
 1169 989 1169 989 1154 986 c 128,-1,40
 1139 983 1139 983 1134 979.5 c 128,-1,41
 1129 976 1129 976 1119.5 970.5 c 128,-1,42
 1110 965 1110 965 1107 958 c 128,-1,43
 1104 951 1104 951 1099 941.5 c 128,-1,44
 1094 932 1094 932 1093 919 c 128,-1,45
 1092 906 1092 906 1090.5 889.5 c 128,-1,46
 1089 873 1089 873 1089 852 c 2,47,-1
 1089 412 l 2,48,49
 1089 192 1089 192 984 86 c 128,-1,50
 879 -20 879 -20 659 -20 c 0,0,1
EndSplineSet
EndChar

StartChar: V
Encoding: 86 86 59
Width: 1191
GlyphClass: 2
Flags: W
HStem: -18 20G 1145 75
VStem: 99 1296
LayerCount: 2
Fore
SplineSet
970 951 m 0,0,1
 970 967 970 967 961.5 977 c 128,-1,2
 953 987 953 987 938 991 c 128,-1,3
 923 995 923 995 909 996.5 c 128,-1,4
 895 998 895 998 877 998.5 c 128,-1,5
 859 999 859 999 852 1000 c 1,6,-1
 852 1065 l 1,7,-1
 1218 1065 l 1,8,-1
 1218 1000 l 1,9,10
 1198 999 1198 999 1182 996 c 128,-1,11
 1166 993 1166 993 1155 990.5 c 128,-1,12
 1144 988 1144 988 1133 978 c 128,-1,13
 1122 968 1122 968 1117 964.5 c 128,-1,14
 1112 961 1112 961 1103.5 944.5 c 128,-1,15
 1095 928 1095 928 1092.5 923 c 128,-1,16
 1090 918 1090 918 1081 895.5 c 128,-1,17
 1072 873 1072 873 1069 866 c 2,18,-1
 707 -16 l 1,19,-1
 659 -16 l 1,20,-1
 259 848 l 2,21,22
 221.5 929.25 221.5 929.25 204.125 950.946 c 0,23,24
 164.839 1000 164.839 1000 86 1000 c 1,25,-1
 86 1065 l 1,26,-1
 551 1065 l 1,27,-1
 551 1000 l 1,28,29
 547 1000 547 1000 530 1000 c 128,-1,30
 513 1000 513 1000 498 999 c 128,-1,31
 483 998 483 998 466.5 995.5 c 128,-1,32
 450 993 450 993 440 985.5 c 128,-1,33
 430 978 430 978 430 967 c 0,34,35
 430 958 430 958 435 941.5 c 128,-1,36
 440 925 440 925 449 903 c 128,-1,37
 458 881 458 881 465.5 864.5 c 128,-1,38
 473 848 473 848 483 826.5 c 128,-1,39
 493 805 493 805 495 801 c 2,40,-1
 720 313 l 1,41,-1
 939 846 l 2,42,43
 970 919 970 919 970 951 c 0,0,1
EndSplineSet
EndChar

StartChar: W
Encoding: 87 87 60
Width: 1593
GlyphClass: 2
Flags: W
HStem: -18 20G 1145 75
VStem: 99 1748 1568 279
LayerCount: 2
Fore
SplineSet
1259 1065 m 1,0,-1
 1612 1065 l 1,1,-1
 1612 1002 l 1,2,3
 1532 991 1532 991 1509 964 c 0,4,5
 1497 950 1497 950 1473.5 895.5 c 128,-1,6
 1450 841 1450 841 1418 757 c 128,-1,7
 1386 673 1386 673 1354.5 587 c 128,-1,8
 1323 501 1323 501 1286 394 c 128,-1,9
 1249 287 1249 287 1225.5 218 c 128,-1,10
 1202 149 1202 149 1174.5 68.5 c 128,-1,11
 1147 -12 1147 -12 1146 -16 c 1,12,-1
 1096 -16 l 1,13,-1
 852 608 l 1,14,-1
 618 -16 l 1,15,-1
 567 -16 l 1,16,-1
 254 830 l 2,17,18
 208 956 208 956 167 981 c 0,19,20
 143 996 143 996 86 1001 c 1,21,-1
 86 1065 l 1,22,-1
 517 1065 l 1,23,-1
 517 1000 l 1,24,25
 513 999 513 999 498 999 c 128,-1,26
 483 999 483 999 470 997.5 c 128,-1,27
 457 996 457 996 443 993.5 c 128,-1,28
 429 991 429 991 420.5 984.5 c 128,-1,29
 412 978 412 978 412 968 c 0,30,31
 412 944 412 944 430 904 c 1,32,-1
 643 361 l 1,33,-1
 796 750 l 1,34,35
 710 969 710 969 677 986 c 0,36,37
 670 990 670 990 661.5 993 c 128,-1,38
 653 996 653 996 647 997.5 c 128,-1,39
 641 999 641 999 630.5 999.5 c 128,-1,40
 620 1000 620 1000 615.5 1000 c 128,-1,41
 611 1000 611 1000 598.5 1000 c 128,-1,42
 586 1000 586 1000 582 1000 c 1,43,-1
 582 1065 l 1,44,-1
 1048 1065 l 1,45,-1
 1048 1000 l 1,46,-1
 1011 1000 l 2,47,48
 924 1000 924 1000 924 964 c 0,49,50
 924 956 924 956 929.5 938 c 128,-1,51
 935 920 935 920 941 904.5 c 128,-1,52
 947 889 947 889 955.5 868.5 c 128,-1,53
 964 848 964 848 966 844 c 2,54,-1
 1161 356 l 1,55,-1
 1344 841 l 1,56,57
 1369 904 1369 904 1369 942 c 0,58,59
 1369 966 1369 966 1357 977 c 0,60,61
 1329 1001 1329 1001 1259 1001 c 1,62,-1
 1259 1065 l 1,0,-1
EndSplineSet
EndChar

StartChar: X
Encoding: 88 88 61
Width: 1215
GlyphClass: 2
Flags: W
HStem: 0 72 1146 74
VStem: 88 1320
LayerCount: 2
Fore
SplineSet
797 1000 m 1,0,-1
 797 1065 l 1,1,-1
 1216 1065 l 1,2,-1
 1216 1000 l 1,3,4
 1152 997 1152 997 1110.5 980 c 128,-1,5
 1069 963 1069 963 1044.5 939.5 c 128,-1,6
 1020 916 1020 916 973 860 c 2,7,-1
 747 588 l 1,8,-1
 1047 172 l 2,9,10
 1090 112 1090 112 1122.5 92.5 c 128,-1,11
 1155 73 1155 73 1229 62 c 1,12,-1
 1229 0 l 1,13,-1
 715 0 l 1,14,-1
 715 62 l 1,15,16
 716 62 716 62 734.5 63.5 c 128,-1,17
 753 65 753 65 767.5 66.5 c 128,-1,18
 782 68 782 68 800 71 c 128,-1,19
 818 74 818 74 828.5 80 c 128,-1,20
 839 86 839 86 839 93 c 0,21,22
 839 118 839 118 794.5 187.5 c 128,-1,23
 750 257 750 257 690.5 338.5 c 128,-1,24
 631 420 631 420 621 436 c 1,25,-1
 445 223 l 1,26,27
 366 132 366 132 366 105 c 0,28,29
 366 97 366 97 371 90.5 c 128,-1,30
 376 84 376 84 386 80 c 128,-1,31
 396 76 396 76 405 73 c 128,-1,32
 414 70 414 70 429 68 c 128,-1,33
 444 66 444 66 452 65.5 c 128,-1,34
 460 65 460 65 473.5 64 c 128,-1,35
 487 63 487 63 488 63 c 1,36,-1
 488 0 l 1,37,-1
 77 0 l 1,38,-1
 77 63 l 1,39,40
 110 66 110 66 136 74.5 c 128,-1,41
 162 83 162 83 179 91.5 c 128,-1,42
 196 100 196 100 215.5 119 c 128,-1,43
 235 138 235 138 245.5 150 c 128,-1,44
 256 162 256 162 278.5 191 c 128,-1,45
 301 220 301 220 314 236 c 2,46,-1
 557 526 l 1,47,-1
 390 764 l 2,48,49
 268 938 268 938 215 973 c 0,50,51
 180 995 180 995 97 1000 c 1,52,-1
 97 1065 l 1,53,-1
 619 1065 l 1,54,-1
 619 1000 l 1,55,56
 617 1000 617 1000 605.5 1000.5 c 128,-1,57
 594 1001 594 1001 584.5 1000.5 c 128,-1,58
 575 1000 575 1000 561.5 1000 c 128,-1,59
 548 1000 548 1000 537.5 998 c 128,-1,60
 527 996 527 996 517 993 c 128,-1,61
 507 990 507 990 501.5 984.5 c 128,-1,62
 496 979 496 979 496 972 c 0,63,64
 496 907 496 907 683 676 c 1,65,-1
 849 872 l 2,66,67
 910 944 910 944 910 970 c 0,68,69
 910 977 910 977 905.5 982.5 c 128,-1,70
 901 988 901 988 891 991 c 128,-1,71
 881 994 881 994 872.5 996.5 c 128,-1,72
 864 999 864 999 850 999.5 c 128,-1,73
 836 1000 836 1000 829.5 1000 c 128,-1,74
 823 1000 823 1000 810 1000 c 2,75,-1
 797 1000 l 1,0,-1
EndSplineSet
EndChar

StartChar: Y
Encoding: 89 89 62
Width: 1199
GlyphClass: 2
Flags: W
HStem: 0 74 1145 75
VStem: 651 228
LayerCount: 2
Fore
SplineSet
949 967 m 0,0,1
 949 1008 949 1008 839 1000 c 1,2,-1
 839 1065 l 1,3,-1
 1227 1065 l 1,4,-1
 1227 1000 l 1,5,6
 1185 997 1185 997 1152.5 984 c 128,-1,7
 1120 971 1120 971 1092 943.5 c 128,-1,8
 1064 916 1064 916 1048.5 895.5 c 128,-1,9
 1033 875 1033 875 1003 831 c 2,10,-1
 767 484 l 1,11,-1
 767 188 l 2,12,13
 767 157 767 157 770 136 c 128,-1,14
 773 115 773 115 783.5 101 c 128,-1,15
 794 87 794 87 802.5 79.5 c 128,-1,16
 811 72 811 72 833 69 c 128,-1,17
 855 66 855 66 868 65.5 c 128,-1,18
 881 65 881 65 913.879 64.9505 c 0,19,20
 926 65 926 65 932 65 c 1,21,-1
 932 0 l 1,22,-1
 405 0 l 1,23,-1
 405 64 l 1,24,25
 498.281 69.1013 498.281 69.1013 518.593 76.305 c 0,26,27
 555.586 89.4251 555.586 89.4251 563.976 139.989 c 0,28,29
 568 164.243 568 164.243 568 204 c 2,30,-1
 568 470 l 1,31,-1
 360 764 l 2,32,33
 358 766 358 766 334.5 799 c 128,-1,34
 311 832 311 832 296 852.5 c 128,-1,35
 281 873 281 873 257.5 903 c 128,-1,36
 234 933 234 933 215.5 952.5 c 128,-1,37
 197 972 197 972 185 980 c 0,38,39
 153 1000 153 1000 97 1000 c 1,40,-1
 97 1065 l 1,41,-1
 582 1065 l 1,42,-1
 582 1000 l 1,43,44
 578 1000 578 1000 563 1000 c 128,-1,45
 548 1000 548 1000 533.5 999 c 128,-1,46
 519 998 519 998 504 996 c 128,-1,47
 489 994 489 994 479.5 988 c 128,-1,48
 470 982 470 982 470 973 c 0,49,50
 470 948 470 948 493 913 c 2,51,-1
 716 589 l 1,52,-1
 930 919 l 2,53,54
 949 949 949 949 949 967 c 0,0,1
EndSplineSet
EndChar

StartChar: Z
Encoding: 90 90 63
Width: 1078
GlyphClass: 2
Flags: W
HStem: 0 109 1112 108
VStem: 106 1127
LayerCount: 2
Fore
SplineSet
987 251 m 1,0,-1
 1006 309 l 1,1,-1
 1076 309 l 1,2,-1
 1034 0 l 1,3,-1
 93 0 l 1,4,-1
 93 46 l 1,5,-1
 778 971 l 1,6,-1
 457 971 l 2,7,8
 284 971 284 971 234 877 c 0,9,10
 222 854 222 854 203 764 c 1,11,-1
 127 764 l 1,12,-1
 162 1065 l 1,13,-1
 1042 1065 l 1,14,-1
 1042 1019 l 1,15,-1
 365 95 l 1,16,-1
 743 95 l 2,17,18
 937 95 937 95 987 251 c 1,0,-1
EndSplineSet
EndChar

StartChar: bracketleft
Encoding: 91 91 64
Width: 374
GlyphClass: 2
Flags: W
HStem: -432 164 1131 164
VStem: 97 184
LayerCount: 2
Fore
SplineSet
396 -217 m 1,0,-1
 396 -338 l 1,1,-1
 166 -339 l 2,2,3
 134 -339 134 -339 111 -318 c 128,-1,4
 88 -297 88 -297 88 -265 c 2,5,-1
 88 951 l 2,6,7
 88 978 88 978 111.5 997.5 c 128,-1,8
 135 1017 135 1017 162 1017 c 2,9,-1
 396 1017 l 1,10,-1
 396 896 l 1,11,-1
 252 896 l 1,12,-1
 252 -217 l 1,13,-1
 396 -217 l 1,0,-1
EndSplineSet
EndChar

StartChar: backslash
Encoding: 92 92 65
Width: 487
GlyphClass: 2
Flags: W
HStem: -298 1577
VStem: 97 584
LayerCount: 2
Fore
SplineSet
203 1122 m 1,0,-1
 550 -234 l 1,1,-1
 409 -234 l 1,2,-1
 62 1122 l 1,3,-1
 203 1122 l 1,0,-1
EndSplineSet
EndChar

StartChar: bracketright
Encoding: 93 93 66
Width: 377
GlyphClass: 2
Flags: W
HStem: -432 164 1131 164
VStem: 97 184
LayerCount: 2
Fore
SplineSet
356 951 m 2,0,-1
 356 -265 l 2,1,2
 356 -297 356 -297 333 -318 c 128,-1,3
 310 -339 310 -339 278 -339 c 2,4,-1
 48 -338 l 1,5,-1
 48 -217 l 1,6,-1
 192 -217 l 1,7,-1
 192 896 l 1,8,-1
 48 896 l 1,9,-1
 48 1017 l 1,10,-1
 281 1017 l 2,11,12
 309 1017 309 1017 332.5 997.5 c 128,-1,13
 356 978 356 978 356 951 c 2,0,-1
EndSplineSet
EndChar

StartChar: asciicircum
Encoding: 94 94 67
Width: 611
GlyphClass: 2
Flags: W
HStem: 924 350
VStem: 96 676
LayerCount: 2
Fore
SplineSet
408 1001 m 1,0,-1
 622 711 l 1,1,-1
 523 710 l 1,2,-1
 341 873 l 1,3,-1
 168 710 l 1,4,-1
 60 710 l 1,5,-1
 274 1001 l 1,6,-1
 408 1001 l 1,0,-1
EndSplineSet
EndChar

StartChar: underscore
Encoding: 95 95 68
Width: 673
GlyphClass: 2
Flags: W
HStem: -557 97
VStem: 102 747
LayerCount: 2
Fore
SplineSet
676 -212 m 1,0,-1
 676 -288 l 1,1,-1
 71 -288 l 1,2,-1
 71 -212 l 1,3,-1
 676 -212 l 1,0,-1
EndSplineSet
EndChar

StartChar: grave
Encoding: 96 96 69
Width: 293
GlyphClass: 2
Flags: W
HStem: 1371 307
VStem: 66 300
LayerCount: 2
Fore
SplineSet
226 1318 m 1,0,-1
 291 1077 l 1,1,-1
 194 1077 l 1,2,-1
 48 1318 l 1,3,-1
 226 1318 l 1,0,-1
EndSplineSet
EndChar

StartChar: a
Encoding: 97 97 70
Width: 828
GlyphClass: 2
Flags: W
HStem: -17 148 827 87
VStem: 124 216 619 203
LayerCount: 2
Fore
SplineSet
846 165 m 1,0,-1
 846 77 l 1,1,2
 763 -15 763 -15 663 -15 c 0,3,4
 565 -15 565 -15 546 89 c 1,5,6
 401 -15 401 -15 308 -15 c 0,7,8
 217 -15 217 -15 162.5 36 c 128,-1,9
 108 87 108 87 108 177 c 0,10,11
 108 264 108 264 175.5 331 c 128,-1,12
 243 398 243 398 335 429 c 0,13,14
 423 458 423 458 540 512 c 1,15,-1
 540 601 l 2,16,17
 540 658 540 658 509 690 c 128,-1,18
 478 722 478 722 421 722 c 0,19,20
 390 722 390 722 353.5 705.5 c 128,-1,21
 317 689 317 689 320 661 c 0,22,23
 329 595 329 595 329 592 c 0,24,25
 329 554 329 554 300.5 529.5 c 128,-1,26
 272 505 272 505 233 505 c 0,27,28
 195 505 195 505 167.5 530 c 128,-1,29
 140 555 140 555 140 594 c 0,30,31
 140 643 140 643 169 683.5 c 128,-1,32
 198 724 198 724 243 748 c 128,-1,33
 288 772 288 772 337 785 c 128,-1,34
 386 798 386 798 432 798 c 0,35,36
 586 798 586 798 652 733.5 c 128,-1,37
 718 669 718 669 718 514 c 0,38,39
 718 456 718 456 717.5 340 c 128,-1,40
 717 224 717 224 717 166 c 0,41,42
 717 143 717 143 718.5 134 c 128,-1,43
 720 125 720 125 729.5 119 c 128,-1,44
 739 113 739 113 760 113 c 0,45,46
 782 113 782 113 846 165 c 1,0,-1
540 204 m 2,47,-1
 540 436 l 1,48,49
 347 362 347 362 313 299 c 0,50,51
 297 271 297 271 297 224 c 0,52,53
 297 180 297 180 321 146.5 c 128,-1,54
 345 113 345 113 388 113 c 0,55,56
 434 113 434 113 487 138 c 128,-1,57
 540 163 540 163 540 204 c 2,47,-1
EndSplineSet
EndChar

StartChar: b
Encoding: 98 98 71
Width: 931
GlyphClass: 2
Flags: W
HStem: -17 92 694 147 1202 19 1213 19
VStem: 230 207 841 215
LayerCount: 2
Fore
SplineSet
355 1076 m 1,0,-1
 381 1066 l 1,1,-1
 381 647 l 1,2,3
 463 734 463 734 609 734 c 0,4,5
 748 734 748 734 835 630.5 c 128,-1,6
 922 527 922 527 922 386 c 0,7,8
 922 214 922 214 802.5 99.5 c 128,-1,9
 683 -15 683 -15 510 -15 c 0,10,11
 330 -15 330 -15 237 46 c 0,12,13
 201 70 201 70 201 96 c 2,14,-1
 201 891 l 2,15,16
 201 923 201 923 189 937.5 c 128,-1,17
 177 952 177 952 146 952 c 0,18,19
 106 952 106 952 86 949 c 1,20,-1
 86 1003 l 1,21,-1
 355 1076 l 1,0,-1
381 507 m 2,22,-1
 381 121 l 2,23,24
 381 65 381 65 552 65 c 0,25,26
 591 65 591 65 629.5 87.5 c 128,-1,27
 668 110 668 110 691 143 c 0,28,29
 734 207 734 207 734 315 c 0,30,31
 734 364 734 364 724.5 411.5 c 128,-1,32
 715 459 715 459 694 504.5 c 128,-1,33
 673 550 673 550 634 578 c 128,-1,34
 595 606 595 606 542 606 c 0,35,36
 509 606 509 606 474.5 597.5 c 128,-1,37
 440 589 440 589 410.5 565 c 128,-1,38
 381 541 381 541 381 507 c 2,22,-1
EndSplineSet
EndChar

StartChar: c
Encoding: 99 99 72
Width: 786
GlyphClass: 2
Flags: W
HStem: -17 174 818 96
VStem: 120 193
LayerCount: 2
Fore
SplineSet
764 300 m 1,0,-1
 816 268 l 1,1,2
 781 203 781 203 748.5 157.5 c 128,-1,3
 716 112 716 112 671 70 c 128,-1,4
 626 28 626 28 569 6.5 c 128,-1,5
 512 -15 512 -15 443 -15 c 0,6,7
 287 -15 287 -15 196 97.5 c 128,-1,8
 105 210 105 210 105 370 c 0,9,10
 105 550 105 550 217.5 674 c 128,-1,11
 330 798 330 798 509 798 c 0,12,13
 651 798 651 798 736 716 c 0,14,15
 787 667 787 667 787 609 c 0,16,17
 787 566 787 566 754.5 544.5 c 128,-1,18
 722 523 722 523 676 523 c 0,19,20
 646 523 646 523 625.5 542.5 c 128,-1,21
 605 562 605 562 597 586.5 c 128,-1,22
 589 611 589 611 577.5 643 c 128,-1,23
 566 675 566 675 555 691 c 0,24,25
 539 714 539 714 488 714 c 0,26,27
 432 714 432 714 389.5 690 c 128,-1,28
 347 666 347 666 322 625.5 c 128,-1,29
 297 585 297 585 285 537 c 128,-1,30
 273 489 273 489 273 436 c 0,31,32
 273 360 273 360 298.5 293.5 c 128,-1,33
 324 227 324 227 381 181.5 c 128,-1,34
 438 136 438 136 517 136 c 0,35,36
 597 136 597 136 653.5 179 c 128,-1,37
 710 222 710 222 764 300 c 1,0,-1
EndSplineSet
EndChar

StartChar: d
Encoding: 100 100 73
Width: 920
GlyphClass: 2
Flags: W
HStem: -18 127 -3 20G 753 86 1200 19 1211 19
VStem: 145 209 754 205
LayerCount: 2
Fore
SplineSet
811 1074 m 1,0,-1
 837 1064 l 1,1,-1
 837 189 l 2,2,3
 837 149 837 149 852 132 c 128,-1,4
 867 115 867 115 892.5 116 c 128,-1,5
 918 117 918 117 952 119 c 1,6,-1
 952 66 l 1,7,-1
 680 -17 l 1,8,-1
 658 -2 l 1,9,-1
 658 59 l 1,10,11
 573 -16 573 -16 454 -16 c 0,12,13
 304 -16 304 -16 215.5 79.5 c 128,-1,14
 127 175 127 175 127 327 c 0,15,16
 127 493 127 493 231 612.5 c 128,-1,17
 335 732 335 732 498 732 c 0,18,19
 586 732 586 732 658 684 c 1,20,-1
 658 890 l 2,21,22
 658 923 658 923 647 937 c 128,-1,23
 636 951 636 951 604 951 c 0,24,25
 574 951 574 951 544 948 c 1,26,-1
 544 1002 l 1,27,28
 697 1038 697 1038 811 1074 c 1,0,-1
658 169 m 2,29,-1
 658 521 l 2,30,31
 658 579 658 579 611.5 618 c 128,-1,32
 565 657 565 657 506 657 c 0,33,34
 453 657 453 657 413 633 c 128,-1,35
 373 609 373 609 351 569 c 128,-1,36
 329 529 329 529 319 483.5 c 128,-1,37
 309 438 309 438 309 388 c 128,-1,38
 309 338 309 338 320 289 c 128,-1,39
 331 240 331 240 353.5 195 c 128,-1,40
 376 150 376 150 417.5 122 c 128,-1,41
 459 94 459 94 513 94 c 0,42,43
 622 94 622 94 656 161 c 0,44,45
 658 163 658 163 658 169 c 2,29,-1
EndSplineSet
EndChar

StartChar: e
Encoding: 101 101 74
Width: 817
GlyphClass: 2
Flags: W
HStem: -17 169 526 100 805 109
VStem: 130 185 130 838
LayerCount: 2
Fore
SplineSet
787 311 m 1,0,-1
 845 287 l 1,1,2
 723 -15 723 -15 455 -15 c 0,3,4
 341 -15 341 -15 262 38.5 c 128,-1,5
 183 92 183 92 148 178 c 128,-1,6
 113 264 113 264 113 377 c 0,7,8
 113 493 113 493 157 587.5 c 128,-1,9
 201 682 201 682 289 740 c 128,-1,10
 377 798 377 798 494 798 c 0,11,12
 626 798 626 798 703 727 c 128,-1,13
 780 656 780 656 801 524 c 2,14,-1
 811 459 l 1,15,-1
 275 459 l 1,16,17
 282 338 282 338 309 281 c 1,18,19
 363 172 363 172 441 148 c 1,20,21
 497 132 497 132 535 132 c 0,22,23
 615 132 615 132 672.5 179.5 c 128,-1,24
 730 227 730 227 787 311 c 1,0,-1
280 546 m 1,25,-1
 591 546 l 1,26,27
 577 624 577 624 546 663.5 c 128,-1,28
 515 703 515 703 443 703 c 0,29,30
 313 703 313 703 280 546 c 1,25,-1
EndSplineSet
EndChar

StartChar: f
Encoding: 102 102 75
Width: 717
GlyphClass: 2
Flags: W
HStem: 0 64 731 94 1147 85
VStem: 273 209
LayerCount: 2
Fore
SplineSet
500 1001 m 0,0,1
 419 1001 419 1001 419 882 c 2,2,-1
 419 720 l 1,3,-1
 633 720 l 1,4,-1
 633 638 l 1,5,-1
 421 638 l 1,6,-1
 421 175 l 2,7,8
 421 151 421 151 424.5 133 c 128,-1,9
 428 115 428 115 431.5 102.5 c 128,-1,10
 435 90 435 90 445.5 81.5 c 128,-1,11
 456 73 456 73 462.5 68 c 128,-1,12
 469 63 469 63 487 60.5 c 128,-1,13
 505 58 505 58 514 57 c 128,-1,14
 523 56 523 56 547 55.5 c 128,-1,15
 571 55 571 55 583 54 c 1,16,-1
 583 0 l 1,17,-1
 94 0 l 1,18,-1
 94 54 l 1,19,20
 176.099 57.2196 176.099 57.2196 198.171 68.288 c 0,21,22
 235.764 87.1401 235.764 87.1401 237.84 162.867 c 0,23,24
 238 168.699 238 168.699 238 175 c 2,25,-1
 238 638 l 1,26,-1
 97 638 l 1,27,-1
 97 720 l 1,28,-1
 238 720 l 1,29,30
 245 900 245 900 326 988 c 128,-1,31
 407 1076 407 1076 580 1076 c 0,32,33
 645 1076 645 1076 703 1048 c 128,-1,34
 761 1020 761 1020 761 962 c 0,35,36
 761 930 761 930 736 908 c 128,-1,37
 711 886 711 886 679 886 c 0,38,39
 645 886 645 886 619.5 904 c 128,-1,40
 594 922 594 922 581 943.5 c 128,-1,41
 568 965 568 965 547 983 c 128,-1,42
 526 1001 526 1001 500 1001 c 0,0,1
EndSplineSet
EndChar

StartChar: g
Encoding: 103 103 76
Width: 863
GlyphClass: 2
Flags: W
HStem: -431 150 -39 192 -17 20G 275 88 734 114 818 96
VStem: 86 180 168 206 682 195 888 98
LayerCount: 2
Fore
SplineSet
876 742 m 1,0,-1
 876 641 l 1,1,-1
 741 641 l 1,2,3
 766 579 766 579 766 517 c 0,4,5
 766 395 766 395 683.5 317.5 c 128,-1,6
 601 240 601 240 478 240 c 0,7,8
 432 240 432 240 381 248 c 1,9,10
 354 237 354 237 323 211 c 128,-1,11
 292 185 292 185 292 162 c 0,12,13
 292 140 292 140 410 133 c 2,14,-1
 634 121 l 2,15,16
 733 116 733 116 797 66.5 c 128,-1,17
 861 17 861 17 861 -78 c 0,18,19
 861 -178 861 -178 760 -258 c 0,20,21
 610 -376 610 -376 380 -376 c 0,22,23
 338 -376 338 -376 288.5 -366 c 128,-1,24
 239 -356 239 -356 189.5 -335.5 c 128,-1,25
 140 -315 140 -315 107.5 -278.5 c 128,-1,26
 75 -242 75 -242 75 -195 c 0,27,28
 75 -156 75 -156 102.5 -114.5 c 128,-1,29
 130 -73 130 -73 158.5 -48.5 c 128,-1,30
 187 -24 187 -24 228 5 c 1,31,32
 153 44 153 44 153 103 c 0,33,34
 153 161 153 161 294 277 c 1,35,36
 147 357 147 357 147 505 c 0,37,38
 147 633 147 633 236 715.5 c 128,-1,39
 325 798 325 798 454 798 c 0,40,41
 514 798 514 798 600.5 768.5 c 128,-1,42
 687 739 687 739 743 739 c 0,43,44
 744 739 744 739 876 742 c 1,0,-1
489 317 m 0,45,46
 595 317 595 317 595 456 c 0,47,48
 595 495 595 495 586.5 537 c 128,-1,49
 578 579 578 579 560.5 620 c 128,-1,50
 543 661 543 661 510 687.5 c 128,-1,51
 477 714 477 714 435 714 c 0,52,53
 382 714 382 714 354.5 678 c 128,-1,54
 327 642 327 642 327 587 c 0,55,56
 327 540 327 540 333.5 498.5 c 128,-1,57
 340 457 340 457 355.5 413 c 128,-1,58
 371 369 371 369 405.5 343 c 128,-1,59
 440 317 440 317 489 317 c 0,45,46
306 -15 m 1,60,61
 303 -19 303 -19 291.5 -32 c 128,-1,62
 280 -45 280 -45 274 -52 c 128,-1,63
 268 -59 268 -59 258.5 -72 c 128,-1,64
 249 -85 249 -85 244.5 -94.5 c 128,-1,65
 240 -104 240 -104 236 -116 c 128,-1,66
 232 -128 232 -128 232 -139 c 0,67,68
 232 -173 232 -173 256.5 -196 c 128,-1,69
 281 -219 281 -219 320.5 -228.5 c 128,-1,70
 360 -238 360 -238 391.5 -241.5 c 128,-1,71
 423 -245 423 -245 456 -245 c 0,72,73
 490 -245 490 -245 524.5 -242.5 c 128,-1,74
 559 -240 559 -240 607 -231.5 c 128,-1,75
 655 -223 655 -223 690 -208 c 128,-1,76
 725 -193 725 -193 750 -165 c 128,-1,77
 775 -137 775 -137 775 -100 c 0,78,79
 775 -34 775 -34 630 -34 c 2,80,-1
 505 -34 l 2,81,82
 410 -34 410 -34 306 -15 c 1,60,61
EndSplineSet
EndChar

StartChar: h
Encoding: 104 104 77
Width: 932
GlyphClass: 2
Flags: W
HStem: 0 61 708 130 1209 19
VStem: 229 206 758 206
LayerCount: 2
Fore
SplineSet
613 732 m 0,0,1
 842 732 842 732 842 474 c 2,2,-1
 842 170 l 2,3,4
 842 101 842 101 859 83 c 128,-1,5
 876 65 876 65 945 52 c 1,6,-1
 945 0 l 1,7,-1
 546 0 l 1,8,-1
 546 53 l 1,9,10
 619 59 619 59 640.5 79 c 128,-1,11
 662 99 662 99 662 170 c 2,12,-1
 662 472 l 2,13,14
 662 618 662 618 551 618 c 0,15,16
 462 618 462 618 380 532 c 1,17,-1
 380 170 l 2,18,19
 380 98 380 98 401 78.5 c 128,-1,20
 422 59 422 59 496 53 c 1,21,-1
 496 0 l 1,22,-1
 89 0 l 1,23,-1
 89 52 l 1,24,25
 159 61 159 61 179.5 80 c 128,-1,26
 200 99 200 99 200 166 c 2,27,-1
 200 888 l 2,28,29
 200 923 200 923 190 936 c 128,-1,30
 180 949 180 949 146 949 c 0,31,32
 127 949 127 949 91 945 c 1,33,-1
 91 1000 l 1,34,35
 120 1008 120 1008 212.5 1032 c 128,-1,36
 305 1056 305 1056 355 1072 c 1,37,-1
 380 1059 l 1,38,-1
 380 633 l 1,39,40
 481 732 481 732 613 732 c 0,0,1
EndSplineSet
EndChar

StartChar: i
Encoding: 105 105 78
Width: 511
GlyphClass: 2
Flags: W
HStem: 0 68 892 19
VStem: 258 208
LayerCount: 2
Fore
SplineSet
290 1062 m 0,0,1
 341 1062 341 1062 375 1035 c 128,-1,2
 409 1008 409 1008 409 959 c 0,3,4
 409 918 409 918 381 887 c 128,-1,5
 353 856 353 856 312 856 c 0,6,7
 267 856 267 856 231.5 880 c 128,-1,8
 196 904 196 904 196 947 c 0,9,10
 196 991 196 991 221.5 1026.5 c 128,-1,11
 247 1062 247 1062 290 1062 c 0,0,1
186 662 m 0,12,13
 162 662 162 662 95 653 c 1,14,-1
 95 712 l 1,15,-1
 385 811 l 1,16,-1
 407 795 l 1,17,-1
 407 189 l 2,18,19
 407 107 407 107 429 85.5 c 128,-1,20
 451 64 451 64 534 59 c 1,21,-1
 534 0 l 1,22,-1
 88 0 l 1,23,-1
 88 59 l 1,24,25
 128 62 128 62 145.5 64 c 128,-1,26
 163 66 163 66 183 73 c 128,-1,27
 203 80 203 80 209.5 94 c 128,-1,28
 216 108 216 108 220.5 130 c 128,-1,29
 225 152 225 152 225 189 c 2,30,-1
 225 604 l 2,31,32
 225 662 225 662 186 662 c 0,12,13
EndSplineSet
EndChar

StartChar: j
Encoding: 106 106 79
Width: 523
GlyphClass: 2
Flags: W
HStem: -431 108 754 60 890 19
VStem: 386 208
LayerCount: 2
Fore
SplineSet
520 948 m 0,0,1
 520 909 520 909 491.5 877 c 128,-1,2
 463 845 463 845 423 845 c 0,3,4
 372 845 372 845 339 872 c 128,-1,5
 306 899 306 899 306 949 c 0,6,7
 306 992 306 992 337 1022.5 c 128,-1,8
 368 1053 368 1053 411 1053 c 0,9,10
 457 1053 457 1053 488.5 1023.5 c 128,-1,11
 520 994 520 994 520 948 c 0,0,1
287 658 m 0,12,13
 259 658 259 658 203 648 c 1,14,-1
 203 711 l 1,15,16
 356 756 356 756 494 808 c 1,17,-1
 519 794 l 1,18,-1
 519 10 l 2,19,20
 519 -376 519 -376 196 -376 c 0,21,22
 157 -376 157 -376 120.5 -366 c 128,-1,23
 84 -356 84 -356 55 -329 c 128,-1,24
 26 -302 26 -302 26 -262 c 0,25,26
 26 -230 26 -230 49.5 -205.5 c 128,-1,27
 73 -181 73 -181 105 -181 c 128,-1,28
 137 -181 137 -181 163.5 -197 c 128,-1,29
 190 -213 190 -213 204 -231.5 c 128,-1,30
 218 -250 218 -250 236 -266 c 128,-1,31
 254 -282 254 -282 271 -282 c 0,32,33
 337 -282 337 -282 337 -101 c 2,34,-1
 337 575 l 2,35,36
 337 658 337 658 287 658 c 0,12,13
EndSplineSet
EndChar

StartChar: k
Encoding: 107 107 80
Width: 950
GlyphClass: 2
Flags: W
HStem: 0 59 0 62 801 60 1089 56 1209 19
VStem: 252 204
LayerCount: 2
Fore
SplineSet
548 698 m 1,0,-1
 548 752 l 1,1,-1
 928 752 l 1,2,-1
 928 696 l 1,3,4
 851 696 851 696 815 683 c 0,5,6
 792 674 792 674 769.5 663.5 c 128,-1,7
 747 653 747 653 722.5 637 c 128,-1,8
 698 621 698 621 681.5 610 c 128,-1,9
 665 599 665 599 638 577 c 128,-1,10
 611 555 611 555 599.5 545.5 c 128,-1,11
 588 536 588 536 558.5 510 c 128,-1,12
 529 484 529 484 521 478 c 1,13,-1
 768 160 l 2,14,15
 812 103 812 103 852.5 82 c 128,-1,16
 893 61 893 61 969 52 c 1,17,-1
 969 0 l 1,18,-1
 567 0 l 1,19,-1
 567 54 l 1,20,21
 568 54 568 54 577.5 53.5 c 128,-1,22
 587 53 587 53 595 53 c 128,-1,23
 603 53 603 53 612.5 54 c 128,-1,24
 622 55 622 55 628 57 c 128,-1,25
 634 59 634 59 634 62 c 0,26,27
 634 67 634 67 582 130 c 128,-1,28
 530 193 530 193 468 266.5 c 128,-1,29
 406 340 406 340 398 350 c 1,30,-1
 398 119 l 2,31,32
 398 107 398 107 400 97.5 c 128,-1,33
 402 88 402 88 408 81.5 c 128,-1,34
 414 75 414 75 418.5 70 c 128,-1,35
 423 65 423 65 434 62 c 128,-1,36
 445 59 445 59 450 57.5 c 128,-1,37
 455 56 455 56 469 55 c 128,-1,38
 483 54 483 54 487.5 54 c 128,-1,39
 492 54 492 54 507.5 54 c 128,-1,40
 523 54 523 54 525 54 c 1,41,-1
 525 0 l 1,42,-1
 93 0 l 1,43,-1
 93 52 l 1,44,45
 121 54 121 54 163 63.5 c 128,-1,46
 205 73 205 73 214 84 c 0,47,48
 221 92 221 92 221 127 c 2,49,-1
 220 875 l 2,50,51
 220 917 220 917 209.5 934 c 128,-1,52
 199 951 199 951 160 951 c 0,53,54
 130 951 130 951 93 946 c 1,55,-1
 93 1000 l 1,56,-1
 375 1072 l 1,57,-1
 398 1062 l 1,58,-1
 398 484 l 1,59,-1
 599 645 l 2,60,61
 601 646 601 646 607 651 c 128,-1,62
 613 656 613 656 616 659 c 128,-1,63
 619 662 619 662 623.5 666.5 c 128,-1,64
 628 671 628 671 630 676 c 128,-1,65
 632 681 632 681 632 686 c 0,66,67
 632 692 632 692 624 695.5 c 128,-1,68
 616 699 616 699 604 699.5 c 128,-1,69
 592 700 592 700 581 700 c 128,-1,70
 570 700 570 700 559 699 c 2,71,-1
 548 698 l 1,0,-1
EndSplineSet
EndChar

StartChar: l
Encoding: 108 108 81
Width: 502
GlyphClass: 2
Flags: W
HStem: 0 61 1209 19
VStem: 256 203
LayerCount: 2
Fore
SplineSet
527 53 m 1,0,-1
 527 0 l 1,1,-1
 95 0 l 1,2,-1
 95 53 l 1,3,4
 100 53 100 53 118 55 c 128,-1,5
 136 57 136 57 140.5 57.5 c 128,-1,6
 145 58 145 58 159.5 60.5 c 128,-1,7
 174 63 174 63 178.5 65.5 c 128,-1,8
 183 68 183 68 193 73 c 128,-1,9
 203 78 203 78 206.5 84.5 c 128,-1,10
 210 91 210 91 215 100 c 128,-1,11
 220 109 220 109 221.5 121 c 128,-1,12
 223 133 223 133 223 148 c 2,13,-1
 223 898 l 2,14,15
 223 932 223 932 205 951 c 128,-1,16
 187 970 187 970 154 970 c 0,17,18
 148 970 148 970 134 966 c 1,19,-1
 134 1027 l 1,20,21
 172 1036 172 1036 254 1048 c 128,-1,22
 336 1060 336 1060 378 1072 c 1,23,-1
 401 1062 l 1,24,-1
 401 144 l 2,25,26
 401 114 401 114 407.5 95.5 c 128,-1,27
 414 77 414 77 435.5 68 c 128,-1,28
 457 59 457 59 468.5 57.5 c 128,-1,29
 480 56 480 56 516.081 53.5805 c 0,30,31
 523 53 523 53 527 53 c 1,0,-1
EndSplineSet
EndChar

StartChar: m
Encoding: 109 109 82
Width: 1414
GlyphClass: 2
Flags: W
HStem: 0 68 764 60 775 139 886 19
VStem: 251 208 781 211 1314 209
LayerCount: 2
Fore
SplineSet
1110 798 m 0,0,1
 1330 798 1330 798 1330 485 c 2,2,-1
 1330 144 l 2,3,4
 1330 114 1330 114 1337.5 96 c 128,-1,5
 1345 78 1345 78 1365 70 c 128,-1,6
 1385 62 1385 62 1400 60.5 c 128,-1,7
 1415 59 1415 59 1449 58 c 1,8,-1
 1449 0 l 1,9,-1
 1032 0 l 1,10,-1
 1032 57 l 1,11,12
 1101.75 65.206 1101.75 65.206 1117.95 74.9925 c 0,13,14
 1146.74 94.1336 1146.74 94.1336 1147 162 c 2,15,-1
 1147 512 l 2,16,17
 1147 541 1147 541 1145.5 561 c 128,-1,18
 1144 581 1144 581 1137.5 605 c 128,-1,19
 1131 629 1131 629 1119.5 643 c 128,-1,20
 1108 657 1108 657 1086.5 667 c 128,-1,21
 1065 677 1065 677 1035 677 c 0,22,23
 934 677 934 677 866 587 c 1,24,-1
 866 175 l 2,25,26
 866 104 866 104 891 82.5 c 128,-1,27
 916 61 916 61 989 59 c 1,28,-1
 989 0 l 1,29,-1
 566 0 l 1,30,-1
 566 58 l 1,31,32
 605 60 605 60 621.5 62.5 c 128,-1,33
 638 65 638 65 655 75 c 128,-1,34
 672 85 672 85 677 104.5 c 128,-1,35
 682 124 682 124 682 160 c 2,36,-1
 682 519 l 2,37,38
 682 552 682 552 679 575.5 c 128,-1,39
 676 599 676 599 666.5 624.5 c 128,-1,40
 657 650 657 650 635.5 663.5 c 128,-1,41
 614 677 614 677 581 677 c 0,42,43
 496 677 496 677 421 615 c 1,44,45
 401 600 401 600 401 595 c 2,46,-1
 401 129 l 2,47,48
 401 105 401 105 411 89.5 c 128,-1,49
 421 74 421 74 442 68 c 128,-1,50
 463 62 463 62 478 60.5 c 128,-1,51
 493 59 493 59 519 59 c 1,52,-1
 519 0 l 1,53,-1
 97 0 l 1,54,-1
 97 59 l 1,55,56
 163 59 163 59 191 77 c 128,-1,57
 219 95 219 95 219 158 c 2,58,-1
 219 596 l 2,59,60
 219 615 219 615 218 625 c 128,-1,61
 217 635 217 635 212.5 646.5 c 128,-1,62
 208 658 208 658 197.5 662.5 c 128,-1,63
 187 667 187 667 169 667 c 0,64,65
 142 667 142 667 102 656 c 1,66,-1
 102 719 l 1,67,68
 249 757 249 757 363 799 c 1,69,-1
 394 790 l 1,70,-1
 394 688 l 1,71,72
 398 690 398 690 422.5 707.5 c 128,-1,73
 447 725 447 725 453 728.5 c 128,-1,74
 459 732 459 732 481 746 c 128,-1,75
 503 760 503 760 512 764 c 128,-1,76
 521 768 521 768 541 777 c 128,-1,77
 561 786 561 786 574.5 789 c 128,-1,78
 588 792 588 792 607 795 c 128,-1,79
 626 798 626 798 644 798 c 0,80,81
 781 798 781 798 835 673 c 1,82,83
 967 798 967 798 1110 798 c 0,0,1
EndSplineSet
EndChar

StartChar: n
Encoding: 110 110 83
Width: 912
GlyphClass: 2
Flags: W
HStem: 0 68 764 59 770 144 886 19
VStem: 229 208 744 208
LayerCount: 2
Fore
SplineSet
346 799 m 1,0,-1
 376 790 l 1,1,-1
 376 686 l 1,2,3
 506 798 506 798 614 798 c 0,4,5
 723 798 723 798 777 721.5 c 128,-1,6
 831 645 831 645 831 531 c 2,7,-1
 831 152 l 2,8,9
 831 96 831 96 854 79.5 c 128,-1,10
 877 63 877 63 938 58 c 1,11,-1
 938 0 l 1,12,-1
 541 0 l 1,13,-1
 541 58 l 1,14,15
 609 63 609 63 629.5 87.5 c 128,-1,16
 650 112 650 112 650 181 c 2,17,-1
 650 527 l 2,18,19
 650 672 650 672 541 672 c 0,20,21
 475 672 475 672 381 587 c 1,22,-1
 381 129 l 2,23,24
 381 113 381 113 387 100.5 c 128,-1,25
 393 88 393 88 399 81.5 c 128,-1,26
 405 75 405 75 421.5 70 c 128,-1,27
 438 65 438 65 444.5 64 c 128,-1,28
 451 63 451 63 472.5 60.5 c 128,-1,29
 494 58 494 58 497 58 c 1,30,-1
 497 0 l 1,31,-1
 92 0 l 1,32,-1
 92 58 l 1,33,34
 158 63 158 63 179 82.5 c 128,-1,35
 200 102 200 102 200 167 c 2,36,-1
 200 594 l 2,37,38
 200 628 200 628 191 647.5 c 128,-1,39
 182 667 182 667 152 667 c 0,40,41
 126 667 126 667 88 652 c 1,42,-1
 88 718 l 1,43,44
 241 762 241 762 346 799 c 1,0,-1
EndSplineSet
EndChar

StartChar: o
Encoding: 111 111 84
Width: 889
GlyphClass: 2
Flags: W
HStem: -17 91 820 94
VStem: 118 220 813 220
LayerCount: 2
Fore
SplineSet
902 403 m 0,0,1
 902 228 902 228 788.5 106.5 c 128,-1,2
 675 -15 675 -15 501 -15 c 0,3,4
 324 -15 324 -15 213.5 101 c 128,-1,5
 103 217 103 217 103 394 c 128,-1,6
 103 571 103 571 213.5 684.5 c 128,-1,7
 324 798 324 798 500 798 c 0,8,9
 677 798 677 798 789.5 689 c 128,-1,10
 902 580 902 580 902 403 c 0,0,1
481 716 m 0,11,12
 432 716 432 716 395 695 c 128,-1,13
 358 674 358 674 337 638.5 c 128,-1,14
 316 603 316 603 305.5 561.5 c 128,-1,15
 295 520 295 520 295 474 c 0,16,17
 295 181 295 181 447 85 c 0,18,19
 480 64 480 64 528 64 c 0,20,21
 579 64 579 64 616.5 90.5 c 128,-1,22
 654 117 654 117 673 160.5 c 128,-1,23
 692 204 692 204 701 249 c 128,-1,24
 710 294 710 294 710 341 c 0,25,26
 710 389 710 389 704 436.5 c 128,-1,27
 698 484 698 484 682 536 c 128,-1,28
 666 588 666 588 641.5 626.5 c 128,-1,29
 617 665 617 665 575.5 690.5 c 128,-1,30
 534 716 534 716 481 716 c 0,11,12
EndSplineSet
EndChar

StartChar: p
Encoding: 112 112 85
Width: 926
GlyphClass: 2
Flags: W
HStem: -429 72 -429 75 -30 101 745 66 758 156 885 19
VStem: 239 208 850 213
LayerCount: 2
Fore
SplineSet
361 799 m 1,0,-1
 390 789 l 1,1,-1
 390 694 l 1,2,3
 494 798 494 798 630 798 c 0,4,5
 706 798 706 798 765 763 c 128,-1,6
 824 728 824 728 858.5 670 c 128,-1,7
 893 612 893 612 910.5 544.5 c 128,-1,8
 928 477 928 477 928 406 c 0,9,10
 928 323 928 323 901 245.5 c 128,-1,11
 874 168 874 168 826 107.5 c 128,-1,12
 778 47 778 47 705 10.5 c 128,-1,13
 632 -26 632 -26 546 -26 c 128,-1,14
 460 -26 460 -26 390 24 c 1,15,-1
 390 -201 l 2,16,17
 390 -233 390 -233 397 -254 c 128,-1,18
 404 -275 404 -275 412.5 -286 c 128,-1,19
 421 -297 421 -297 442.5 -302.5 c 128,-1,20
 464 -308 464 -308 478 -308.5 c 128,-1,21
 492 -309 492 -309 525.718 -309.061 c 0,22,23
 537 -309 537 -309 543 -309 c 1,24,-1
 543 -374 l 1,25,-1
 87 -374 l 1,26,-1
 87 -312 l 1,27,28
 123 -310 123 -310 140 -307 c 128,-1,29
 157 -304 157 -304 176 -294.5 c 128,-1,30
 195 -285 195 -285 202 -265 c 128,-1,31
 209 -245 209 -245 209 -212 c 2,32,-1
 209 591 l 2,33,34
 209 625 209 625 196.5 638 c 128,-1,35
 184 651 184 651 150 651 c 0,36,37
 131 651 131 651 93 647 c 1,38,-1
 93 708 l 1,39,40
 199 738 199 738 361 799 c 1,0,-1
540 662 m 0,41,42
 453 662 453 662 400 593 c 0,43,44
 390 581 390 581 390 568 c 2,45,-1
 390 155 l 2,46,47
 390 116 390 116 450.5 88.5 c 128,-1,48
 511 61 511 61 556 61 c 0,49,50
 607 61 607 61 645 89 c 128,-1,51
 683 117 683 117 703 162 c 128,-1,52
 723 207 723 207 732.5 253.5 c 128,-1,53
 742 300 742 300 742 346 c 0,54,55
 742 390 742 390 737.5 430.5 c 128,-1,56
 733 471 733 471 719 514.5 c 128,-1,57
 705 558 705 558 683.5 589.5 c 128,-1,58
 662 621 662 621 625 641.5 c 128,-1,59
 588 662 588 662 540 662 c 0,41,42
EndSplineSet
EndChar

StartChar: q
Encoding: 113 113 86
Width: 930
GlyphClass: 2
Flags: W
HStem: -429 63 -429 72 -30 157 -29 20G 820 96 889 19
VStem: 128 213 756 208
LayerCount: 2
Fore
SplineSet
512 800 m 0,0,1
 605 800 605 800 711 741 c 1,2,-1
 800 793 l 1,3,-1
 842 793 l 1,4,-1
 842 -229 l 2,5,6
 842 -249 842 -249 846.5 -263.5 c 128,-1,7
 851 -278 851 -278 855.5 -286 c 128,-1,8
 860 -294 860 -294 873 -300 c 128,-1,9
 886 -306 886 -306 893 -307.5 c 128,-1,10
 900 -309 900 -309 921.5 -313 c 128,-1,11
 943 -317 943 -317 952 -319 c 1,12,-1
 952 -374 l 1,13,-1
 506 -374 l 1,14,-1
 506 -312 l 1,15,16
 543 -311 543 -311 565.5 -307.5 c 128,-1,17
 588 -304 588 -304 612.5 -293.5 c 128,-1,18
 637 -283 637 -283 648.5 -260 c 128,-1,19
 660 -237 660 -237 660 -201 c 2,20,-1
 660 72 l 1,21,22
 550 -26 550 -26 406 -26 c 0,23,24
 328 -26 328 -26 269 9 c 128,-1,25
 210 44 210 44 177 102.5 c 128,-1,26
 144 161 144 161 128 228 c 128,-1,27
 112 295 112 295 112 368 c 0,28,29
 112 482 112 482 161.5 580.5 c 128,-1,30
 211 679 211 679 304 739.5 c 128,-1,31
 397 800 397 800 512 800 c 0,0,1
660 220 m 2,32,-1
 660 567 l 2,33,34
 660 716 660 716 524 716 c 0,35,36
 473 716 473 716 433.5 698.5 c 128,-1,37
 394 681 394 681 369 652 c 128,-1,38
 344 623 344 623 327.5 582.5 c 128,-1,39
 311 542 311 542 304.5 500.5 c 128,-1,40
 298 459 298 459 298 412 c 0,41,42
 298 352 298 352 308.5 301.5 c 128,-1,43
 319 251 319 251 343 206 c 128,-1,44
 367 161 367 161 412 135.5 c 128,-1,45
 457 110 457 110 519 110 c 0,46,47
 598 110 598 110 642 157 c 0,48,49
 660 177 660 177 660 220 c 2,32,-1
EndSplineSet
EndChar

StartChar: r
Encoding: 114 114 87
Width: 700
GlyphClass: 2
Flags: W
HStem: 0 67 755 159 885 19 896 19
VStem: 251 208
LayerCount: 2
Fore
SplineSet
374 799 m 1,0,-1
 401 789 l 1,1,-1
 401 680 l 1,2,3
 490 798 490 798 590 798 c 0,4,5
 638 798 638 798 670.5 773 c 128,-1,6
 703 748 703 748 703 702 c 0,7,8
 703 663 703 663 679 632 c 128,-1,9
 655 601 655 601 617 601 c 0,10,11
 593 601 593 601 548.5 630 c 128,-1,12
 504 659 504 659 499 659 c 0,13,14
 471 659 471 659 436 615 c 128,-1,15
 401 571 401 571 401 540 c 2,16,-1
 401 167 l 2,17,18
 401 131 401 131 409.5 109.5 c 128,-1,19
 418 88 418 88 442 77.5 c 128,-1,20
 466 67 466 67 481.5 64.5 c 128,-1,21
 497 62 497 62 536.604 58.7522 c 0,22,23
 544 58 544 58 547 58 c 1,24,-1
 547 0 l 1,25,-1
 96 0 l 1,26,-1
 96 56 l 1,27,28
 193 71 193 71 207 91 c 0,29,30
 219 108 219 108 219 148 c 2,31,-1
 219 581 l 2,32,33
 219 600 219 600 218 609 c 128,-1,34
 217 618 217 618 213 630 c 128,-1,35
 209 642 209 642 199 647 c 128,-1,36
 189 652 189 652 172 652 c 0,37,38
 152 652 152 652 100 643 c 1,39,-1
 100 704 l 1,40,41
 272 758 272 758 374 799 c 1,0,-1
EndSplineSet
EndChar

StartChar: s
Encoding: 115 115 88
Width: 665
GlyphClass: 2
Flags: W
HStem: -17 80 -6 20G 829 83 876 19
VStem: 131 166 133 59 581 180
LayerCount: 2
Fore
SplineSet
374 724 m 0,0,1
 259 724 259 724 259 625 c 0,2,3
 259 567 259 567 324 531 c 2,4,-1
 510 426 l 2,5,6
 664 339 664 339 664 223 c 0,7,8
 664 114 664 114 588.5 49.5 c 128,-1,9
 513 -15 513 -15 402 -15 c 0,10,11
 369 -15 369 -15 304.5 -1.5 c 128,-1,12
 240 12 240 12 207 12 c 0,13,14
 182 12 182 12 168 -5 c 1,15,-1
 116 -5 l 1,16,-1
 116 287 l 1,17,-1
 177 287 l 1,18,19
 187 245 187 245 195 219 c 128,-1,20
 203 193 203 193 219 158 c 128,-1,21
 235 123 235 123 254.5 103 c 128,-1,22
 274 83 274 83 305.5 68.5 c 128,-1,23
 337 54 337 54 377 54 c 0,24,25
 433 54 433 54 470 77 c 128,-1,26
 507 100 507 100 507 152 c 0,27,28
 507 222 507 222 432 262 c 0,29,30
 421 268 421 268 385 287 c 128,-1,31
 349 306 349 306 331.5 316 c 128,-1,32
 314 326 314 326 280 347 c 128,-1,33
 246 368 246 368 227.5 383 c 128,-1,34
 209 398 209 398 184 422 c 128,-1,35
 159 446 159 446 146 467.5 c 128,-1,36
 133 489 133 489 123.5 517 c 128,-1,37
 114 545 114 545 114 574 c 0,38,39
 114 678 114 678 187.5 737 c 128,-1,40
 261 796 261 796 368 796 c 0,41,42
 418 796 418 796 471 780 c 1,43,44
 527 766 527 766 535 766 c 1,45,-1
 557 781 l 1,46,-1
 599 781 l 1,47,-1
 609 521 l 1,48,-1
 549 521 l 1,49,50
 540 555 540 555 532 578 c 128,-1,51
 524 601 524 601 509.5 631 c 128,-1,52
 495 661 495 661 478 679.5 c 128,-1,53
 461 698 461 698 434 711 c 128,-1,54
 407 724 407 724 374 724 c 0,0,1
EndSplineSet
EndChar

StartChar: t
Encoding: 116 116 89
Width: 472
GlyphClass: 2
Flags: W
HStem: -17 20G -17 148 854 109 1208 19
VStem: 199 208
LayerCount: 2
Fore
SplineSet
346 -15 m 0,0,1
 174 -15 174 -15 174 229 c 2,2,-1
 174 746 l 1,3,-1
 93 746 l 1,4,5
 74 761 74 761 74 779 c 0,6,7
 74 794 74 794 101 816 c 0,8,9
 202 899 202 899 250 972 c 1,10,11
 299 1049 299 1049 318 1071 c 1,12,13
 335 1071 335 1071 345 1059 c 128,-1,14
 355 1047 355 1047 355 1029 c 2,15,-1
 355 841 l 1,16,-1
 529 841 l 1,17,-1
 529 746 l 1,18,-1
 355 746 l 1,19,-1
 355 246 l 2,20,21
 355 113 355 113 427 113 c 0,22,23
 471 113 471 113 527 183 c 1,24,-1
 578 142 l 1,25,26
 482 -15 482 -15 346 -15 c 0,0,1
EndSplineSet
EndChar

StartChar: u
Encoding: 117 117 90
Width: 921
GlyphClass: 2
Flags: W
HStem: -17 148 -4 20G 822 72 827 67
VStem: 231 209 750 209
LayerCount: 2
Fore
SplineSet
944 117 m 1,0,-1
 944 64 l 1,1,2
 810 29 810 29 688 -15 c 1,3,-1
 663 -3 l 1,4,-1
 663 100 l 1,5,6
 602 42 602 42 553.5 13.5 c 128,-1,7
 505 -15 505 -15 439 -15 c 0,8,9
 328 -15 328 -15 265 45.5 c 128,-1,10
 202 106 202 106 202 216 c 2,11,-1
 202 634 l 2,12,13
 202 687 202 687 176 703 c 128,-1,14
 150 719 150 719 93 722 c 1,15,-1
 93 780 l 1,16,-1
 384 780 l 1,17,-1
 384 223 l 2,18,19
 384 178 384 178 412 145.5 c 128,-1,20
 440 113 440 113 484 113 c 0,21,22
 572 113 572 113 629 166 c 0,23,24
 655 190 655 190 655 240 c 2,25,-1
 655 630 l 2,26,27
 655 645 655 645 653.5 657 c 128,-1,28
 652 669 652 669 646.5 678 c 128,-1,29
 641 687 641 687 638 693 c 128,-1,30
 635 699 635 699 624.5 703.5 c 128,-1,31
 614 708 614 708 610 710.5 c 128,-1,32
 606 713 606 713 591 714.5 c 128,-1,33
 576 716 576 716 571.5 716.5 c 128,-1,34
 567 717 567 717 549 717.5 c 128,-1,35
 531 718 531 718 526 718 c 1,36,-1
 526 780 l 1,37,-1
 837 780 l 1,38,-1
 837 195 l 2,39,40
 837 164 837 164 843.5 146.5 c 128,-1,41
 850 129 850 129 863.5 123.5 c 128,-1,42
 877 118 877 118 897 117 c 128,-1,43
 917 116 917 116 944 117 c 1,0,-1
EndSplineSet
EndChar

StartChar: v
Encoding: 118 118 91
Width: 870
GlyphClass: 2
Flags: W
HStem: -24 20G 825 69
VStem: 77 950
LayerCount: 2
Fore
SplineSet
701 685 m 0,0,1
 701 699 701 699 691 707 c 128,-1,2
 681 715 681 715 669.5 716.5 c 128,-1,3
 658 718 658 718 641.5 719 c 128,-1,4
 625 720 625 720 620 721 c 1,5,-1
 620 780 l 1,6,-1
 897 780 l 1,7,-1
 897 722 l 1,8,9
 886 721 886 721 876.5 718 c 128,-1,10
 867 715 867 715 859.5 712.5 c 128,-1,11
 852 710 852 710 844.5 704 c 128,-1,12
 837 698 837 698 832.5 694.5 c 128,-1,13
 828 691 828 691 821.5 681.5 c 128,-1,14
 815 672 815 672 812.5 668.5 c 128,-1,15
 810 665 810 665 804.5 653 c 128,-1,16
 799 641 799 641 797.5 637.5 c 128,-1,17
 796 634 796 634 790 620 c 128,-1,18
 784 606 784 606 783 603 c 2,19,-1
 562 70 l 1,20,21
 525 -22 525 -22 496 -22 c 0,22,23
 486 -22 486 -22 477.5 -16 c 128,-1,24
 469 -10 469 -10 462.5 2 c 128,-1,25
 456 14 456 14 452 23.5 c 128,-1,26
 448 33 448 33 442.5 47 c 128,-1,27
 437 61 437 61 436 65 c 2,28,-1
 227 541 l 1,29,30
 167 682 167 682 135 705 c 0,31,32
 120 717 120 717 67 720 c 1,33,-1
 67 780 l 1,34,-1
 443 780 l 1,35,-1
 443 721 l 1,36,37
 440 720 440 720 423.5 719.5 c 128,-1,38
 407 719 407 719 395.5 717.5 c 128,-1,39
 384 716 384 716 373.5 709.5 c 128,-1,40
 363 703 363 703 363 692 c 0,41,42
 363 673 363 673 378 637 c 2,43,-1
 538 254 l 1,44,-1
 692 642 l 2,45,46
 701 663 701 663 701 685 c 0,0,1
EndSplineSet
EndChar

StartChar: w
Encoding: 119 119 92
Width: 1276
GlyphClass: 2
Flags: W
HStem: -24 20G 825 68 828 66
VStem: 113 1376
LayerCount: 2
Fore
SplineSet
1050 780 m 1,0,-1
 1300 780 l 1,1,-1
 1300 724 l 1,2,3
 1290 721 1290 721 1282 718 c 128,-1,4
 1274 715 1274 715 1267 708.5 c 128,-1,5
 1260 702 1260 702 1256.5 699.5 c 128,-1,6
 1253 697 1253 697 1247.5 686.5 c 128,-1,7
 1242 676 1242 676 1240.5 674 c 128,-1,8
 1239 672 1239 672 1233.5 658 c 128,-1,9
 1228 644 1228 644 1227 642 c 2,10,-1
 987 68 l 1,11,12
 953 -22 953 -22 924 -22 c 0,13,14
 915 -22 915 -22 906.5 -16.5 c 128,-1,15
 898 -11 898 -11 891 0.5 c 128,-1,16
 884 12 884 12 880 19.5 c 128,-1,17
 876 27 876 27 870.5 41.5 c 128,-1,18
 865 56 865 56 864 58 c 2,19,-1
 722 411 l 1,20,21
 677 319 677 319 585 135 c 0,22,23
 579 124 579 124 565 93 c 128,-1,24
 551 62 551 62 539 39 c 128,-1,25
 527 16 527 16 516 0 c 1,26,27
 499 -22 499 -22 487 -22 c 0,28,29
 459 -22 459 -22 424 60 c 1,30,-1
 191 627 l 2,31,32
 180 655 180 655 171 671.5 c 128,-1,33
 162 688 162 688 143 703.5 c 128,-1,34
 124 719 124 719 99 721 c 1,35,-1
 99 780 l 1,36,-1
 446 780 l 1,37,-1
 446 722 l 1,38,39
 443 722 443 722 434 721 c 128,-1,40
 425 720 425 720 419.5 719 c 128,-1,41
 414 718 414 718 405 716.5 c 128,-1,42
 396 715 396 715 390 712.5 c 128,-1,43
 384 710 384 710 378.5 706.5 c 128,-1,44
 373 703 373 703 370 697 c 128,-1,45
 367 691 367 691 367 684 c 0,46,47
 367 662 367 662 375 640 c 2,48,-1
 531 247 l 1,49,-1
 667 531 l 1,50,51
 618 675 618 675 587 701 c 0,52,53
 568 716 568 716 514 721 c 1,54,-1
 514 780 l 1,55,-1
 903 780 l 1,56,-1
 903 722 l 1,57,58
 902 722 902 722 893 721.5 c 128,-1,59
 884 721 884 721 879.5 720.5 c 128,-1,60
 875 720 875 720 865.5 719 c 128,-1,61
 856 718 856 718 850 716.5 c 128,-1,62
 844 715 844 715 836 713 c 128,-1,63
 828 711 828 711 823 707.5 c 128,-1,64
 818 704 818 704 813 700 c 128,-1,65
 808 696 808 696 805.5 690.5 c 128,-1,66
 803 685 803 685 803 679 c 0,67,68
 803 653 803 653 830 587 c 1,69,-1
 959 258 l 1,70,-1
 1097 583 l 2,71,72
 1126 651 1126 651 1126 674 c 0,73,74
 1126 688 1126 688 1122 697 c 128,-1,75
 1118 706 1118 706 1108.5 710.5 c 128,-1,76
 1099 715 1099 715 1091.5 716.5 c 128,-1,77
 1084 718 1084 718 1070 720 c 128,-1,78
 1056 722 1056 722 1050 723 c 1,79,-1
 1050 780 l 1,0,-1
EndSplineSet
EndChar

StartChar: x
Encoding: 120 120 93
Width: 910
GlyphClass: 2
Flags: W
HStem: 0 67 825 69
VStem: 103 958
LayerCount: 2
Fore
SplineSet
607 702 m 128,-1,1
 607 716 607 716 578.5 720 c 128,-1,2
 550 724 550 724 538 720 c 1,3,-1
 538 780 l 1,4,-1
 847 780 l 1,5,-1
 847 720 l 1,6,7
 747 716 747 716 703 655 c 2,8,-1
 567 467 l 1,9,-1
 782 152 l 2,10,11
 845 59 845 59 926 59 c 1,12,-1
 926 0 l 1,13,-1
 543 0 l 1,14,-1
 543 58 l 1,15,16
 612 58 612 58 612 82 c 0,17,18
 612 102 612 102 462 312 c 1,19,20
 448 292 448 292 417.5 249 c 128,-1,21
 387 206 387 206 348 145 c 128,-1,22
 309 84 309 84 309 73 c 0,23,24
 309 67 309 67 314.5 63 c 128,-1,25
 320 59 320 59 329.5 58.5 c 128,-1,26
 339 58 339 58 347.5 58 c 128,-1,27
 356 58 356 58 366 58.5 c 128,-1,28
 376 59 376 59 378 59 c 1,29,-1
 378 0 l 1,30,-1
 90 0 l 1,31,-1
 90 58 l 1,32,33
 144 63 144 63 165 77 c 128,-1,34
 186 91 186 91 220 138 c 2,35,-1
 410 402 l 1,36,-1
 255 629 l 2,37,38
 203 705 203 705 167 716 c 0,39,40
 157 719 157 719 103 719 c 1,41,-1
 103 780 l 1,42,-1
 498 780 l 1,43,-1
 498 720 l 1,44,45
 496 720 496 720 485 721 c 128,-1,46
 474 722 474 722 465 721.5 c 128,-1,47
 456 721 456 721 446 720 c 128,-1,48
 436 719 436 719 430 714.5 c 128,-1,49
 424 710 424 710 424 702 c 0,50,51
 424 673 424 673 509 552 c 1,52,-1
 597 675 l 2,53,0
 607 688 607 688 607 702 c 128,-1,1
EndSplineSet
EndChar

StartChar: y
Encoding: 121 121 94
Width: 875
GlyphClass: 2
Flags: W
HStem: -431 203 -430 20G 823 71 826 68
VStem: 77 956
LayerCount: 2
Fore
SplineSet
715 696 m 0,0,1
 715 721 715 721 666 721 c 0,2,3
 648 721 648 721 632 718 c 1,4,-1
 632 780 l 1,5,-1
 902 780 l 1,6,-1
 902 721 l 1,7,8
 867 717 867 717 849 702.5 c 128,-1,9
 831 688 831 688 818 655 c 2,10,-1
 553 -28 l 2,11,12
 539 -64 539 -64 527.5 -91 c 128,-1,13
 516 -118 516 -118 497 -157 c 128,-1,14
 478 -196 478 -196 460 -223.5 c 128,-1,15
 442 -251 442 -251 416 -282 c 128,-1,16
 390 -313 390 -313 363.5 -332 c 128,-1,17
 337 -351 337 -351 303 -363.5 c 128,-1,18
 269 -376 269 -376 232 -376 c 0,19,20
 174 -376 174 -376 135 -344.5 c 128,-1,21
 96 -313 96 -313 96 -256 c 0,22,23
 96 -221 96 -221 121.5 -195 c 128,-1,24
 147 -169 147 -169 182 -169 c 0,25,26
 206 -169 206 -169 250.5 -184 c 128,-1,27
 295 -199 295 -199 317 -199 c 0,28,29
 336 -199 336 -199 353 -184 c 1,30,31
 384 -154 384 -154 422.5 -76.5 c 128,-1,32
 461 1 461 1 461 39 c 0,33,34
 461 56 461 56 441.5 97 c 128,-1,35
 422 138 422 138 394 188.5 c 128,-1,36
 366 239 366 239 360 251 c 2,37,-1
 159 678 l 2,38,39
 142 713 142 713 67 723 c 1,40,-1
 67 780 l 1,41,-1
 461 780 l 1,42,-1
 461 721 l 1,43,44
 435 721 435 721 398 714 c 128,-1,45
 361 707 361 707 361 692 c 0,46,47
 361 668 361 668 376 636 c 2,48,-1
 557 251 l 1,49,50
 715 677 715 677 715 696 c 0,0,1
EndSplineSet
EndChar

StartChar: z
Encoding: 122 122 95
Width: 821
GlyphClass: 2
Flags: W
HStem: 0 98 797 97
VStem: 187 77
LayerCount: 2
Fore
SplineSet
766 268 m 1,0,-1
 831 255 l 1,1,-1
 804 0 l 1,2,-1
 117 0 l 1,3,-1
 117 47 l 1,4,-1
 561 696 l 1,5,-1
 357 696 l 2,6,7
 332 696 332 696 314 692.5 c 128,-1,8
 296 689 296 689 283.5 685.5 c 128,-1,9
 271 682 271 682 261.5 669.5 c 128,-1,10
 252 657 252 657 247.5 651 c 128,-1,11
 243 645 243 645 238.5 622.5 c 128,-1,12
 234 600 234 600 233 591 c 128,-1,13
 232 582 232 582 228 550 c 1,14,-1
 161 550 l 1,15,-1
 167 780 l 1,16,-1
 804 780 l 1,17,-1
 804 732 l 1,18,-1
 354 86 l 1,19,-1
 560 86 l 2,20,21
 602 86 602 86 629.5 88.5 c 128,-1,22
 657 91 657 91 678.5 101.5 c 128,-1,23
 700 112 700 112 712 122 c 128,-1,24
 724 132 724 132 734.5 157 c 128,-1,25
 745 182 745 182 750.5 203.5 c 128,-1,26
 756 225 756 225 766 268 c 1,0,-1
EndSplineSet
EndChar

StartChar: braceleft
Encoding: 123 123 96
Width: 399
GlyphClass: 2
Flags: W
HStem: -455 151 334 152 1126 151
VStem: 178 168
LayerCount: 2
Fore
SplineSet
359 -254 m 1,0,-1
 359 -357 l 1,1,-1
 320 -357 l 2,2,3
 279 -357 279 -357 247 -344 c 128,-1,4
 215 -331 215 -331 195.5 -305.5 c 128,-1,5
 176 -280 176 -280 163.5 -252 c 128,-1,6
 151 -224 151 -224 145.5 -185 c 128,-1,7
 140 -146 140 -146 138 -116.5 c 128,-1,8
 136 -87 136 -87 136 -48 c 2,9,-1
 136 181 l 2,10,11
 136 222 136 222 121 246.5 c 128,-1,12
 106 271 106 271 67 270 c 1,13,14
 67 276 67 276 66.5 288 c 128,-1,15
 66 300 66 300 66 306 c 0,16,17
 66 318 66 318 66.5 340 c 128,-1,18
 67 362 67 362 67 374 c 1,19,-1
 71 374 l 2,20,21
 136 374 136 374 136 464 c 2,22,-1
 136 779 l 2,23,24
 136 876 136 876 181.5 939.5 c 128,-1,25
 227 1003 227 1003 320 1003 c 2,26,-1
 359 1003 l 1,27,-1
 359 900 l 1,28,29
 321 901 321 901 301 879 c 128,-1,30
 281 857 281 857 281 819 c 2,31,-1
 281 532 l 2,32,33
 281 399 281 399 231 322 c 1,34,35
 281 246 281 246 281 82 c 2,36,-1
 281 -180 l 2,37,38
 281 -257 281 -257 359 -254 c 1,0,-1
EndSplineSet
EndChar

StartChar: bar
Encoding: 124 124 97
Width: 268
GlyphClass: 2
Flags: W
HStem: -437 20G
VStem: 97 184
LayerCount: 2
Fore
SplineSet
238 998 m 1,0,-1
 238 -350 l 1,1,-1
 90 -350 l 1,2,-1
 90 998 l 1,3,-1
 238 998 l 1,0,-1
EndSplineSet
EndChar

StartChar: braceright
Encoding: 125 125 98
Width: 387
GlyphClass: 2
Flags: W
HStem: -455 151 334 152 1126 151
VStem: 178 168
LayerCount: 2
Fore
SplineSet
359 306 m 0,0,1
 359 282 359 282 358 270 c 1,2,3
 320 271 320 271 305 246.5 c 128,-1,4
 290 222 290 222 290 181 c 2,5,-1
 290 -48 l 2,6,7
 290 -87 290 -87 288 -116.5 c 128,-1,8
 286 -146 286 -146 280.5 -185 c 128,-1,9
 275 -224 275 -224 262.5 -252 c 128,-1,10
 250 -280 250 -280 230.5 -305.5 c 128,-1,11
 211 -331 211 -331 179 -344 c 128,-1,12
 147 -357 147 -357 106 -357 c 2,13,-1
 66 -357 l 1,14,-1
 66 -254 l 1,15,16
 145 -257 145 -257 145 -180 c 2,17,-1
 145 82 l 2,18,19
 145 133 145 133 147.5 167 c 128,-1,20
 150 201 150 201 161.5 245 c 128,-1,21
 173 289 173 289 195 322 c 1,22,23
 145 399 145 399 145 532 c 2,24,-1
 145 819 l 2,25,26
 145 857 145 857 124.5 879 c 128,-1,27
 104 901 104 901 66 900 c 1,28,-1
 66 1003 l 1,29,-1
 106 1003 l 2,30,31
 199 1003 199 1003 244.5 939.5 c 128,-1,32
 290 876 290 876 290 779 c 2,33,-1
 290 464 l 2,34,35
 290 369 290 369 358 374 c 1,36,37
 359 351 359 351 359 306 c 0,0,1
EndSplineSet
EndChar

StartChar: asciitilde
Encoding: 126 126 99
Width: 597
GlyphClass: 2
Flags: W
HStem: 1071 138 1163 144 1266 19
VStem: 94 647
LayerCount: 2
Fore
SplineSet
552 1010 m 1,0,-1
 590 970 l 1,1,2
 575 904 575 904 529.5 855.5 c 128,-1,3
 484 807 484 807 421 807 c 0,4,5
 385 807 385 807 345 833.5 c 128,-1,6
 305 860 305 860 267 886.5 c 128,-1,7
 229 913 229 913 196 913 c 0,8,9
 148 913 148 913 103 843 c 1,10,-1
 66 874 l 1,11,12
 115 1010 115 1010 221 1010 c 0,13,14
 264 1010 264 1010 330.5 973 c 128,-1,15
 397 936 397 936 432 936 c 0,16,17
 492 936 492 936 552 1010 c 1,0,-1
EndSplineSet
EndChar

StartChar: exclamdown
Encoding: 161 161 101
Width: 198
GlyphClass: 2
Flags: W
HStem: -29 1020 759 231
VStem: 72 228
LayerCount: 2
Fore
SplineSet
138 730 m 0,0,1
 221 730 221 730 221 644 c 0,2,3
 221 560 221 560 138 560 c 0,4,5
 98 560 98 560 75.5 582 c 128,-1,6
 53 604 53 604 53 645 c 128,-1,7
 53 686 53 686 75.5 708 c 128,-1,8
 98 730 98 730 138 730 c 0,0,1
183 467 m 1,9,-1
 212 40 l 1,10,-1
 212 35 l 2,11,12
 212 14 212 14 195 -3 c 0,13,14
 178 -21 178 -21 157 -21 c 2,15,-1
 121 -21 l 2,16,17
 88 -21 88 -21 71 13 c 0,18,19
 66 22 66 22 66 34 c 2,20,-1
 66 40 l 1,21,-1
 95 467 l 1,22,-1
 183 467 l 1,9,-1
EndSplineSet
EndChar

StartChar: cent
Encoding: 162 162 102
Width: 529
GlyphClass: 2
Flags: W
HStem: 0 150 826 151
VStem: 98 168 563 152
LayerCount: 2
Fore
SplineSet
415 165 m 1,0,-1
 527 165 l 1,1,2
 526 43 526 43 451 14 c 0,3,4
 415 0 415 0 358 0 c 2,5,-1
 269 0 l 1,6,-1
 247 -111 l 1,7,-1
 154 -111 l 1,8,-1
 178 7 l 1,9,10
 104 31 104 31 80 111 c 0,11,12
 72 138 72 138 72 161 c 2,13,-1
 72 563 l 2,14,15
 72 627 72 627 113 674 c 0,16,17
 153 720 153 720 217 720 c 2,18,-1
 316 720 l 1,19,-1
 338 832 l 1,20,-1
 431 832 l 1,21,-1
 409 719 l 1,22,23
 495 709 495 709 519 616 c 0,24,25
 525 592 525 592 527 560 c 1,26,-1
 415 560 l 1,27,28
 414 596 414 596 387 605 c 1,29,-1
 290 111 l 1,30,-1
 360 111 l 2,31,32
 386 111 386 111 401 125 c 128,-1,33
 416 139 416 139 415 165 c 1,0,-1
203 136 m 1,34,-1
 295 609 l 1,35,-1
 256 609 l 2,36,37
 196 609 196 609 196 547 c 2,38,-1
 196 170 l 2,39,40
 196 150 196 150 203 136 c 1,34,-1
EndSplineSet
EndChar

StartChar: sterling
Encoding: 163 163 103
Width: 680
GlyphClass: 2
Flags: W
HStem: -2 153 511 147 1124 160
VStem: 236 167 254 167
LayerCount: 2
Fore
SplineSet
245 111 m 1,0,-1
 501 111 l 2,1,2
 529 111 529 111 542.5 122.5 c 128,-1,3
 556 134 556 134 555 158 c 1,4,-1
 682 158 l 1,5,6
 681 89 681 89 641 43 c 1,7,8
 601 -1 601 -1 532 -1 c 2,9,-1
 64 -1 l 1,10,-1
 72 103 l 1,11,12
 165 103 165 103 171 235 c 2,13,-1
 177 377 l 1,14,-1
 105 377 l 1,15,-1
 105 485 l 1,16,-1
 181 485 l 1,17,-1
 193 756 l 1,18,19
 198 845 198 845 259 896 c 1,20,21
 322 947 322 947 408 947 c 0,22,23
 496 947 496 947 560 887 c 1,24,-1
 552 767 l 1,25,-1
 511 767 l 1,26,27
 501 811 501 811 442 825 c 1,28,29
 420 829 420 829 411 829 c 0,30,31
 321 829 321 829 316 728 c 2,32,-1
 305 485 l 1,33,-1
 523 485 l 1,34,-1
 523 377 l 1,35,-1
 300 377 l 1,36,-1
 294 256 l 1,37,-1
 293 217 l 2,38,39
 290 132 290 132 245 111 c 1,0,-1
EndSplineSet
EndChar

StartChar: currency
Encoding: 164 164 104
Width: 663
GlyphClass: 2
Flags: W
HStem: 398 126 914 120
VStem: 184 119 693 127
LayerCount: 2
Fore
SplineSet
576 417 m 1,0,-1
 666 328 l 1,1,-1
 570 232 l 1,2,-1
 481 321 l 1,3,4
 429 293 429 293 369 293.5 c 128,-1,5
 309 294 309 294 257 323 c 1,6,-1
 166 232 l 1,7,-1
 70 328 l 1,8,-1
 162 420 l 1,9,10
 135 469 135 469 135.5 528.5 c 128,-1,11
 136 588 136 588 164 638 c 1,12,-1
 70 732 l 1,13,-1
 166 828 l 1,14,-1
 259 734 l 1,15,16
 310 762 310 762 369 762.5 c 128,-1,17
 428 763 428 763 478 736 c 1,18,-1
 570 828 l 1,19,-1
 666 732 l 1,20,-1
 575 641 l 1,21,22
 604 589 604 589 604.5 529 c 128,-1,23
 605 469 605 469 576 417 c 1,0,-1
511 530 m 128,-1,25
 511 589 511 589 468 631 c 0,26,27
 425 674 425 674 367 674 c 0,28,29
 308 674 308 674 265 631 c 0,30,31
 223 589 223 589 223 530 c 0,32,33
 223 471.5 223 471.5 265 428 c 1,34,35
 308.5 386 308.5 386 367 386 c 0,36,37
 426 386 426 386 468 428 c 0,38,24
 511 471 511 471 511 530 c 128,-1,25
EndSplineSet
EndChar

StartChar: yen
Encoding: 165 165 105
Width: 721
GlyphClass: 2
Flags: W
HStem: 1 20G 391 144 628 136 1266 19
VStem: 452 194
LayerCount: 2
Fore
SplineSet
400 520 m 1,0,-1
 592 944 l 1,1,-1
 686 944 l 1,2,3
 721 941 721 941 725 930 c 128,-1,4
 729 919 729 919 726 913 c 0,5,6
 725 910 725 910 707.5 871 c 128,-1,7
 690 832 690 832 652 745.5 c 128,-1,8
 614 659 614 659 571 564 c 1,9,-1
 684 564 l 1,10,-1
 683 465 l 1,11,-1
 527 463 l 1,12,-1
 497 394 l 1,13,-1
 684 394 l 1,14,-1
 684 288 l 1,15,-1
 476 288 l 1,16,-1
 476 0 l 1,17,-1
 333 0 l 1,18,-1
 333 288 l 1,19,-1
 114 288 l 1,20,-1
 114 394 l 1,21,-1
 312 394 l 1,22,-1
 279 464 l 1,23,-1
 112 462 l 1,24,-1
 112 564 l 1,25,-1
 233 564 l 1,26,-1
 114 820 l 1,27,28
 73 911 73 911 69 915 c 1,29,30
 64.5 922.5 64.5 922.5 69 930 c 0,31,32
 78 947 78 947 108 947 c 2,33,-1
 195 947 l 1,34,-1
 400 520 l 1,0,-1
EndSplineSet
EndChar

StartChar: brokenbar
Encoding: 166 166 106
Width: 208
GlyphClass: 2
Flags: W
HStem: -437 20G
VStem: 97 184
LayerCount: 2
Fore
SplineSet
72 942 m 1,0,-1
 207 942 l 1,1,-1
 207 346 l 1,2,-1
 72 346 l 1,3,-1
 72 942 l 1,0,-1
72 271 m 1,4,-1
 207 271 l 1,5,-1
 207 -323 l 1,6,-1
 72 -323 l 1,7,-1
 72 271 l 1,4,-1
EndSplineSet
EndChar

StartChar: section
Encoding: 167 167 107
Width: 621
GlyphClass: 2
Flags: W
HStem: -439 152 52 152 1130 154
VStem: 98 157 234 156 540 168 635 163
LayerCount: 2
Fore
SplineSet
481 38 m 1,0,1
 522 -13 522 -13 522 -134 c 2,2,-1
 522 -192 l 2,3,4
 522 -306 522 -306 391 -315 c 0,5,6
 271 -323 271 -323 245 -323 c 0,7,8
 182 -323 182 -323 147 -286.5 c 128,-1,9
 112 -250 112 -250 105 -187 c 1,10,-1
 217 -174 l 1,11,12
 217 -196 217 -196 228 -204 c 0,13,14
 238 -211 238 -211 279 -211 c 0,15,16
 318 -211 318 -211 351 -208 c 128,-1,17
 384 -205 384 -205 391 -193 c 0,18,19
 398 -182 398 -182 398 -135 c 0,20,21
 398 -86 398 -86 394 -45 c 0,22,23
 393 -25 393 -25 369 -3 c 1,24,25
 347 15 347 15 236 83 c 0,26,27
 81 178 81 178 77 276 c 1,28,29
 72 351 72 351 72 417 c 0,30,31
 72 496 72 496 111 527 c 1,32,33
 147 557 147 557 237 568 c 1,34,35
 234 571 234 571 227.5 578.5 c 128,-1,36
 221 586 221 586 217 590 c 0,37,38
 173 633 173 633 173 668 c 0,39,40
 173 811 173 811 198 867 c 1,41,42
 225 923 225 923 298 938 c 1,43,44
 350 947 350 947 495 947 c 0,45,46
 554 947 554 947 587 905 c 0,47,48
 619 864 619 864 619 801 c 1,49,-1
 507 801 l 1,50,51
 508 819 508 819 498 828 c 128,-1,52
 488 837 488 837 469 836 c 2,53,-1
 338 830 l 2,54,55
 315 828 315 828 307 816 c 0,56,57
 297 803 297 803 293 759 c 1,58,59
 285 717 285 717 287.5 680 c 128,-1,60
 290 643 290 643 310 619 c 0,61,62
 342 580 342 580 438 512 c 0,63,64
 588 405 588 405 588 291 c 0,65,66
 588 271 588 271 587 248 c 128,-1,67
 586 225 586 225 584 199 c 128,-1,68
 582 173 582 173 581 161 c 0,69,70
 576 98 576 98 551.5 67.5 c 128,-1,71
 527 37 527 37 481 38 c 1,0,1
313 468 m 2,72,-1
 226 456 l 2,73,74
 188 450 188 450 188 408 c 0,75,76
 188 315 188 315 194 282 c 0,77,78
 200 246 200 246 226 223 c 1,79,80
 248 200 248 200 324 157 c 1,81,82
 333 156 333 156 366 153 c 128,-1,83
 399 150 399 150 418 150 c 0,84,85
 441 150 441 150 450 161 c 128,-1,86
 459 172 459 172 461 198 c 0,87,88
 462 211 462 211 464.5 237 c 128,-1,89
 467 263 467 263 468 278 c 128,-1,90
 469 293 469 293 467 310 c 128,-1,91
 465 327 465 327 459 336 c 0,92,93
 449 353 449 353 426.5 374.5 c 128,-1,94
 404 396 404 396 389 408.5 c 128,-1,95
 374 421 374 421 344 444.5 c 128,-1,96
 314 468 314 468 313 468 c 2,72,-1
EndSplineSet
EndChar

StartChar: dieresis
Encoding: 168 168 108
Width: 537
GlyphClass: 2
Flags: W
HStem: 1063 243
VStem: 88 240 88 640 488 240
LayerCount: 2
Fore
SplineSet
449 963 m 0,0,1
 537 963 537 963 537 874 c 0,2,3
 537 831 537 831 514.5 807.5 c 128,-1,4
 492 784 492 784 449 784 c 128,-1,5
 406 784 406 784 383 807.5 c 128,-1,6
 360 831 360 831 360 873 c 0,7,8
 360 916 360 916 383 939.5 c 128,-1,9
 406 963 406 963 449 963 c 0,0,1
154 963 m 0,10,11
 242 963 242 963 242 874 c 0,12,13
 242 831 242 831 219.5 807.5 c 128,-1,14
 197 784 197 784 154 784 c 128,-1,15
 111 784 111 784 88 807.5 c 128,-1,16
 65 831 65 831 65 873 c 0,17,18
 65 916 65 916 88 939.5 c 128,-1,19
 111 963 111 963 154 963 c 0,10,11
EndSplineSet
EndChar

StartChar: copyright
Encoding: 169 169 109
Width: 1028
GlyphClass: 2
Flags: W
HStem: -210 158 58 174 683 174 971 158
VStem: 49 158 486 180 824 183 1232 158
LayerCount: 2
Fore
SplineSet
534 832 m 0,0,1
 1025 832 1025 832 1025 338 c 0,2,3
 1025 -155 1025 -155 534 -155 c 0,4,5
 288 -155 288 -155 162 -30.5 c 128,-1,6
 36 94 36 94 36 338 c 128,-1,7
 36 582 36 582 162 707 c 128,-1,8
 288 832 288 832 534 832 c 0,0,1
886 171 m 0,9,10
 908 245 908 245 908 338 c 0,11,12
 908 531 908 531 818 624 c 0,13,14
 729 716 729 716 533 716 c 0,15,16
 339 716 339 716 245 624 c 1,17,18
 153 530 153 530 153 338 c 0,19,20
 153 145 153 145 245.5 53.5 c 128,-1,21
 338 -38 338 -38 534 -38 c 0,22,23
 823 -38 823 -38 886 171 c 0,9,10
513 171 m 2,24,-1
 589 171 l 2,25,26
 608.5 171 608.5 171 607 201 c 1,27,-1
 607 212 l 1,28,-1
 742 212 l 1,29,30
 739 97 739 97 672 58 c 1,31,32
 650 43 650 43 611 43 c 2,33,-1
 490 43 l 2,34,35
 433 43 433 43 396 86 c 0,36,37
 358 129 358 129 358 187 c 2,38,-1
 358 491 l 2,39,40
 358 549 358 549 393 590 c 0,41,42
 428 632 428 632 484 632 c 2,43,-1
 611 632 l 2,44,45
 676 632 676 632 708 583 c 1,46,47
 742 534 742 534 742 467 c 1,48,-1
 607 467 l 1,49,-1
 607 476 l 2,50,51
 607 504 607 504 594 504 c 2,52,-1
 513 504 l 2,53,54
 491 504 491 504 491 479 c 2,55,-1
 491 194 l 2,56,57
 491 171 491 171 513 171 c 2,24,-1
EndSplineSet
EndChar

StartChar: ordfeminine
Encoding: 170 170 110
Width: 344
GlyphClass: 2
Flags: W
HStem: 756 104 983 106 1171 106
VStem: 96 115 100 116 348 116
LayerCount: 2
Fore
SplineSet
240 863 m 2,0,-1
 173 863 l 2,1,2
 159 863 159 863 159 839 c 1,3,-1
 74 839 l 1,4,5
 76 909 76 909 122 933 c 0,6,7
 137 941 137 941 161 941 c 2,8,-1
 259 941 l 2,9,10
 295 941 295 941 318.5 915 c 128,-1,11
 342 889 342 889 342 851 c 2,12,-1
 342 559 l 1,13,-1
 265 559 l 1,14,-1
 265 579 l 1,15,-1
 237 557 l 1,16,-1
 170 557 l 2,17,18
 131 557 131 557 110 575 c 1,19,20
 71 606 71 606 71 644 c 2,21,-1
 71 714 l 2,22,23
 71 750 71 750 101 776 c 0,24,25
 130 801 130 801 161 801 c 0,26,27
 172 801 172 801 195 802 c 128,-1,28
 218 803 218 803 232 802.5 c 128,-1,29
 246 802 246 802 258 798 c 1,30,-1
 258 843 l 2,31,32
 258 863 258 863 240 863 c 2,0,-1
174 634 m 2,33,-1
 237 634 l 2,34,35
 257 634 257 634 257 656 c 2,36,-1
 257 702 l 2,37,38
 257 725 257 725 237 725 c 2,39,-1
 174 725 l 2,40,41
 156 725 156 725 156 702 c 2,42,-1
 156 656 l 2,43,44
 156 634 156 634 174 634 c 2,33,-1
EndSplineSet
EndChar

StartChar: guillemotleft
Encoding: 171 171 111
Width: 564
GlyphClass: 2
Flags: W
HStem: 1 20G
VStem: 97 664
LayerCount: 2
Fore
SplineSet
561 720 m 1,0,-1
 428 360 l 1,1,-1
 561 0 l 1,2,-1
 484 0 l 1,3,-1
 271 360 l 1,4,-1
 484 720 l 1,5,-1
 561 720 l 1,0,-1
362 720 m 1,6,-1
 229 360 l 1,7,-1
 362 0 l 1,8,-1
 285 0 l 1,9,-1
 72 360 l 1,10,-1
 285 720 l 1,11,-1
 362 720 l 1,6,-1
EndSplineSet
EndChar

StartChar: logicalnot
Encoding: 172 172 112
Width: 738
GlyphClass: 2
Flags: W
HStem: 667 161
VStem: 817 184
LayerCount: 2
Fore
SplineSet
738 532 m 2,0,-1
 738 310 l 1,1,-1
 602 310 l 1,2,-1
 602 492 l 1,3,-1
 74 492 l 1,4,-1
 74 610 l 1,5,-1
 663 610 l 2,6,7
 699 610 699 610 718.5 589 c 128,-1,8
 738 568 738 568 738 532 c 2,0,-1
EndSplineSet
EndChar

StartChar: uni00AD
Encoding: 173 173 113
Width: 483
GlyphClass: 2
Flags: W
HStem: 321 147
VStem: 102 547
LayerCount: 2
Fore
SplineSet
75 345 m 1,0,-1
 478 345 l 1,1,-1
 478 237 l 1,2,-1
 75 237 l 1,3,-1
 75 345 l 1,0,-1
EndSplineSet
EndChar

StartChar: registered
Encoding: 174 174 114
Width: 1030
GlyphClass: 2
Flags: W
HStem: -210 158 379 145 736 144 971 158
VStem: 89 158 529 156 861 154 1272 158
LayerCount: 2
Fore
SplineSet
563 832 m 0,0,1
 1054 832 1054 832 1054 338 c 0,2,3
 1054 -155 1054 -155 563 -155 c 0,4,5
 317 -155 317 -155 191.5 -30.5 c 128,-1,6
 66 94 66 94 66 338 c 128,-1,7
 66 582 66 582 191.5 707 c 128,-1,8
 317 832 317 832 563 832 c 0,0,1
938 338 m 0,9,10
 938 529 938 529 848 624 c 1,11,12
 758 716 758 716 562 716 c 0,13,14
 368 716 368 716 275 623.5 c 128,-1,15
 182 531 182 531 182 338 c 128,-1,16
 182 145 182 145 275 53.5 c 128,-1,17
 368 -38 368 -38 563 -38 c 0,18,19
 852 -38 852 -38 916 170 c 1,20,21
 938 245 938 245 938 338 c 0,9,10
666 281 m 1,22,-1
 778 24 l 1,23,-1
 658 24 l 1,24,-1
 540 279 l 1,25,-1
 505 279 l 1,26,-1
 505 24 l 1,27,-1
 390 24 l 1,28,-1
 390 649 l 1,29,-1
 626 649 l 2,30,31
 676 649 676 649 712 613 c 128,-1,32
 748 577 748 577 748 526 c 2,33,-1
 748 389 l 2,34,35
 748 348 748 348 726.5 319 c 128,-1,36
 705 290 705 290 666 281 c 1,22,-1
505 543 m 1,37,-1
 505 386 l 1,38,-1
 625 386 l 2,39,40
 635 386 635 386 635 400 c 0,41,42
 635 420 635 420 635 443.5 c 128,-1,43
 635 467 635 467 636.5 478 c 128,-1,44
 638 489 638 489 636 502.5 c 128,-1,45
 634 516 634 516 634.5 521 c 128,-1,46
 635 526 635 526 628.5 532.5 c 128,-1,47
 622 539 622 539 619 540 c 128,-1,48
 616 541 616 541 602 543 c 128,-1,49
 588 545 588 545 579.5 544 c 128,-1,50
 571 543 571 543 546.5 543 c 128,-1,51
 522 543 522 543 505 543 c 1,37,-1
EndSplineSet
EndChar

StartChar: macron
Encoding: 175 175 115
Width: 623
GlyphClass: 2
Flags: W
HStem: 1207 97
VStem: 102 747
LayerCount: 2
Fore
SplineSet
75 961 m 1,0,-1
 626 961 l 1,1,-1
 626 890 l 1,2,-1
 75 890 l 1,3,-1
 75 961 l 1,0,-1
EndSplineSet
EndChar

StartChar: degree
Encoding: 176 176 116
Width: 346
GlyphClass: 2
Flags: W
HStem: 843 92 1200 93
VStem: 98 119 346 121
LayerCount: 2
Fore
SplineSet
211 621 m 0,0,1
 95 621 95 621 77 723 c 0,2,3
 72 756 72 756 72 787 c 0,4,5
 72 865 72 865 93 896 c 0,6,7
 130 953 130 953 211 953 c 0,8,9
 326 953 326 953 341 851 c 1,10,11
 344 821 344 821 344 787 c 0,12,13
 344 708 344 708 326 677 c 1,14,15
 291 621 291 621 211 621 c 0,0,1
211 689 m 0,16,17
 255 689 255 689 255 757 c 2,18,-1
 255 815 l 2,19,20
 255 885 255 885 211 885 c 0,21,22
 160 885 160 885 160 799 c 2,23,-1
 160 768 l 2,24,25
 160 689 160 689 211 689 c 0,16,17
EndSplineSet
EndChar

StartChar: plusminus
Encoding: 177 177 117
Width: 709
GlyphClass: 2
Flags: W
HStem: 77 164 587 164
VStem: 437 184
LayerCount: 2
Fore
SplineSet
458 554 m 1,0,-1
 691 554 l 1,1,-1
 691 433 l 1,2,-1
 458 433 l 1,3,-1
 458 199 l 1,4,-1
 322 199 l 1,5,-1
 322 433 l 1,6,-1
 88 433 l 1,7,-1
 88 554 l 1,8,-1
 322 554 l 1,9,-1
 322 787 l 1,10,-1
 458 787 l 1,11,-1
 458 554 l 1,0,-1
88 178 m 1,12,-1
 691 178 l 1,13,-1
 691 57 l 1,14,-1
 88 57 l 1,15,-1
 88 178 l 1,12,-1
EndSplineSet
EndChar

StartChar: uni00B2
Encoding: 178 178 118
Width: 352
GlyphClass: 2
Flags: W
HStem: 698 108 1187 105
VStem: 105 119 105 125 353 123
LayerCount: 2
Fore
SplineSet
235 875 m 2,0,-1
 188 875 l 2,1,2
 166 875 166 875 165 851 c 1,3,-1
 77 851 l 1,4,5
 79 897 79 897 103.5 924.5 c 128,-1,6
 128 952 128 952 173 952 c 2,7,-1
 257 952 l 2,8,9
 299 952 299 952 325 925.5 c 128,-1,10
 351 899 351 899 351 858 c 2,11,-1
 351 768 l 2,12,13
 351 670 351 670 216 648 c 0,14,15
 197 645 197 645 184.5 629.5 c 128,-1,16
 172 614 172 614 170 594 c 1,17,-1
 341 594 l 1,18,-1
 341 515 l 1,19,-1
 77 515 l 1,20,-1
 77 607 l 2,21,22
 77 660 77 660 121 692 c 0,23,24
 166 726 166 726 204 732 c 0,25,26
 244.5 738 244.5 738 252 750 c 0,27,28
 260 764 260 764 260 770 c 2,29,-1
 260 849 l 2,30,31
 260 875 260 875 235 875 c 2,0,-1
EndSplineSet
EndChar

StartChar: uni00B3
Encoding: 179 179 119
Width: 360
GlyphClass: 2
Flags: W
HStem: 684 111 939 116 1175 108
VStem: 95 127 359 123
LayerCount: 2
Fore
SplineSet
249 866 m 2,0,-1
 176 866 l 2,1,2
 163 866 163 866 163 841 c 1,3,-1
 70 841 l 1,4,5
 73 915 73 915 124 938 c 0,6,7
 143 946 143 946 164 946 c 2,8,-1
 269 946 l 2,9,10
 307 946 307 946 331 921 c 128,-1,11
 355 896 355 896 355 857 c 2,12,-1
 355 781 l 2,13,14
 355 773 355 773 352.5 766 c 128,-1,15
 350 759 350 759 343 748 c 128,-1,16
 336 737 336 737 335 736 c 1,17,18
 337 733 337 733 341.5 726 c 128,-1,19
 346 719 346 719 348.5 715 c 128,-1,20
 351 711 351 711 353 704.5 c 128,-1,21
 355 698 355 698 355 691 c 2,22,-1
 355 596 l 2,23,24
 355 557 355 557 329.5 530.5 c 128,-1,25
 304 504 304 504 265 504 c 2,26,-1
 161 504 l 2,27,28
 70 504 70 504 70 610 c 1,29,-1
 164 610 l 1,30,31
 164 603 164 603 163.5 598 c 128,-1,32
 163 593 163 593 166 589.5 c 128,-1,33
 169 586 169 586 176 586 c 2,34,-1
 249 586 l 2,35,36
 265 586 265 586 265 601 c 2,37,-1
 265 677 l 2,38,39
 265 692 265 692 254 692 c 2,40,-1
 142 692 l 1,41,-1
 142 778 l 1,42,-1
 254 778 l 2,43,44
 265 778 265 778 265 792 c 2,45,-1
 265 850 l 2,46,47
 265 866 265 866 249 866 c 2,0,-1
EndSplineSet
EndChar

StartChar: acute
Encoding: 180 180 120
Width: 271
GlyphClass: 2
Flags: W
HStem: 997 307
VStem: 65 300
LayerCount: 2
Fore
SplineSet
48 735 m 1,0,-1
 107 961 l 1,1,-1
 269 961 l 1,2,-1
 136 735 l 1,3,-1
 48 735 l 1,0,-1
EndSplineSet
EndChar

StartChar: uni00B5
Encoding: 181 181 121
Width: 554
GlyphClass: 2
Flags: W
HStem: 1 148
VStem: 97 171 578 171
LayerCount: 2
Fore
SplineSet
426 697 m 1,0,-1
 552 697 l 1,1,-1
 552 153 l 2,2,3
 552 88 552 88 509 44 c 0,4,5
 467 1 467 1 403 1 c 2,6,-1
 255 1 l 2,7,8
 218 1 218 1 206 13 c 2,9,-1
 184 36 l 1,10,-1
 184 -219 l 1,11,-1
 72 -219 l 1,12,-1
 72 719 l 1,13,-1
 198 719 l 1,14,-1
 198 206 l 2,15,16
 198 147 198 147 229 120 c 0,17,18
 239 110 239 110 257 110 c 2,19,-1
 364 110 l 2,20,21
 394 110 394 110 410 128.5 c 128,-1,22
 426 147 426 147 426 177 c 2,23,-1
 426 697 l 1,0,-1
EndSplineSet
EndChar

StartChar: paragraph
Encoding: 182 182 122
Width: 833
GlyphClass: 2
Flags: W
HStem: 1059 219
VStem: 517 182 786 180
LayerCount: 2
Fore
SplineSet
247 942 m 2,0,-1
 830 942 l 1,1,-1
 830 781 l 1,2,-1
 712 781 l 1,3,-1
 712 -219 l 1,4,-1
 579 -219 l 1,5,-1
 579 781 l 1,6,-1
 515 781 l 1,7,-1
 515 -223 l 1,8,-1
 381 -223 l 1,9,-1
 381 369 l 1,10,-1
 217 369 l 2,11,12
 72 369 72 369 72 516 c 2,13,-1
 72 774 l 2,14,15
 72 942 72 942 247 942 c 2,0,-1
EndSplineSet
EndChar

StartChar: periodcentered
Encoding: 183 183 123
Width: 243
GlyphClass: 2
Flags: W
HStem: 363 243
VStem: 88 240
LayerCount: 2
Fore
SplineSet
154 447 m 0,0,1
 242 447 242 447 242 358 c 0,2,3
 242 315 242 315 219.5 291.5 c 128,-1,4
 197 268 197 268 154 268 c 128,-1,5
 111 268 111 268 88 291.5 c 128,-1,6
 65 315 65 315 65 357 c 0,7,8
 65 400 65 400 88 423.5 c 128,-1,9
 111 447 111 447 154 447 c 0,0,1
EndSplineSet
EndChar

StartChar: cedilla
Encoding: 184 184 124
Width: 313
GlyphClass: 2
Flags: W
HStem: -303 80
VStem: 280 138
LayerCount: 2
Fore
SplineSet
308 -129 m 0,0,1
 308 -174 308 -174 269 -198 c 1,2,3
 231 -223 231 -223 195 -223 c 0,4,5
 131 -223 131 -223 93.5 -202.5 c 128,-1,6
 56 -182 56 -182 56 -142 c 0,7,8
 56 -132 56 -132 59 -123 c 1,9,-1
 108 -133 l 1,10,11
 105 -163 105 -163 159 -164 c 0,12,13
 189 -165 189 -165 202.5 -134 c 128,-1,14
 216 -103 216 -103 192 -89 c 0,15,16
 179 -81 179 -81 159 -76 c 128,-1,17
 139 -71 139 -71 114.5 -67.5 c 128,-1,18
 90 -64 90 -64 86 -63 c 1,19,-1
 158 35 l 1,20,-1
 220 30 l 1,21,-1
 186 -39 l 1,22,23
 308 -60 308 -60 308 -129 c 0,0,1
EndSplineSet
EndChar

StartChar: uni00B9
Encoding: 185 185 125
Width: 201
GlyphClass: 2
Flags: W
HStem: 688 594 1113 168
VStem: 150 117
LayerCount: 2
Fore
SplineSet
89 820 m 0,0,1
 73 820 73 820 73 846 c 2,2,-1
 73 907 l 1,3,-1
 131 944 l 1,4,-1
 198 945 l 1,5,-1
 198 507 l 1,6,-1
 111 507 l 1,7,-1
 111 832 l 1,8,9
 98 820 98 820 89 820 c 0,0,1
EndSplineSet
EndChar

StartChar: ordmasculine
Encoding: 186 186 126
Width: 316
GlyphClass: 2
Flags: W
HStem: 760 104 1173 103
VStem: 97 116 312 116
LayerCount: 2
Fore
SplineSet
316 854 m 2,0,-1
 316 647 l 2,1,2
 316 610 316 610 286 585 c 0,3,4
 257 560 257 560 218 560 c 2,5,-1
 171 560 l 2,6,7
 132 560 132 560 111 578 c 0,8,9
 72 610 72 610 72 647 c 2,10,-1
 72 854 l 2,11,12
 72 890 72 890 102 916 c 0,13,14
 131 941 131 941 171 941 c 2,15,-1
 218 941 l 2,16,17
 255 941 255 941 286 915 c 0,18,19
 316 889 316 889 316 854 c 2,0,-1
175 637 m 2,20,-1
 210 637 l 2,21,22
 230 637 230 637 230 659 c 2,23,-1
 230 842 l 2,24,25
 230 865 230 865 210 865 c 2,26,-1
 175 865 l 2,27,28
 157 865 157 865 157 842 c 2,29,-1
 157 659 l 2,30,31
 157 637 157 637 175 637 c 2,20,-1
EndSplineSet
EndChar

StartChar: guillemotright
Encoding: 187 187 127
Width: 564
GlyphClass: 2
Flags: W
HStem: 1 20G
VStem: 97 664
LayerCount: 2
Fore
SplineSet
271 720 m 1,0,-1
 347 720 l 1,1,-1
 561 360 l 1,2,-1
 347 0 l 1,3,-1
 271 0 l 1,4,-1
 403 360 l 1,5,-1
 271 720 l 1,0,-1
72 720 m 1,6,-1
 148 720 l 1,7,-1
 362 360 l 1,8,-1
 148 0 l 1,9,-1
 72 0 l 1,10,-1
 204 360 l 1,11,-1
 72 720 l 1,6,-1
EndSplineSet
EndChar

StartChar: onequarter
Encoding: 188 188 128
Width: 608
GlyphClass: 2
Flags: W
HStem: 1 20G 100 109 963 168
VStem: 150 117 658 114
LayerCount: 2
Fore
SplineSet
89 710 m 0,0,1
 73 710 73 710 73 735 c 2,2,-1
 73 796 l 1,3,-1
 131 834 l 1,4,-1
 198 835 l 1,5,-1
 198 397 l 1,6,-1
 111 397 l 1,7,-1
 111 721 l 1,8,9
 97 710 97 710 89 710 c 0,0,1
569 154 m 1,10,-1
 606 154 l 1,11,-1
 606 74 l 1,12,-1
 569 74 l 1,13,-1
 569 0 l 1,14,-1
 487 0 l 1,15,-1
 487 74 l 1,16,-1
 328 74 l 2,17,18
 316 74 316 74 306.5 82.5 c 128,-1,19
 297 91 297 91 297 102 c 0,20,21
 297 119 297 119 335 192 c 0,22,23
 345 211 345 211 464 427 c 1,24,-1
 467 427 l 1,25,26
 476 438 476 438 489 438 c 2,27,-1
 540 438 l 2,28,29
 553 438 553 438 561 429.5 c 128,-1,30
 569 421 569 421 569 408 c 2,31,-1
 569 154 l 1,10,-1
96 46 m 1,32,-1
 449 717 l 1,33,-1
 520 675 l 1,34,-1
 167 5 l 1,35,-1
 96 46 l 1,32,-1
484 310 m 1,36,-1
 414 154 l 1,37,-1
 486 154 l 1,38,-1
 484 310 l 1,36,-1
EndSplineSet
EndChar

StartChar: onehalf
Encoding: 189 189 129
Width: 647
GlyphClass: 2
Flags: W
HStem: 0 107 487 105 963 168
VStem: 150 117 505 119 505 125 753 123
LayerCount: 2
Fore
SplineSet
89 710 m 0,0,1
 73 710 73 710 73 735 c 2,2,-1
 73 796 l 1,3,-1
 131 834 l 1,4,-1
 198 835 l 1,5,-1
 198 397 l 1,6,-1
 111 397 l 1,7,-1
 111 721 l 1,8,9
 97 710 97 710 89 710 c 0,0,1
529 359 m 2,10,-1
 483 359 l 2,11,12
 462 359 462 359 460 335 c 1,13,-1
 372 335 l 1,14,15
 374 381 374 381 398 408.5 c 128,-1,16
 422 436 422 436 467 436 c 2,17,-1
 552 436 l 2,18,19
 594 436 594 436 620 409.5 c 128,-1,20
 646 383 646 383 646 342 c 2,21,-1
 646 252 l 2,22,23
 646 154 646 154 511 132 c 0,24,25
 493 129 493 129 480 113.5 c 128,-1,26
 467 98 467 98 464 78 c 1,27,-1
 636 78 l 1,28,-1
 636 0 l 1,29,-1
 372 0 l 1,30,-1
 372 91 l 2,31,32
 372 144 372 144 416 176 c 0,33,34
 461 210 461 210 499 216 c 0,35,36
 539.5 222 539.5 222 547 234 c 0,37,38
 555 248 555 248 555 254 c 2,39,-1
 555 332 l 2,40,41
 555 359 555 359 529 359 c 2,10,-1
74 46 m 1,42,-1
 427 717 l 1,43,-1
 498 675 l 1,44,-1
 145 5 l 1,45,-1
 74 46 l 1,42,-1
EndSplineSet
EndChar

StartChar: threequarters
Encoding: 190 190 130
Width: 705
GlyphClass: 2
Flags: W
HStem: 1 20G 100 109 534 111 789 116 1025 108
VStem: 95 127 359 123 788 114
LayerCount: 2
Fore
SplineSet
249 756 m 2,0,-1
 176 756 l 2,1,2
 163 756 163 756 163 731 c 1,3,-1
 70 731 l 1,4,5
 73 804 73 804 124 827 c 0,6,7
 140 835 140 835 164 835 c 2,8,-1
 269 835 l 2,9,10
 307 835 307 835 331 810 c 128,-1,11
 355 785 355 785 355 747 c 2,12,-1
 355 663 l 2,13,14
 355 655 355 655 352 649 c 128,-1,15
 349 643 349 643 343.5 637 c 128,-1,16
 338 631 338 631 335 626 c 1,17,-1
 341 616 l 1,18,19
 355 603 355 603 355 588 c 2,20,-1
 355 486 l 2,21,22
 355 446 355 446 330 420 c 128,-1,23
 305 394 305 394 265 394 c 2,24,-1
 161 394 l 2,25,26
 70 394 70 394 70 499 c 1,27,-1
 164 499 l 1,28,29
 164 493 164 493 163.5 487.5 c 128,-1,30
 163 482 163 482 166 478.5 c 128,-1,31
 169 475 169 475 176 475 c 2,32,-1
 249 475 l 2,33,34
 265 475 265 475 265 490 c 2,35,-1
 265 566 l 2,36,37
 265 582 265 582 254 582 c 2,38,-1
 142 582 l 1,39,-1
 142 667 l 1,40,-1
 254 667 l 2,41,42
 265 667 265 667 265 682 c 2,43,-1
 265 739 l 2,44,45
 265 756 265 756 249 756 c 2,0,-1
665 154 m 1,46,-1
 702 154 l 1,47,-1
 702 74 l 1,48,-1
 665 74 l 1,49,-1
 665 0 l 1,50,-1
 583 0 l 1,51,-1
 582 74 l 1,52,-1
 424 74 l 2,53,54
 410 74 410 74 402 83 c 1,55,56
 393 91 393 91 393.5 101.5 c 128,-1,57
 394 112 394 112 404 136 c 0,58,59
 432 197 432 197 467 261 c 2,60,-1
 506 331 l 1,61,-1
 560 427 l 1,62,-1
 562 427 l 1,63,64
 571 438 571 438 585 438 c 2,65,-1
 635 438 l 2,66,67
 648 438 648 438 656.5 429.5 c 128,-1,68
 665 421 665 421 665 408 c 2,69,-1
 665 154 l 1,46,-1
192 46 m 1,70,-1
 545 717 l 1,71,-1
 616 675 l 1,72,-1
 263 5 l 1,73,-1
 192 46 l 1,70,-1
580 310 m 1,74,-1
 509 154 l 1,75,-1
 582 154 l 1,76,-1
 580 310 l 1,74,-1
EndSplineSet
EndChar

StartChar: questiondown
Encoding: 191 191 131
Width: 512
GlyphClass: 2
Flags: W
HStem: -25 133 890 243
VStem: 97 167 329 240 527 167
LayerCount: 2
Fore
SplineSet
419 745 m 128,-1,1
 419 703 419 703 395.5 679.5 c 128,-1,2
 372 656 372 656 330 656 c 128,-1,3
 288 656 288 656 265.5 679.5 c 128,-1,4
 243 703 243 703 243 745 c 0,5,6
 243 788 243 788 265.5 811.5 c 128,-1,7
 288 835 288 835 330 835 c 128,-1,8
 372 835 372 835 395.5 811 c 128,-1,0
 419 787 419 787 419 745 c 128,-1,1
265 79 m 2,9,-1
 320 79 l 2,10,11
 389 79 389 79 389 165 c 2,12,-1
 389 208 l 1,13,-1
 512 208 l 1,14,-1
 512 138 l 2,15,16
 512 68 512 68 456 24 c 1,17,18
 398 -18 398 -18 329 -18 c 2,19,-1
 250 -18 l 2,20,21
 175 -18 175 -18 124 24 c 0,22,23
 72 66 72 66 72 138 c 2,24,-1
 72 219 l 2,25,26
 72 304 72 304 125 360 c 0,27,28
 141 377 141 377 176 405.5 c 128,-1,29
 211 434 211 434 226 450 c 0,30,31
 280 507 280 507 280 583 c 0,32,33
 280 599.5 280 599.5 277 616 c 1,34,-1
 393 616 l 1,35,36
 403 513 403 513 381 470 c 1,37,38
 355 416 355 416 296 374 c 1,39,40
 195 306 195 306 195 207 c 2,41,-1
 195 154 l 2,42,43
 195 121 195 121 214 100 c 128,-1,44
 233 79 233 79 265 79 c 2,9,-1
EndSplineSet
EndChar

StartChar: Agrave
Encoding: 192 192 132
Width: 619
GlyphClass: 2
Flags: W
HStem: 0 56 293 86 929 15 1036 165
VStem: 74 197 89 999
LayerCount: 2
Fore
SplineSet
71 1165 m 1,0,-1
 211 1165 l 1,1,-1
 263 1005 l 1,2,-1
 204 1005 l 1,3,-1
 71 1165 l 1,0,-1
610 0 m 1,4,-1
 610 49 l 1,5,6
 612 49 612 49 626.5 48.5 c 128,-1,7
 641 48 641 48 650 48.5 c 128,-1,8
 659 49 659 49 671.5 51 c 128,-1,9
 684 53 684 53 690.5 59.5 c 128,-1,10
 697 66 697 66 697 76 c 0,11,12
 697 87 697 87 692 105.5 c 128,-1,13
 687 124 687 124 677 147 c 128,-1,14
 667 170 667 170 659.5 187.5 c 128,-1,15
 652 205 652 205 641 228 c 128,-1,16
 630 251 630 251 628 255 c 1,17,-1
 327 255 l 1,18,-1
 274 125 l 2,19,20
 264 101 264 101 264 85 c 0,21,22
 264 48 264 48 341.752 48.9756 c 0,23,24
 345 49 345 49 347 49 c 1,25,-1
 347 0 l 1,26,-1
 78 0 l 1,27,-1
 78 49 l 1,28,29
 104 49 104 49 123 57 c 128,-1,30
 142 65 142 65 156.5 83.5 c 128,-1,31
 171 102 171 102 178 116 c 128,-1,32
 185 130 185 130 198 160 c 2,33,-1
 488 824 l 1,34,-1
 530 824 l 1,35,-1
 838 144 l 1,36,37
 874 72 874 72 895 60 c 1,38,39
 908 51 908 51 949 48 c 1,40,-1
 949 0 l 1,41,-1
 610 0 l 1,4,-1
478 609 m 1,42,-1
 358 331 l 1,43,-1
 599 331 l 1,44,-1
 478 609 l 1,42,-1
EndSplineSet
EndChar

StartChar: Aacute
Encoding: 193 193 133
Width: 619
GlyphClass: 2
Flags: W
HStem: 0 56 293 86 929 15 1039 165
VStem: 89 999 429 198
LayerCount: 2
Fore
SplineSet
416 1008 m 1,0,-1
 468 1167 l 1,1,-1
 608 1167 l 1,2,-1
 476 1008 l 1,3,-1
 416 1008 l 1,0,-1
610 0 m 1,4,-1
 610 49 l 1,5,6
 612 49 612 49 626.5 48.5 c 128,-1,7
 641 48 641 48 650 48.5 c 128,-1,8
 659 49 659 49 671.5 51 c 128,-1,9
 684 53 684 53 690.5 59.5 c 128,-1,10
 697 66 697 66 697 76 c 0,11,12
 697 87 697 87 692 105.5 c 128,-1,13
 687 124 687 124 677 147 c 128,-1,14
 667 170 667 170 659.5 187.5 c 128,-1,15
 652 205 652 205 641 228 c 128,-1,16
 630 251 630 251 628 255 c 1,17,-1
 327 255 l 1,18,-1
 274 125 l 2,19,20
 264 101 264 101 264 85 c 0,21,22
 264 48 264 48 341.752 48.9756 c 0,23,24
 345 49 345 49 347 49 c 1,25,-1
 347 0 l 1,26,-1
 78 0 l 1,27,-1
 78 49 l 1,28,29
 104 49 104 49 123 57 c 128,-1,30
 142 65 142 65 156.5 83.5 c 128,-1,31
 171 102 171 102 178 116 c 128,-1,32
 185 130 185 130 198 160 c 2,33,-1
 488 824 l 1,34,-1
 530 824 l 1,35,-1
 838 144 l 1,36,37
 874 72 874 72 895 60 c 1,38,39
 908 51 908 51 949 48 c 1,40,-1
 949 0 l 1,41,-1
 610 0 l 1,4,-1
478 609 m 1,42,-1
 358 331 l 1,43,-1
 599 331 l 1,44,-1
 478 609 l 1,42,-1
EndSplineSet
EndChar

StartChar: Acircumflex
Encoding: 194 194 134
Width: 619
GlyphClass: 2
Flags: W
HStem: 0 56 293 86 929 15 1038 160
VStem: 89 999 172 339
LayerCount: 2
Fore
SplineSet
280 1162 m 1,0,-1
 389 1162 l 1,1,-1
 496 1007 l 1,2,-1
 420 1007 l 1,3,-1
 334 1078 l 1,4,-1
 251 1007 l 1,5,-1
 166 1007 l 1,6,-1
 280 1162 l 1,0,-1
610 0 m 1,7,-1
 610 49 l 1,8,9
 612 49 612 49 626.5 48.5 c 128,-1,10
 641 48 641 48 650 48.5 c 128,-1,11
 659 49 659 49 671.5 51 c 128,-1,12
 684 53 684 53 690.5 59.5 c 128,-1,13
 697 66 697 66 697 76 c 0,14,15
 697 87 697 87 692 105.5 c 128,-1,16
 687 124 687 124 677 147 c 128,-1,17
 667 170 667 170 659.5 187.5 c 128,-1,18
 652 205 652 205 641 228 c 128,-1,19
 630 251 630 251 628 255 c 1,20,-1
 327 255 l 1,21,-1
 274 125 l 2,22,23
 264 101 264 101 264 85 c 0,24,25
 264 48 264 48 341.752 48.9756 c 0,26,27
 345 49 345 49 347 49 c 1,28,-1
 347 0 l 1,29,-1
 78 0 l 1,30,-1
 78 49 l 1,31,32
 104 49 104 49 123 57 c 128,-1,33
 142 65 142 65 156.5 83.5 c 128,-1,34
 171 102 171 102 178 116 c 128,-1,35
 185 130 185 130 198 160 c 2,36,-1
 488 824 l 1,37,-1
 530 824 l 1,38,-1
 838 144 l 1,39,40
 874 72 874 72 895 60 c 1,41,42
 908 51 908 51 949 48 c 1,43,-1
 949 0 l 1,44,-1
 610 0 l 1,7,-1
478 609 m 1,45,-1
 358 331 l 1,46,-1
 599 331 l 1,47,-1
 478 609 l 1,45,-1
EndSplineSet
EndChar

StartChar: Atilde
Encoding: 195 195 135
Width: 619
GlyphClass: 2
Flags: W
HStem: 0 56 293 86 929 15 1036 89 1095 93
VStem: 89 999 160 402
LayerCount: 2
Fore
SplineSet
423 1091 m 0,0,1
 485 1091 485 1091 517 1138 c 1,2,-1
 546 1107 l 1,3,4
 519 1005 519 1005 401 1005 c 0,5,6
 378 1005 378 1005 353 1024 c 0,7,8
 332 1041 332 1041 311 1053 c 1,9,10
 298 1062 298 1062 273 1062 c 0,11,12
 249 1062 249 1062 223 1046.5 c 128,-1,13
 197 1031 197 1031 182 1006 c 1,14,-1
 155 1031 l 1,15,16
 158 1076 158 1076 192 1113 c 0,17,18
 228 1152 228 1152 271 1152 c 2,19,-1
 307 1152 l 2,20,21
 329 1152 329 1152 353 1131 c 0,22,23
 373 1114 373 1114 381.5 1107.5 c 128,-1,24
 390 1101 390 1101 401 1096 c 128,-1,25
 412 1091 412 1091 423 1091 c 0,0,1
610 0 m 1,26,-1
 610 49 l 1,27,28
 612 49 612 49 626.5 48.5 c 128,-1,29
 641 48 641 48 650 48.5 c 128,-1,30
 659 49 659 49 671.5 51 c 128,-1,31
 684 53 684 53 690.5 59.5 c 128,-1,32
 697 66 697 66 697 76 c 0,33,34
 697 87 697 87 692 105.5 c 128,-1,35
 687 124 687 124 677 147 c 128,-1,36
 667 170 667 170 659.5 187.5 c 128,-1,37
 652 205 652 205 641 228 c 128,-1,38
 630 251 630 251 628 255 c 1,39,-1
 327 255 l 1,40,-1
 274 125 l 2,41,42
 264 101 264 101 264 85 c 0,43,44
 264 48 264 48 341.752 48.9756 c 0,45,46
 345 49 345 49 347 49 c 1,47,-1
 347 0 l 1,48,-1
 78 0 l 1,49,-1
 78 49 l 1,50,51
 104 49 104 49 123 57 c 128,-1,52
 142 65 142 65 156.5 83.5 c 128,-1,53
 171 102 171 102 178 116 c 128,-1,54
 185 130 185 130 198 160 c 2,55,-1
 488 824 l 1,56,-1
 530 824 l 1,57,-1
 838 144 l 1,58,59
 874 72 874 72 895 60 c 1,60,61
 908 51 908 51 949 48 c 1,62,-1
 949 0 l 1,63,-1
 610 0 l 1,26,-1
478 609 m 1,64,-1
 358 331 l 1,65,-1
 599 331 l 1,66,-1
 478 609 l 1,64,-1
EndSplineSet
EndChar

StartChar: Adieresis
Encoding: 196 196 136
Width: 619
GlyphClass: 2
Flags: W
HStem: 0 56 293 86 929 15 1031 127
VStem: 89 999 163 127 391 127
LayerCount: 2
Fore
SplineSet
442 999 m 0,0,1
 407 999 407 999 393 1013.5 c 128,-1,2
 379 1028 379 1028 379 1062 c 128,-1,3
 379 1096 379 1096 393 1109.5 c 128,-1,4
 407 1123 407 1123 442 1123 c 0,5,6
 476 1123 476 1123 489.5 1109 c 128,-1,7
 503 1095 503 1095 503 1061 c 128,-1,8
 503 1027 503 1027 489.5 1013 c 128,-1,9
 476 999 476 999 442 999 c 0,0,1
220 999 m 0,10,11
 186 999 186 999 172 1013.5 c 128,-1,12
 158 1028 158 1028 158 1062 c 128,-1,13
 158 1096 158 1096 172 1109.5 c 128,-1,14
 186 1123 186 1123 220 1123 c 0,15,16
 255 1123 255 1123 268.5 1109 c 128,-1,17
 282 1095 282 1095 282 1061 c 128,-1,18
 282 1027 282 1027 268.5 1013 c 128,-1,19
 255 999 255 999 220 999 c 0,10,11
610 0 m 1,20,-1
 610 49 l 1,21,22
 612 49 612 49 626.5 48.5 c 128,-1,23
 641 48 641 48 650 48.5 c 128,-1,24
 659 49 659 49 671.5 51 c 128,-1,25
 684 53 684 53 690.5 59.5 c 128,-1,26
 697 66 697 66 697 76 c 0,27,28
 697 87 697 87 692 105.5 c 128,-1,29
 687 124 687 124 677 147 c 128,-1,30
 667 170 667 170 659.5 187.5 c 128,-1,31
 652 205 652 205 641 228 c 128,-1,32
 630 251 630 251 628 255 c 1,33,-1
 327 255 l 1,34,-1
 274 125 l 2,35,36
 264 101 264 101 264 85 c 0,37,38
 264 48 264 48 341.752 48.9756 c 0,39,40
 345 49 345 49 347 49 c 1,41,-1
 347 0 l 1,42,-1
 78 0 l 1,43,-1
 78 49 l 1,44,45
 104 49 104 49 123 57 c 128,-1,46
 142 65 142 65 156.5 83.5 c 128,-1,47
 171 102 171 102 178 116 c 128,-1,48
 185 130 185 130 198 160 c 2,49,-1
 488 824 l 1,50,-1
 530 824 l 1,51,-1
 838 144 l 1,52,53
 874 72 874 72 895 60 c 1,54,55
 908 51 908 51 949 48 c 1,56,-1
 949 0 l 1,57,-1
 610 0 l 1,20,-1
478 609 m 1,58,-1
 358 331 l 1,59,-1
 599 331 l 1,60,-1
 478 609 l 1,58,-1
EndSplineSet
EndChar

StartChar: Aring
Encoding: 197 197 137
Width: 619
GlyphClass: 2
Flags: W
HStem: 0 56 293 86 929 15 1038 31 1180 31
VStem: 89 999 253 30 394 30
LayerCount: 2
Fore
SplineSet
330 1174 m 0,0,1
 411 1174 411 1174 411 1091 c 0,2,3
 411 1007 411 1007 330 1007 c 0,4,5
 290 1007 290 1007 267.5 1029 c 128,-1,6
 245 1051 245 1051 245 1091 c 128,-1,7
 245 1131 245 1131 267.5 1152.5 c 128,-1,8
 290 1174 290 1174 330 1174 c 0,0,1
275 1091 m 128,-1,10
 275 1037 275 1037 328 1037 c 0,11,12
 382 1037 382 1037 382 1091 c 128,-1,13
 382 1145 382 1145 328 1145 c 0,14,9
 275 1145 275 1145 275 1091 c 128,-1,10
610 0 m 1,15,-1
 610 49 l 1,16,17
 612 49 612 49 626.5 48.5 c 128,-1,18
 641 48 641 48 650 48.5 c 128,-1,19
 659 49 659 49 671.5 51 c 128,-1,20
 684 53 684 53 690.5 59.5 c 128,-1,21
 697 66 697 66 697 76 c 0,22,23
 697 87 697 87 692 105.5 c 128,-1,24
 687 124 687 124 677 147 c 128,-1,25
 667 170 667 170 659.5 187.5 c 128,-1,26
 652 205 652 205 641 228 c 128,-1,27
 630 251 630 251 628 255 c 1,28,-1
 327 255 l 1,29,-1
 274 125 l 2,30,31
 264 101 264 101 264 85 c 0,32,33
 264 48 264 48 341.752 48.9756 c 0,34,35
 345 49 345 49 347 49 c 1,36,-1
 347 0 l 1,37,-1
 78 0 l 1,38,-1
 78 49 l 1,39,40
 104 49 104 49 123 57 c 128,-1,41
 142 65 142 65 156.5 83.5 c 128,-1,42
 171 102 171 102 178 116 c 128,-1,43
 185 130 185 130 198 160 c 2,44,-1
 488 824 l 1,45,-1
 530 824 l 1,46,-1
 838 144 l 1,47,48
 874 72 874 72 895 60 c 1,49,50
 908 51 908 51 949 48 c 1,51,-1
 949 0 l 1,52,-1
 610 0 l 1,15,-1
478 609 m 1,53,-1
 358 331 l 1,54,-1
 599 331 l 1,55,-1
 478 609 l 1,53,-1
EndSplineSet
EndChar

StartChar: AE
Encoding: 198 198 138
Width: 972
GlyphClass: 2
Flags: W
HStem: 0 156 524 154 574 154 1123 158
VStem: 657 182
LayerCount: 2
Fore
SplineSet
552 909 m 1,0,1
 602 944 602 944 664 944 c 2,2,-1
 960 944 l 1,3,-1
 960 828 l 1,4,-1
 673 828 l 2,5,6
 651 828 651 828 635 813.5 c 128,-1,7
 619 799 619 799 619 777 c 2,8,-1
 619 537 l 1,9,-1
 930 537 l 1,10,-1
 930 423 l 1,11,-1
 619 423 l 1,12,-1
 619 115 l 1,13,-1
 967 115 l 1,14,-1
 967 0 l 1,15,-1
 485 0 l 1,16,-1
 485 153 l 1,17,-1
 484 154 l 1,18,-1
 484 386 l 1,19,-1
 250 386 l 1,20,-1
 205 0 l 1,21,-1
 72 0 l 1,22,-1
 160 789 l 2,23,24
 168 856 168 856 220 899 c 1,25,26
 271 944 271 944 340 944 c 2,27,-1
 443 944 l 2,28,29
 504 944 504 944 552 909 c 1,0,1
293 764 m 2,30,-1
 262 500 l 1,31,-1
 484 500 l 1,32,-1
 484 776 l 2,33,34
 484 811 484 811 448 824 c 1,35,36
 440 828 440 828 427 828 c 2,37,-1
 349 828 l 2,38,39
 300 828 300 828 293 764 c 2,30,-1
EndSplineSet
EndChar

StartChar: Ccedilla
Encoding: 199 199 139
Width: 581
GlyphClass: 2
Flags: W
HStem: -303 80 0 156 1123 158
VStem: 97 181 540 138 608 181
LayerCount: 2
Fore
SplineSet
397 0 m 1,0,-1
 377 -39 l 1,1,2
 500 -60 500 -60 500 -129 c 0,3,4
 500 -173 500 -173 461 -198 c 0,5,6
 423 -223 423 -223 373 -223 c 0,7,8
 326 -223 326 -223 286 -203 c 0,9,10
 248 -184 248 -184 248 -142 c 0,11,12
 248 -129 248 -129 251 -123 c 1,13,-1
 299 -133 l 1,14,15
 296 -162 296 -162 351 -164 c 0,16,17
 381 -165 381 -165 394 -134 c 128,-1,18
 407 -103 407 -103 383 -89 c 0,19,20
 370 -81 370 -81 350.5 -76 c 128,-1,21
 331 -71 331 -71 306.5 -67.5 c 128,-1,22
 282 -64 282 -64 278 -63 c 1,23,-1
 324 0 l 1,24,-1
 251 0 l 2,25,26
 182 0 182 0 127 43 c 1,27,28
 72 88 72 88 72 154 c 2,29,-1
 72 789 l 2,30,31
 72 857 72 857 128 900 c 1,32,33
 182 944 182 944 251 944 c 2,34,-1
 421 944 l 2,35,36
 488 944 488 944 534 899 c 0,37,38
 582 853 582 853 582 789 c 2,39,-1
 582 721 l 1,40,-1
 448 721 l 1,41,-1
 448 756 l 2,42,43
 448 828 448 828 390 828 c 2,44,-1
 260 828 l 2,45,46
 233 828 233 828 219 810.5 c 128,-1,47
 205 793 205 793 205 764 c 2,48,-1
 205 178 l 2,49,50
 205 150 205 150 219 132.5 c 128,-1,51
 233 115 233 115 260 115 c 2,52,-1
 390 115 l 2,53,54
 448 115 448 115 448 181 c 2,55,-1
 448 215 l 1,56,-1
 582 215 l 1,57,-1
 582 154 l 2,58,59
 582 77 582 77 529 38 c 1,60,61
 474 0 474 0 397 0 c 1,0,-1
EndSplineSet
EndChar

StartChar: Egrave
Encoding: 200 200 140
Width: 570
GlyphClass: 2
Flags: W
HStem: 0 55 0 81 443 87 845 82 869 57 1036 165
VStem: 74 197 192 174 706 62
LayerCount: 2
Fore
SplineSet
71 1165 m 1,0,-1
 211 1165 l 1,1,-1
 263 1005 l 1,2,-1
 204 1005 l 1,3,-1
 71 1165 l 1,0,-1
746 227 m 1,4,-1
 807 227 l 1,5,-1
 745 0 l 1,6,-1
 61 0 l 1,7,-1
 61 48 l 1,8,9
 85 50 85 50 91.5 51 c 128,-1,10
 98 52 98 52 114.5 54.5 c 128,-1,11
 131 57 131 57 135 60.5 c 128,-1,12
 139 64 139 64 148.5 70.5 c 128,-1,13
 158 77 158 77 160 87 c 128,-1,14
 162 97 162 97 164.5 110.5 c 128,-1,15
 167 124 167 124 167 143 c 2,16,-1
 167 667 l 2,17,18
 167 699 167 699 163.5 716.5 c 128,-1,19
 160 734 160 734 143.5 743.5 c 128,-1,20
 127 753 127 753 116.5 754.5 c 128,-1,21
 106 756 106 756 68.5381 759.441 c 0,22,23
 64 760 64 760 61 760 c 1,24,-1
 61 809 l 1,25,-1
 737 809 l 1,26,-1
 741 613 l 1,27,-1
 686 613 l 1,28,29
 668 697 668 697 637.5 717.5 c 128,-1,30
 607 738 607 738 518 738 c 2,31,-1
 347 738 l 2,32,33
 328 738 328 738 324 733.5 c 128,-1,34
 320 729 320 729 320 711 c 2,35,-1
 320 462 l 1,36,-1
 494 462 l 2,37,38
 530 462 530 462 550.5 466.5 c 128,-1,39
 571 471 571 471 584.5 485.5 c 128,-1,40
 598 500 598 500 603.5 518.5 c 128,-1,41
 609 537 609 537 616 574 c 1,42,-1
 670 574 l 1,43,-1
 670 274 l 1,44,-1
 616 274 l 1,45,46
 605 345 605 345 584.5 366 c 128,-1,47
 564 387 564 387 494 387 c 2,48,-1
 320 387 l 1,49,-1
 320 108 l 2,50,51
 320 87 320 87 328 81 c 0,52,53
 340 71 340 71 440 71 c 0,54,55
 478 71 478 71 496 71.5 c 128,-1,56
 514 72 514 72 543.5 73.5 c 128,-1,57
 573 75 573 75 587.5 79 c 128,-1,58
 602 83 602 83 624 90.5 c 128,-1,59
 646 98 646 98 659 109 c 128,-1,60
 672 120 672 120 689 136.5 c 128,-1,61
 706 153 706 153 719 175.5 c 128,-1,62
 732 198 732 198 746 227 c 1,4,-1
EndSplineSet
EndChar

StartChar: Eacute
Encoding: 201 201 141
Width: 570
GlyphClass: 2
Flags: W
HStem: 0 55 0 81 443 87 845 82 869 57 1039 165
VStem: 192 174 385 197 706 62
LayerCount: 2
Fore
SplineSet
373 1008 m 1,0,-1
 425 1167 l 1,1,-1
 565 1167 l 1,2,-1
 432 1008 l 1,3,-1
 373 1008 l 1,0,-1
746 227 m 1,4,-1
 807 227 l 1,5,-1
 745 0 l 1,6,-1
 61 0 l 1,7,-1
 61 48 l 1,8,9
 85 50 85 50 91.5 51 c 128,-1,10
 98 52 98 52 114.5 54.5 c 128,-1,11
 131 57 131 57 135 60.5 c 128,-1,12
 139 64 139 64 148.5 70.5 c 128,-1,13
 158 77 158 77 160 87 c 128,-1,14
 162 97 162 97 164.5 110.5 c 128,-1,15
 167 124 167 124 167 143 c 2,16,-1
 167 667 l 2,17,18
 167 699 167 699 163.5 716.5 c 128,-1,19
 160 734 160 734 143.5 743.5 c 128,-1,20
 127 753 127 753 116.5 754.5 c 128,-1,21
 106 756 106 756 68.5381 759.441 c 0,22,23
 64 760 64 760 61 760 c 1,24,-1
 61 809 l 1,25,-1
 737 809 l 1,26,-1
 741 613 l 1,27,-1
 686 613 l 1,28,29
 668 697 668 697 637.5 717.5 c 128,-1,30
 607 738 607 738 518 738 c 2,31,-1
 347 738 l 2,32,33
 328 738 328 738 324 733.5 c 128,-1,34
 320 729 320 729 320 711 c 2,35,-1
 320 462 l 1,36,-1
 494 462 l 2,37,38
 530 462 530 462 550.5 466.5 c 128,-1,39
 571 471 571 471 584.5 485.5 c 128,-1,40
 598 500 598 500 603.5 518.5 c 128,-1,41
 609 537 609 537 616 574 c 1,42,-1
 670 574 l 1,43,-1
 670 274 l 1,44,-1
 616 274 l 1,45,46
 605 345 605 345 584.5 366 c 128,-1,47
 564 387 564 387 494 387 c 2,48,-1
 320 387 l 1,49,-1
 320 108 l 2,50,51
 320 87 320 87 328 81 c 0,52,53
 340 71 340 71 440 71 c 0,54,55
 478 71 478 71 496 71.5 c 128,-1,56
 514 72 514 72 543.5 73.5 c 128,-1,57
 573 75 573 75 587.5 79 c 128,-1,58
 602 83 602 83 624 90.5 c 128,-1,59
 646 98 646 98 659 109 c 128,-1,60
 672 120 672 120 689 136.5 c 128,-1,61
 706 153 706 153 719 175.5 c 128,-1,62
 732 198 732 198 746 227 c 1,4,-1
EndSplineSet
EndChar

StartChar: Ecircumflex
Encoding: 202 202 142
Width: 570
GlyphClass: 2
Flags: W
HStem: 0 55 0 81 443 87 845 82 869 57 1038 160
VStem: 172 339 192 174 706 62
LayerCount: 2
Fore
SplineSet
280 1162 m 1,0,-1
 389 1162 l 1,1,-1
 496 1007 l 1,2,-1
 420 1007 l 1,3,-1
 334 1078 l 1,4,-1
 251 1007 l 1,5,-1
 166 1007 l 1,6,-1
 280 1162 l 1,0,-1
746 227 m 1,7,-1
 807 227 l 1,8,-1
 745 0 l 1,9,-1
 61 0 l 1,10,-1
 61 48 l 1,11,12
 85 50 85 50 91.5 51 c 128,-1,13
 98 52 98 52 114.5 54.5 c 128,-1,14
 131 57 131 57 135 60.5 c 128,-1,15
 139 64 139 64 148.5 70.5 c 128,-1,16
 158 77 158 77 160 87 c 128,-1,17
 162 97 162 97 164.5 110.5 c 128,-1,18
 167 124 167 124 167 143 c 2,19,-1
 167 667 l 2,20,21
 167 699 167 699 163.5 716.5 c 128,-1,22
 160 734 160 734 143.5 743.5 c 128,-1,23
 127 753 127 753 116.5 754.5 c 128,-1,24
 106 756 106 756 68.5381 759.441 c 0,25,26
 64 760 64 760 61 760 c 1,27,-1
 61 809 l 1,28,-1
 737 809 l 1,29,-1
 741 613 l 1,30,-1
 686 613 l 1,31,32
 668 697 668 697 637.5 717.5 c 128,-1,33
 607 738 607 738 518 738 c 2,34,-1
 347 738 l 2,35,36
 328 738 328 738 324 733.5 c 128,-1,37
 320 729 320 729 320 711 c 2,38,-1
 320 462 l 1,39,-1
 494 462 l 2,40,41
 530 462 530 462 550.5 466.5 c 128,-1,42
 571 471 571 471 584.5 485.5 c 128,-1,43
 598 500 598 500 603.5 518.5 c 128,-1,44
 609 537 609 537 616 574 c 1,45,-1
 670 574 l 1,46,-1
 670 274 l 1,47,-1
 616 274 l 1,48,49
 605 345 605 345 584.5 366 c 128,-1,50
 564 387 564 387 494 387 c 2,51,-1
 320 387 l 1,52,-1
 320 108 l 2,53,54
 320 87 320 87 328 81 c 0,55,56
 340 71 340 71 440 71 c 0,57,58
 478 71 478 71 496 71.5 c 128,-1,59
 514 72 514 72 543.5 73.5 c 128,-1,60
 573 75 573 75 587.5 79 c 128,-1,61
 602 83 602 83 624 90.5 c 128,-1,62
 646 98 646 98 659 109 c 128,-1,63
 672 120 672 120 689 136.5 c 128,-1,64
 706 153 706 153 719 175.5 c 128,-1,65
 732 198 732 198 746 227 c 1,7,-1
EndSplineSet
EndChar

StartChar: Edieresis
Encoding: 203 203 143
Width: 570
GlyphClass: 2
Flags: W
HStem: 0 55 0 81 443 87 845 82 869 57 1031 127
VStem: 163 127 192 174 391 127 706 62
LayerCount: 2
Fore
SplineSet
442 999 m 0,0,1
 407 999 407 999 393 1013.5 c 128,-1,2
 379 1028 379 1028 379 1062 c 128,-1,3
 379 1096 379 1096 393 1109.5 c 128,-1,4
 407 1123 407 1123 442 1123 c 0,5,6
 476 1123 476 1123 489.5 1109 c 128,-1,7
 503 1095 503 1095 503 1061 c 128,-1,8
 503 1027 503 1027 489.5 1013 c 128,-1,9
 476 999 476 999 442 999 c 0,0,1
220 999 m 0,10,11
 186 999 186 999 172 1013.5 c 128,-1,12
 158 1028 158 1028 158 1062 c 128,-1,13
 158 1096 158 1096 172 1109.5 c 128,-1,14
 186 1123 186 1123 220 1123 c 0,15,16
 255 1123 255 1123 268.5 1109 c 128,-1,17
 282 1095 282 1095 282 1061 c 128,-1,18
 282 1027 282 1027 268.5 1013 c 128,-1,19
 255 999 255 999 220 999 c 0,10,11
746 227 m 1,20,-1
 807 227 l 1,21,-1
 745 0 l 1,22,-1
 61 0 l 1,23,-1
 61 48 l 1,24,25
 85 50 85 50 91.5 51 c 128,-1,26
 98 52 98 52 114.5 54.5 c 128,-1,27
 131 57 131 57 135 60.5 c 128,-1,28
 139 64 139 64 148.5 70.5 c 128,-1,29
 158 77 158 77 160 87 c 128,-1,30
 162 97 162 97 164.5 110.5 c 128,-1,31
 167 124 167 124 167 143 c 2,32,-1
 167 667 l 2,33,34
 167 699 167 699 163.5 716.5 c 128,-1,35
 160 734 160 734 143.5 743.5 c 128,-1,36
 127 753 127 753 116.5 754.5 c 128,-1,37
 106 756 106 756 68.5381 759.441 c 0,38,39
 64 760 64 760 61 760 c 1,40,-1
 61 809 l 1,41,-1
 737 809 l 1,42,-1
 741 613 l 1,43,-1
 686 613 l 1,44,45
 668 697 668 697 637.5 717.5 c 128,-1,46
 607 738 607 738 518 738 c 2,47,-1
 347 738 l 2,48,49
 328 738 328 738 324 733.5 c 128,-1,50
 320 729 320 729 320 711 c 2,51,-1
 320 462 l 1,52,-1
 494 462 l 2,53,54
 530 462 530 462 550.5 466.5 c 128,-1,55
 571 471 571 471 584.5 485.5 c 128,-1,56
 598 500 598 500 603.5 518.5 c 128,-1,57
 609 537 609 537 616 574 c 1,58,-1
 670 574 l 1,59,-1
 670 274 l 1,60,-1
 616 274 l 1,61,62
 605 345 605 345 584.5 366 c 128,-1,63
 564 387 564 387 494 387 c 2,64,-1
 320 387 l 1,65,-1
 320 108 l 2,66,67
 320 87 320 87 328 81 c 0,68,69
 340 71 340 71 440 71 c 0,70,71
 478 71 478 71 496 71.5 c 128,-1,72
 514 72 514 72 543.5 73.5 c 128,-1,73
 573 75 573 75 587.5 79 c 128,-1,74
 602 83 602 83 624 90.5 c 128,-1,75
 646 98 646 98 659 109 c 128,-1,76
 672 120 672 120 689 136.5 c 128,-1,77
 706 153 706 153 719 175.5 c 128,-1,78
 732 198 732 198 746 227 c 1,20,-1
EndSplineSet
EndChar

StartChar: Igrave
Encoding: 204 204 144
Width: 207
GlyphClass: 2
Flags: W
HStem: 0 57 871 56 1031 165
VStem: 16 198 230 173
LayerCount: 2
Fore
SplineSet
15 1161 m 1,0,-1
 156 1161 l 1,1,-1
 207 1000 l 1,2,-1
 148 1000 l 1,3,-1
 15 1161 l 1,0,-1
472 49 m 1,4,-1
 472 0 l 1,5,-1
 81 0 l 1,6,-1
 81 49 l 1,7,8
 88 49 88 49 103.5 50 c 128,-1,9
 119 51 119 51 124 51 c 128,-1,10
 129 51 129 51 141.5 52.5 c 128,-1,11
 154 54 154 54 158 55.5 c 128,-1,12
 162 57 162 57 170.5 60.5 c 128,-1,13
 179 64 179 64 182 68.5 c 128,-1,14
 185 73 185 73 190 80 c 128,-1,15
 195 87 195 87 196.5 96 c 128,-1,16
 198 105 198 105 199.5 116.5 c 128,-1,17
 201 128 201 128 201 143 c 2,18,-1
 201 667 l 2,19,20
 201 688 201 688 199 703 c 128,-1,21
 197 718 197 718 190.5 727.5 c 128,-1,22
 184 737 184 737 179 743 c 128,-1,23
 174 749 174 749 160.5 752 c 128,-1,24
 147 755 147 755 139 756 c 128,-1,25
 131 757 131 757 111 758 c 128,-1,26
 91 759 91 759 81 760 c 1,27,-1
 81 809 l 1,28,-1
 472 809 l 1,29,-1
 472 760 l 1,30,31
 402.544 758.242 402.544 758.242 384.42 749.087 c 0,32,33
 352 732.711 352 732.711 352 667 c 2,34,-1
 352 143 l 2,35,36
 352 110 352 110 359 91 c 128,-1,37
 366 72 366 72 381.5 63.5 c 128,-1,38
 397 55 397 55 415 52.5 c 128,-1,39
 433 50 433 50 461.572 49.3959 c 0,40,41
 468 49 468 49 472 49 c 1,4,-1
EndSplineSet
EndChar

StartChar: Iacute
Encoding: 205 205 145
Width: 262
GlyphClass: 2
Flags: W
HStem: 0 57 871 56 1037 165
VStem: 72 198 230 173
LayerCount: 2
Fore
SplineSet
70 1006 m 1,0,-1
 122 1167 l 1,1,-1
 261 1167 l 1,2,-1
 129 1006 l 1,3,-1
 70 1006 l 1,0,-1
472 49 m 1,4,-1
 472 0 l 1,5,-1
 81 0 l 1,6,-1
 81 49 l 1,7,8
 88 49 88 49 103.5 50 c 128,-1,9
 119 51 119 51 124 51 c 128,-1,10
 129 51 129 51 141.5 52.5 c 128,-1,11
 154 54 154 54 158 55.5 c 128,-1,12
 162 57 162 57 170.5 60.5 c 128,-1,13
 179 64 179 64 182 68.5 c 128,-1,14
 185 73 185 73 190 80 c 128,-1,15
 195 87 195 87 196.5 96 c 128,-1,16
 198 105 198 105 199.5 116.5 c 128,-1,17
 201 128 201 128 201 143 c 2,18,-1
 201 667 l 2,19,20
 201 688 201 688 199 703 c 128,-1,21
 197 718 197 718 190.5 727.5 c 128,-1,22
 184 737 184 737 179 743 c 128,-1,23
 174 749 174 749 160.5 752 c 128,-1,24
 147 755 147 755 139 756 c 128,-1,25
 131 757 131 757 111 758 c 128,-1,26
 91 759 91 759 81 760 c 1,27,-1
 81 809 l 1,28,-1
 472 809 l 1,29,-1
 472 760 l 1,30,31
 402.544 758.242 402.544 758.242 384.42 749.087 c 0,32,33
 352 732.711 352 732.711 352 667 c 2,34,-1
 352 143 l 2,35,36
 352 110 352 110 359 91 c 128,-1,37
 366 72 366 72 381.5 63.5 c 128,-1,38
 397 55 397 55 415 52.5 c 128,-1,39
 433 50 433 50 461.572 49.3959 c 0,40,41
 468 49 468 49 472 49 c 1,4,-1
EndSplineSet
EndChar

StartChar: Icircumflex
Encoding: 206 206 146
Width: 329
GlyphClass: 2
Flags: W
HStem: 0 57 871 56 1039 160
VStem: 0 339 252 173
LayerCount: 2
Fore
SplineSet
113 1163 m 1,0,-1
 223 1163 l 1,1,-1
 329 1008 l 1,2,-1
 253 1008 l 1,3,-1
 168 1079 l 1,4,-1
 84 1008 l 1,5,-1
 0 1008 l 1,6,-1
 113 1163 l 1,0,-1
494 49 m 1,7,-1
 494 0 l 1,8,-1
 103 0 l 1,9,-1
 103 49 l 1,10,11
 110 49 110 49 125.5 50 c 128,-1,12
 141 51 141 51 146 51 c 128,-1,13
 151 51 151 51 163.5 52.5 c 128,-1,14
 176 54 176 54 180 55.5 c 128,-1,15
 184 57 184 57 192.5 60.5 c 128,-1,16
 201 64 201 64 204 68.5 c 128,-1,17
 207 73 207 73 212 80 c 128,-1,18
 217 87 217 87 218.5 96 c 128,-1,19
 220 105 220 105 221.5 116.5 c 128,-1,20
 223 128 223 128 223 143 c 2,21,-1
 223 667 l 2,22,23
 223 688 223 688 221 703 c 128,-1,24
 219 718 219 718 212.5 727.5 c 128,-1,25
 206 737 206 737 201 743 c 128,-1,26
 196 749 196 749 182.5 752 c 128,-1,27
 169 755 169 755 161 756 c 128,-1,28
 153 757 153 757 133 758 c 128,-1,29
 113 759 113 759 103 760 c 1,30,-1
 103 809 l 1,31,-1
 494 809 l 1,32,-1
 494 760 l 1,33,34
 424.544 758.242 424.544 758.242 406.42 749.087 c 0,35,36
 374 732.711 374 732.711 374 667 c 2,37,-1
 374 143 l 2,38,39
 374 110 374 110 381 91 c 128,-1,40
 388 72 388 72 403.5 63.5 c 128,-1,41
 419 55 419 55 437 52.5 c 128,-1,42
 455 50 455 50 483.572 49.3959 c 0,43,44
 490 49 490 49 494 49 c 1,7,-1
EndSplineSet
EndChar

StartChar: Idieresis
Encoding: 207 207 147
Width: 330
GlyphClass: 2
Flags: W
HStem: 0 57 871 56 1042 128
VStem: 0 128 213 127 257 173
LayerCount: 2
Fore
SplineSet
269 1011 m 128,-1,1
 235 1011 235 1011 221 1025 c 128,-1,2
 207 1039 207 1039 207 1072 c 0,3,4
 207 1107 207 1107 221 1121 c 128,-1,5
 235 1135 235 1135 269 1135 c 128,-1,6
 303 1135 303 1135 317 1120.5 c 128,-1,7
 331 1106 331 1106 331 1072 c 0,8,9
 331 1039 331 1039 317 1025 c 128,-1,0
 303 1011 303 1011 269 1011 c 128,-1,1
62 1011 m 0,10,11
 28 1011 28 1011 14 1025 c 128,-1,12
 0 1039 0 1039 0 1072 c 0,13,14
 0 1107 0 1107 14 1121 c 128,-1,15
 28 1135 28 1135 62 1135 c 0,16,17
 97 1135 97 1135 110.5 1120.5 c 128,-1,18
 124 1106 124 1106 124 1072 c 0,19,20
 124 1039 124 1039 110.5 1025 c 128,-1,21
 97 1011 97 1011 62 1011 c 0,10,11
499 49 m 1,22,-1
 499 0 l 1,23,-1
 108 0 l 1,24,-1
 108 49 l 1,25,26
 115 49 115 49 130.5 50 c 128,-1,27
 146 51 146 51 151 51 c 128,-1,28
 156 51 156 51 168.5 52.5 c 128,-1,29
 181 54 181 54 185 55.5 c 128,-1,30
 189 57 189 57 197.5 60.5 c 128,-1,31
 206 64 206 64 209 68.5 c 128,-1,32
 212 73 212 73 217 80 c 128,-1,33
 222 87 222 87 223.5 96 c 128,-1,34
 225 105 225 105 226.5 116.5 c 128,-1,35
 228 128 228 128 228 143 c 2,36,-1
 228 667 l 2,37,38
 228 688 228 688 226 703 c 128,-1,39
 224 718 224 718 217.5 727.5 c 128,-1,40
 211 737 211 737 206 743 c 128,-1,41
 201 749 201 749 187.5 752 c 128,-1,42
 174 755 174 755 166 756 c 128,-1,43
 158 757 158 757 138 758 c 128,-1,44
 118 759 118 759 108 760 c 1,45,-1
 108 809 l 1,46,-1
 499 809 l 1,47,-1
 499 760 l 1,48,49
 429.544 758.242 429.544 758.242 411.42 749.087 c 0,50,51
 379 732.711 379 732.711 379 667 c 2,52,-1
 379 143 l 2,53,54
 379 110 379 110 386 91 c 128,-1,55
 393 72 393 72 408.5 63.5 c 128,-1,56
 424 55 424 55 442 52.5 c 128,-1,57
 460 50 460 50 488.572 49.3959 c 0,58,59
 495 49 495 49 499 49 c 1,22,-1
EndSplineSet
EndChar

StartChar: Eth
Encoding: 208 208 148
Width: 682
GlyphClass: 2
Flags: W
HStem: 0 157 526 153 1123 155
VStem: 187 182 738 181
LayerCount: 2
Fore
SplineSet
677 774 m 2,0,-1
 677 147 l 2,1,2
 677 82 677 82 638 41 c 0,3,4
 598 0 598 0 532 0 c 2,5,-1
 138 0 l 1,6,-1
 138 388 l 1,7,-1
 66 388 l 1,8,-1
 66 501 l 1,9,-1
 138 501 l 1,10,-1
 138 942 l 1,11,-1
 502 942 l 2,12,13
 574 942 574 942 626 894 c 1,14,15
 677 849 677 849 677 774 c 2,0,-1
544 179 m 2,16,-1
 544 750 l 2,17,18
 544 801 544 801 506 821 c 1,19,20
 495 828 495 828 478 828 c 2,21,-1
 272 828 l 1,22,-1
 272 501 l 1,23,-1
 408 501 l 1,24,-1
 408 388 l 1,25,-1
 272 388 l 1,26,-1
 272 116 l 1,27,-1
 501 116 l 2,28,29
 539 116 539 116 543 156 c 0,30,31
 543 160 543 160 543.5 167.5 c 128,-1,32
 544 175 544 175 544 179 c 2,16,-1
EndSplineSet
EndChar

StartChar: Ntilde
Encoding: 209 209 149
Width: 639
GlyphClass: 2
Flags: W
HStem: -14 16 0 55 871 56 1095 93
VStem: 160 402 214 93 856 93
LayerCount: 2
Fore
SplineSet
423 1091 m 0,0,1
 485 1091 485 1091 517 1138 c 1,2,-1
 546 1107 l 1,3,4
 519 1005 519 1005 401 1005 c 0,5,6
 378 1005 378 1005 353 1024 c 0,7,8
 332 1041 332 1041 311 1053 c 1,9,10
 298 1062 298 1062 273 1062 c 0,11,12
 249 1062 249 1062 223 1046.5 c 128,-1,13
 197 1031 197 1031 182 1006 c 1,14,-1
 155 1031 l 1,15,16
 158 1076 158 1076 192 1114 c 0,17,18
 227 1152 227 1152 271 1152 c 2,19,-1
 307 1152 l 2,20,21
 329 1152 329 1152 353 1131 c 0,22,23
 373 1114 373 1114 381.5 1107.5 c 128,-1,24
 390 1101 390 1101 401 1096 c 128,-1,25
 412 1091 412 1091 423 1091 c 0,0,1
629 809 m 1,26,-1
 944 809 l 1,27,-1
 944 761 l 1,28,29
 941 761 941 761 927.5 759.5 c 128,-1,30
 914 758 914 758 906.5 757 c 128,-1,31
 899 756 899 756 887.5 753.5 c 128,-1,32
 876 751 876 751 868 747 c 128,-1,33
 860 743 860 743 854 738 c 0,34,35
 828 711 828 711 828 622 c 2,36,-1
 828 -12 l 1,37,-1
 786 -12 l 1,38,-1
 268 613 l 1,39,-1
 268 175 l 2,40,41
 268 98 268 98 287.5 75.5 c 128,-1,42
 307 53 307 53 383 48 c 1,43,-1
 383 0 l 1,44,-1
 68 0 l 1,45,-1
 68 47 l 1,46,47
 147 55 147 55 166.5 80 c 128,-1,48
 186 105 186 105 186 188 c 2,49,-1
 186 703 l 1,50,51
 157 736 157 736 133.5 748 c 128,-1,52
 110 760 110 760 68 760 c 1,53,-1
 68 809 l 1,54,-1
 296 809 l 1,55,-1
 747 262 l 1,56,-1
 747 622 l 2,57,58
 747 704 747 704 727.5 730 c 128,-1,59
 708 756 708 756 629 760 c 1,60,-1
 629 809 l 1,26,-1
EndSplineSet
EndChar

StartChar: Ograve
Encoding: 210 210 150
Width: 604
GlyphClass: 2
Flags: W
HStem: -17 79 866 81 1036 165
VStem: 74 197 93 192 849 191
LayerCount: 2
Fore
SplineSet
71 1165 m 1,0,-1
 211 1165 l 1,1,-1
 263 1005 l 1,2,-1
 204 1005 l 1,3,-1
 71 1165 l 1,0,-1
908 401 m 0,4,5
 908 216 908 216 791.5 100.5 c 128,-1,6
 675 -15 675 -15 489 -15 c 0,7,8
 306 -15 306 -15 193.5 103.5 c 128,-1,9
 81 222 81 222 81 406 c 0,10,11
 81 591 81 591 196.5 709 c 128,-1,12
 312 827 312 827 496 827 c 0,13,14
 682 827 682 827 795 707.5 c 128,-1,15
 908 588 908 588 908 401 c 0,4,5
495 756 m 0,16,17
 324 756 324 756 269 565 c 0,18,19
 249 497 249 497 249 429 c 0,20,21
 249 357 249 357 253 322 c 0,22,23
 260 267 260 267 276.5 221.5 c 128,-1,24
 293 176 293 176 320.5 136.5 c 128,-1,25
 348 97 348 97 392 75 c 128,-1,26
 436 53 436 53 492 53 c 0,27,28
 661 53 661 53 718 242 c 1,29,30
 741 309 741 309 741 378 c 0,31,32
 741 433 741 433 735.5 481.5 c 128,-1,33
 730 530 730 530 713.5 582 c 128,-1,34
 697 634 697 634 671 671 c 128,-1,35
 645 708 645 708 600 732 c 128,-1,36
 555 756 555 756 495 756 c 0,16,17
EndSplineSet
EndChar

StartChar: Oacute
Encoding: 211 211 151
Width: 604
GlyphClass: 2
Flags: W
HStem: -17 79 866 81 1039 165
VStem: 93 192 416 197 849 191
LayerCount: 2
Fore
SplineSet
404 1008 m 1,0,-1
 454 1167 l 1,1,-1
 595 1167 l 1,2,-1
 462 1008 l 1,3,-1
 404 1008 l 1,0,-1
908 401 m 0,4,5
 908 216 908 216 791.5 100.5 c 128,-1,6
 675 -15 675 -15 489 -15 c 0,7,8
 306 -15 306 -15 193.5 103.5 c 128,-1,9
 81 222 81 222 81 406 c 0,10,11
 81 591 81 591 196.5 709 c 128,-1,12
 312 827 312 827 496 827 c 0,13,14
 682 827 682 827 795 707.5 c 128,-1,15
 908 588 908 588 908 401 c 0,4,5
495 756 m 0,16,17
 324 756 324 756 269 565 c 0,18,19
 249 497 249 497 249 429 c 0,20,21
 249 357 249 357 253 322 c 0,22,23
 260 267 260 267 276.5 221.5 c 128,-1,24
 293 176 293 176 320.5 136.5 c 128,-1,25
 348 97 348 97 392 75 c 128,-1,26
 436 53 436 53 492 53 c 0,27,28
 661 53 661 53 718 242 c 1,29,30
 741 309 741 309 741 378 c 0,31,32
 741 433 741 433 735.5 481.5 c 128,-1,33
 730 530 730 530 713.5 582 c 128,-1,34
 697 634 697 634 671 671 c 128,-1,35
 645 708 645 708 600 732 c 128,-1,36
 555 756 555 756 495 756 c 0,16,17
EndSplineSet
EndChar

StartChar: Ocircumflex
Encoding: 212 212 152
Width: 604
GlyphClass: 2
Flags: W
HStem: -17 79 866 81 1038 160
VStem: 93 192 172 339 849 191
LayerCount: 2
Fore
SplineSet
280 1162 m 1,0,-1
 389 1162 l 1,1,-1
 496 1007 l 1,2,-1
 420 1007 l 1,3,-1
 334 1078 l 1,4,-1
 251 1007 l 1,5,-1
 166 1007 l 1,6,-1
 280 1162 l 1,0,-1
908 401 m 0,7,8
 908 216 908 216 791.5 100.5 c 128,-1,9
 675 -15 675 -15 489 -15 c 0,10,11
 306 -15 306 -15 193.5 103.5 c 128,-1,12
 81 222 81 222 81 406 c 0,13,14
 81 591 81 591 196.5 709 c 128,-1,15
 312 827 312 827 496 827 c 0,16,17
 682 827 682 827 795 707.5 c 128,-1,18
 908 588 908 588 908 401 c 0,7,8
495 756 m 0,19,20
 324 756 324 756 269 565 c 0,21,22
 249 497 249 497 249 429 c 0,23,24
 249 357 249 357 253 322 c 0,25,26
 260 267 260 267 276.5 221.5 c 128,-1,27
 293 176 293 176 320.5 136.5 c 128,-1,28
 348 97 348 97 392 75 c 128,-1,29
 436 53 436 53 492 53 c 0,30,31
 661 53 661 53 718 242 c 1,32,33
 741 309 741 309 741 378 c 0,34,35
 741 433 741 433 735.5 481.5 c 128,-1,36
 730 530 730 530 713.5 582 c 128,-1,37
 697 634 697 634 671 671 c 128,-1,38
 645 708 645 708 600 732 c 128,-1,39
 555 756 555 756 495 756 c 0,19,20
EndSplineSet
EndChar

StartChar: Otilde
Encoding: 213 213 153
Width: 604
GlyphClass: 2
Flags: W
HStem: -17 79 866 81 1036 89 1095 93
VStem: 93 192 160 402 849 191
LayerCount: 2
Fore
SplineSet
423 1091 m 0,0,1
 485 1091 485 1091 517 1138 c 1,2,-1
 546 1107 l 1,3,4
 519 1005 519 1005 401 1005 c 0,5,6
 378 1005 378 1005 353 1024 c 0,7,8
 332 1041 332 1041 311 1053 c 1,9,10
 298 1062 298 1062 273 1062 c 0,11,12
 249 1062 249 1062 223 1046.5 c 128,-1,13
 197 1031 197 1031 182 1006 c 1,14,-1
 155 1031 l 1,15,16
 158 1076 158 1076 192 1114 c 0,17,18
 227 1152 227 1152 271 1152 c 2,19,-1
 307 1152 l 2,20,21
 329 1152 329 1152 353 1131 c 0,22,23
 373 1114 373 1114 381.5 1107.5 c 128,-1,24
 390 1101 390 1101 401 1096 c 128,-1,25
 412 1091 412 1091 423 1091 c 0,0,1
908 401 m 0,26,27
 908 216 908 216 791.5 100.5 c 128,-1,28
 675 -15 675 -15 489 -15 c 0,29,30
 306 -15 306 -15 193.5 103.5 c 128,-1,31
 81 222 81 222 81 406 c 0,32,33
 81 591 81 591 196.5 709 c 128,-1,34
 312 827 312 827 496 827 c 0,35,36
 682 827 682 827 795 707.5 c 128,-1,37
 908 588 908 588 908 401 c 0,26,27
495 756 m 0,38,39
 324 756 324 756 269 565 c 0,40,41
 249 497 249 497 249 429 c 0,42,43
 249 357 249 357 253 322 c 0,44,45
 260 267 260 267 276.5 221.5 c 128,-1,46
 293 176 293 176 320.5 136.5 c 128,-1,47
 348 97 348 97 392 75 c 128,-1,48
 436 53 436 53 492 53 c 0,49,50
 661 53 661 53 718 242 c 1,51,52
 741 309 741 309 741 378 c 0,53,54
 741 433 741 433 735.5 481.5 c 128,-1,55
 730 530 730 530 713.5 582 c 128,-1,56
 697 634 697 634 671 671 c 128,-1,57
 645 708 645 708 600 732 c 128,-1,58
 555 756 555 756 495 756 c 0,38,39
EndSplineSet
EndChar

StartChar: Odieresis
Encoding: 214 214 154
Width: 604
GlyphClass: 2
Flags: W
HStem: -17 79 866 81 1031 127
VStem: 93 192 163 127 391 127 849 191
LayerCount: 2
Fore
SplineSet
442 999 m 0,0,1
 407 999 407 999 393 1013.5 c 128,-1,2
 379 1028 379 1028 379 1062 c 128,-1,3
 379 1096 379 1096 393 1109.5 c 128,-1,4
 407 1123 407 1123 442 1123 c 0,5,6
 476 1123 476 1123 489.5 1109 c 128,-1,7
 503 1095 503 1095 503 1061 c 128,-1,8
 503 1027 503 1027 489.5 1013 c 128,-1,9
 476 999 476 999 442 999 c 0,0,1
220 999 m 0,10,11
 186 999 186 999 172 1013.5 c 128,-1,12
 158 1028 158 1028 158 1062 c 128,-1,13
 158 1096 158 1096 172 1109.5 c 128,-1,14
 186 1123 186 1123 220 1123 c 0,15,16
 255 1123 255 1123 268.5 1109 c 128,-1,17
 282 1095 282 1095 282 1061 c 128,-1,18
 282 1027 282 1027 268.5 1013 c 128,-1,19
 255 999 255 999 220 999 c 0,10,11
908 401 m 0,20,21
 908 216 908 216 791.5 100.5 c 128,-1,22
 675 -15 675 -15 489 -15 c 0,23,24
 306 -15 306 -15 193.5 103.5 c 128,-1,25
 81 222 81 222 81 406 c 0,26,27
 81 591 81 591 196.5 709 c 128,-1,28
 312 827 312 827 496 827 c 0,29,30
 682 827 682 827 795 707.5 c 128,-1,31
 908 588 908 588 908 401 c 0,20,21
495 756 m 0,32,33
 324 756 324 756 269 565 c 0,34,35
 249 497 249 497 249 429 c 0,36,37
 249 357 249 357 253 322 c 0,38,39
 260 267 260 267 276.5 221.5 c 128,-1,40
 293 176 293 176 320.5 136.5 c 128,-1,41
 348 97 348 97 392 75 c 128,-1,42
 436 53 436 53 492 53 c 0,43,44
 661 53 661 53 718 242 c 1,45,46
 741 309 741 309 741 378 c 0,47,48
 741 433 741 433 735.5 481.5 c 128,-1,49
 730 530 730 530 713.5 582 c 128,-1,50
 697 634 697 634 671 671 c 128,-1,51
 645 708 645 708 600 732 c 128,-1,52
 555 756 555 756 495 756 c 0,32,33
EndSplineSet
EndChar

StartChar: multiply
Encoding: 215 215 155
Width: 709
GlyphClass: 2
Flags: W
HStem: 84 790
VStem: 139 780
LayerCount: 2
Fore
SplineSet
677 552 m 1,0,-1
 481 353 l 1,1,-1
 677 154 l 1,2,-1
 587 62 l 1,3,-1
 390 261 l 1,4,-1
 193 62 l 1,5,-1
 102 154 l 1,6,-1
 299 353 l 1,7,-1
 102 552 l 1,8,-1
 193 644 l 1,9,-1
 390 445 l 1,10,-1
 587 644 l 1,11,-1
 677 552 l 1,0,-1
EndSplineSet
EndChar

StartChar: Oslash
Encoding: 216 216 156
Width: 606
GlyphClass: 2
Flags: W
HStem: 0 157 913 158 1265 19
VStem: 97 181 638 181
LayerCount: 2
Fore
SplineSet
414 0 m 0,0,1
 261 0 261 0 252 1 c 1,2,-1
 203 -142 l 1,3,-1
 95 -142 l 1,4,-1
 156 32 l 1,5,6
 117 58 117 58 94.5 98 c 128,-1,7
 72 138 72 138 72 184 c 2,8,-1
 72 605 l 2,9,10
 72 682 72 682 129 736 c 0,11,12
 187 790 187 790 266 790 c 0,13,14
 366 790 366 790 417 789 c 1,15,-1
 471 947 l 1,16,-1
 579 947 l 1,17,-1
 515 761 l 1,18,19
 555 736 555 736 579.5 694 c 128,-1,20
 604 652 604 652 604 605 c 2,21,-1
 604 184 l 2,22,23
 604 108 604 108 548 54 c 128,-1,24
 492 0 492 0 414 0 c 0,0,1
470 209 m 2,25,-1
 470 580 l 2,26,27
 470 598 470 598 464 616 c 1,28,-1
 292 116 l 1,29,-1
 397 116 l 2,30,31
 431 116 431 116 450 144 c 0,32,33
 470 173 470 173 470 209 c 2,25,-1
208 183 m 1,34,-1
 377 673 l 1,35,-1
 275 673 l 2,36,37
 243 673 243 673 223 644 c 0,38,39
 205 617 205 617 205 580 c 2,40,-1
 205 209 l 2,41,42
 205 195 205 195 208 183 c 1,34,-1
EndSplineSet
EndChar

StartChar: Ugrave
Encoding: 217 217 157
Width: 604
GlyphClass: 2
Flags: W
HStem: -16 89 872 56 1036 165
VStem: 74 197 206 175 854 94
LayerCount: 2
Fore
SplineSet
71 1165 m 1,0,-1
 211 1165 l 1,1,-1
 263 1005 l 1,2,-1
 204 1005 l 1,3,-1
 71 1165 l 1,0,-1
501 -14 m 0,4,5
 180 -14 180 -14 180 300 c 2,6,-1
 180 668 l 2,7,8
 180 684 180 684 179 696 c 128,-1,9
 178 708 178 708 174.5 717 c 128,-1,10
 171 726 171 726 169 732.5 c 128,-1,11
 167 739 167 739 159 743.5 c 128,-1,12
 151 748 151 748 148 750.5 c 128,-1,13
 145 753 145 753 132 755 c 128,-1,14
 119 757 119 757 115.5 757.5 c 128,-1,15
 112 758 112 758 94 759.5 c 128,-1,16
 76 761 76 761 70 761 c 1,17,-1
 70 810 l 1,18,-1
 443 810 l 1,19,-1
 443 762 l 1,20,21
 377.059 756.862 377.059 756.862 361.133 747.991 c 0,22,23
 332 731.765 332 731.765 332 668 c 2,24,-1
 332 291 l 2,25,26
 332 177 332 177 375.5 120 c 128,-1,27
 419 63 419 63 529 63 c 0,28,29
 652 63 652 63 699 121 c 128,-1,30
 746 179 746 179 746 304 c 2,31,-1
 746 623 l 2,32,33
 746 704 746 704 727 730.5 c 128,-1,34
 708 757 708 757 630 761 c 1,35,-1
 630 810 l 1,36,-1
 942 810 l 1,37,-1
 942 762 l 1,38,39
 933 760 933 760 917 757.5 c 128,-1,40
 901 755 901 755 895 754 c 128,-1,41
 889 753 889 753 877.5 750.5 c 128,-1,42
 866 748 866 748 862 745.5 c 128,-1,43
 858 743 858 743 850.5 739 c 128,-1,44
 843 735 843 735 841 729.5 c 128,-1,45
 839 724 839 724 835.5 716.5 c 128,-1,46
 832 709 832 709 831 699.5 c 128,-1,47
 830 690 830 690 829 677.5 c 128,-1,48
 828 665 828 665 828 649 c 2,49,-1
 828 314 l 2,50,51
 828 147 828 147 748 66.5 c 128,-1,52
 668 -14 668 -14 501 -14 c 0,4,5
EndSplineSet
EndChar

StartChar: Uacute
Encoding: 218 218 158
Width: 608
GlyphClass: 2
Flags: W
HStem: -16 89 872 56 1039 165
VStem: 206 175 429 198 854 94
LayerCount: 2
Fore
SplineSet
416 1008 m 1,0,-1
 468 1167 l 1,1,-1
 608 1167 l 1,2,-1
 476 1008 l 1,3,-1
 416 1008 l 1,0,-1
501 -14 m 0,4,5
 180 -14 180 -14 180 300 c 2,6,-1
 180 668 l 2,7,8
 180 684 180 684 179 696 c 128,-1,9
 178 708 178 708 174.5 717 c 128,-1,10
 171 726 171 726 169 732.5 c 128,-1,11
 167 739 167 739 159 743.5 c 128,-1,12
 151 748 151 748 148 750.5 c 128,-1,13
 145 753 145 753 132 755 c 128,-1,14
 119 757 119 757 115.5 757.5 c 128,-1,15
 112 758 112 758 94 759.5 c 128,-1,16
 76 761 76 761 70 761 c 1,17,-1
 70 810 l 1,18,-1
 443 810 l 1,19,-1
 443 762 l 1,20,21
 377.059 756.862 377.059 756.862 361.133 747.991 c 0,22,23
 332 731.765 332 731.765 332 668 c 2,24,-1
 332 291 l 2,25,26
 332 177 332 177 375.5 120 c 128,-1,27
 419 63 419 63 529 63 c 0,28,29
 652 63 652 63 699 121 c 128,-1,30
 746 179 746 179 746 304 c 2,31,-1
 746 623 l 2,32,33
 746 704 746 704 727 730.5 c 128,-1,34
 708 757 708 757 630 761 c 1,35,-1
 630 810 l 1,36,-1
 942 810 l 1,37,-1
 942 762 l 1,38,39
 933 760 933 760 917 757.5 c 128,-1,40
 901 755 901 755 895 754 c 128,-1,41
 889 753 889 753 877.5 750.5 c 128,-1,42
 866 748 866 748 862 745.5 c 128,-1,43
 858 743 858 743 850.5 739 c 128,-1,44
 843 735 843 735 841 729.5 c 128,-1,45
 839 724 839 724 835.5 716.5 c 128,-1,46
 832 709 832 709 831 699.5 c 128,-1,47
 830 690 830 690 829 677.5 c 128,-1,48
 828 665 828 665 828 649 c 2,49,-1
 828 314 l 2,50,51
 828 147 828 147 748 66.5 c 128,-1,52
 668 -14 668 -14 501 -14 c 0,4,5
EndSplineSet
EndChar

StartChar: Ucircumflex
Encoding: 219 219 159
Width: 604
GlyphClass: 2
Flags: W
HStem: -17 89 871 56 1038 160
VStem: 172 339 206 175 854 94
LayerCount: 2
Fore
SplineSet
280 1162 m 1,0,-1
 389 1162 l 1,1,-1
 496 1007 l 1,2,-1
 420 1007 l 1,3,-1
 334 1078 l 1,4,-1
 251 1007 l 1,5,-1
 166 1007 l 1,6,-1
 280 1162 l 1,0,-1
501 -15 m 0,7,8
 180 -15 180 -15 180 299 c 2,9,-1
 180 667 l 2,10,11
 180 683 180 683 179 695 c 128,-1,12
 178 707 178 707 174.5 716 c 128,-1,13
 171 725 171 725 169 731.5 c 128,-1,14
 167 738 167 738 159 742.5 c 128,-1,15
 151 747 151 747 148 749.5 c 128,-1,16
 145 752 145 752 132 754 c 128,-1,17
 119 756 119 756 115.5 756.5 c 128,-1,18
 112 757 112 757 94 758.5 c 128,-1,19
 76 760 76 760 70 760 c 1,20,-1
 70 809 l 1,21,-1
 443 809 l 1,22,-1
 443 761 l 1,23,24
 377.059 755.862 377.059 755.862 361.133 746.991 c 0,25,26
 332 730.765 332 730.765 332 667 c 2,27,-1
 332 290 l 2,28,29
 332 176 332 176 375.5 119 c 128,-1,30
 419 62 419 62 529 62 c 0,31,32
 652 62 652 62 699 120 c 128,-1,33
 746 178 746 178 746 303 c 2,34,-1
 746 622 l 2,35,36
 746 703 746 703 727 729.5 c 128,-1,37
 708 756 708 756 630 760 c 1,38,-1
 630 809 l 1,39,-1
 942 809 l 1,40,-1
 942 761 l 1,41,42
 933 759 933 759 917 756.5 c 128,-1,43
 901 754 901 754 895 753 c 128,-1,44
 889 752 889 752 877.5 749.5 c 128,-1,45
 866 747 866 747 862 744.5 c 128,-1,46
 858 742 858 742 850.5 738 c 128,-1,47
 843 734 843 734 841 728.5 c 128,-1,48
 839 723 839 723 835.5 715.5 c 128,-1,49
 832 708 832 708 831 698.5 c 128,-1,50
 830 689 830 689 829 676.5 c 128,-1,51
 828 664 828 664 828 648 c 2,52,-1
 828 313 l 2,53,54
 828 146 828 146 748 65.5 c 128,-1,55
 668 -15 668 -15 501 -15 c 0,7,8
EndSplineSet
EndChar

StartChar: Udieresis
Encoding: 220 220 160
Width: 604
GlyphClass: 2
Flags: W
HStem: -17 89 871 56 1031 127
VStem: 163 127 206 175 391 127 854 94
LayerCount: 2
Fore
SplineSet
442 999 m 0,0,1
 407 999 407 999 393 1013.5 c 128,-1,2
 379 1028 379 1028 379 1062 c 128,-1,3
 379 1096 379 1096 393 1109.5 c 128,-1,4
 407 1123 407 1123 442 1123 c 0,5,6
 476 1123 476 1123 489.5 1109 c 128,-1,7
 503 1095 503 1095 503 1061 c 128,-1,8
 503 1027 503 1027 489.5 1013 c 128,-1,9
 476 999 476 999 442 999 c 0,0,1
220 999 m 0,10,11
 186 999 186 999 172 1013.5 c 128,-1,12
 158 1028 158 1028 158 1062 c 128,-1,13
 158 1096 158 1096 172 1109.5 c 128,-1,14
 186 1123 186 1123 220 1123 c 0,15,16
 255 1123 255 1123 268.5 1109 c 128,-1,17
 282 1095 282 1095 282 1061 c 128,-1,18
 282 1027 282 1027 268.5 1013 c 128,-1,19
 255 999 255 999 220 999 c 0,10,11
501 -15 m 0,20,21
 180 -15 180 -15 180 299 c 2,22,-1
 180 667 l 2,23,24
 180 683 180 683 179 695 c 128,-1,25
 178 707 178 707 174.5 716 c 128,-1,26
 171 725 171 725 169 731.5 c 128,-1,27
 167 738 167 738 159 742.5 c 128,-1,28
 151 747 151 747 148 749.5 c 128,-1,29
 145 752 145 752 132 754 c 128,-1,30
 119 756 119 756 115.5 756.5 c 128,-1,31
 112 757 112 757 94 758.5 c 128,-1,32
 76 760 76 760 70 760 c 1,33,-1
 70 809 l 1,34,-1
 443 809 l 1,35,-1
 443 761 l 1,36,37
 377.059 755.862 377.059 755.862 361.133 746.991 c 0,38,39
 332 730.765 332 730.765 332 667 c 2,40,-1
 332 290 l 2,41,42
 332 176 332 176 375.5 119 c 128,-1,43
 419 62 419 62 529 62 c 0,44,45
 652 62 652 62 699 120 c 128,-1,46
 746 178 746 178 746 303 c 2,47,-1
 746 622 l 2,48,49
 746 703 746 703 727 729.5 c 128,-1,50
 708 756 708 756 630 760 c 1,51,-1
 630 809 l 1,52,-1
 942 809 l 1,53,-1
 942 761 l 1,54,55
 933 759 933 759 917 756.5 c 128,-1,56
 901 754 901 754 895 753 c 128,-1,57
 889 752 889 752 877.5 749.5 c 128,-1,58
 866 747 866 747 862 744.5 c 128,-1,59
 858 742 858 742 850.5 738 c 128,-1,60
 843 734 843 734 841 728.5 c 128,-1,61
 839 723 839 723 835.5 715.5 c 128,-1,62
 832 708 832 708 831 698.5 c 128,-1,63
 830 689 830 689 829 676.5 c 128,-1,64
 828 664 828 664 828 648 c 2,65,-1
 828 313 l 2,66,67
 828 146 828 146 748 65.5 c 128,-1,68
 668 -15 668 -15 501 -15 c 0,20,21
EndSplineSet
EndChar

StartChar: Yacute
Encoding: 221 221 161
Width: 727
GlyphClass: 2
Flags: W
HStem: 0 56 870 57 1039 165
VStem: 385 197 495 173
LayerCount: 2
Fore
SplineSet
373 1008 m 1,0,-1
 425 1167 l 1,1,-1
 565 1167 l 1,2,-1
 432 1008 l 1,3,-1
 373 1008 l 1,0,-1
721 735 m 0,4,5
 721 768 721 768 638 760 c 1,6,-1
 638 809 l 1,7,-1
 933 809 l 1,8,-1
 933 760 l 1,9,10
 891 757 891 757 858 736.5 c 128,-1,11
 825 716 825 716 808.5 696 c 128,-1,12
 792 676 792 676 762 632 c 2,13,-1
 583 368 l 1,14,-1
 583 143 l 2,15,16
 583 120 583 120 585.5 103.5 c 128,-1,17
 588 87 588 87 596 76.5 c 128,-1,18
 604 66 604 66 610 60.5 c 128,-1,19
 616 55 616 55 632.5 52.5 c 128,-1,20
 649 50 649 50 659.5 49.5 c 128,-1,21
 670 49 670 49 694.501 48.9641 c 0,22,23
 703 49 703 49 708 49 c 1,24,-1
 708 0 l 1,25,-1
 308 0 l 1,26,-1
 308 49 l 1,27,28
 383.358 52.8844 383.358 52.8844 399.51 60.3099 c 0,29,30
 428.074 73.4407 428.074 73.4407 431.341 129.473 c 0,31,32
 432 140.773 432 140.773 432 155 c 2,33,-1
 432 357 l 1,34,-1
 274 581 l 2,35,36
 270 587 270 587 248 616.5 c 128,-1,37
 226 646 226 646 209.5 668.5 c 128,-1,38
 193 691 193 691 172.5 714.5 c 128,-1,39
 152 738 152 738 141 745 c 0,40,41
 116 760 116 760 74 760 c 1,42,-1
 74 809 l 1,43,-1
 442 809 l 1,44,-1
 442 760 l 1,45,-1
 416 760 l 2,46,47
 390 760 390 760 373.5 755.5 c 128,-1,48
 357 751 357 751 357 739 c 0,49,50
 357 722 357 722 375 694 c 1,51,-1
 544 448 l 1,52,-1
 707 698 l 2,53,54
 721 720 721 720 721 735 c 0,4,5
EndSplineSet
EndChar

StartChar: Thorn
Encoding: 222 222 162
Width: 588
GlyphClass: 2
Flags: W
HStem: 270 157 843 155
VStem: 97 182 608 181
LayerCount: 2
Fore
SplineSet
582 531 m 2,0,-1
 582 383 l 2,1,2
 582 308 582 308 524 253 c 0,3,4
 467 199 467 199 391 199 c 2,5,-1
 206 199 l 1,6,-1
 206 -2 l 1,7,-1
 72 -2 l 1,8,-1
 72 944 l 1,9,-1
 206 944 l 1,10,-1
 206 736 l 1,11,-1
 362 736 l 2,12,13
 451 736 451 736 515 676 c 1,14,15
 582 615 582 615 582 531 c 2,0,-1
448 408 m 2,16,-1
 448 514 l 2,17,18
 448 586 448 586 388 613 c 0,19,20
 371 621 371 621 346 621 c 2,21,-1
 206 621 l 1,22,-1
 206 315 l 1,23,-1
 368 315 l 2,24,25
 425 315 425 315 443 373 c 0,26,27
 448 391 448 391 448 408 c 2,16,-1
EndSplineSet
EndChar

StartChar: germandbls
Encoding: 223 223 163
Width: 762
GlyphClass: 2
Flags: W
HStem: 0 160 759 161 1123 158
VStem: 157 181 478 152 488 186 698 181 850 178
LayerCount: 2
Fore
SplineSet
515 117 m 2,0,-1
 571 117 l 2,1,2
 627 117 627 117 627 174 c 2,3,-1
 627 202 l 2,4,5
 627 223 627 223 610.5 240.5 c 128,-1,6
 594 258 594 258 570 267 c 2,7,-1
 508 289 l 2,8,9
 433 315 433 315 410 336 c 0,10,11
 360 380 360 380 360 439 c 2,12,-1
 360 518 l 2,13,14
 360 585 360 585 404 630 c 1,15,16
 449 678 449 678 515 678 c 1,17,-1
 515 698 l 2,18,19
 515 746 515 746 495 775 c 0,20,21
 459 828 459 828 412 828 c 2,22,-1
 349 828 l 2,23,24
 303 828 303 828 276 790 c 0,25,26
 249 753 249 753 249 705 c 2,27,-1
 249 0 l 1,28,-1
 116 0 l 1,29,-1
 116 730 l 2,30,31
 116 819 116 819 183 882 c 0,32,33
 249 944 249 944 340 944 c 2,34,-1
 428 944 l 2,35,36
 518 944 518 944 583 879 c 1,37,38
 648 812 648 812 648 722 c 2,39,-1
 648 560 l 1,40,-1
 547 560 l 2,41,42
 518 560 518 560 507.5 550.5 c 128,-1,43
 497 541 497 541 497 512 c 2,44,-1
 497 485 l 2,45,46
 497 451 497 451 501 442 c 0,47,48
 507 431 507 431 532 422 c 1,49,-1
 602 400 l 2,50,51
 758 351 758 351 758 240 c 2,52,-1
 758 164 l 2,53,54
 758 97 758 97 714 48 c 0,55,56
 670 0 670 0 602 0 c 2,57,-1
 499 0 l 2,58,59
 430 0 430 0 391 44.5 c 128,-1,60
 352 89 352 89 352 164 c 1,61,-1
 464 164 l 1,62,-1
 464 159 l 2,63,64
 464 117 464 117 515 117 c 2,0,-1
EndSplineSet
EndChar

StartChar: agrave
Encoding: 224 224 164
Width: 576
GlyphClass: 2
Flags: W
HStem: -2 146 0 143 449 148 826 151 1006 207
VStem: 102 171 610 168
LayerCount: 2
Fore
SplineSet
74 894 m 1,0,-1
 208 894 l 1,1,-1
 257 742 l 1,2,-1
 201 742 l 1,3,-1
 74 894 l 1,0,-1
450 424 m 1,4,-1
 450 547 l 2,5,6
 450 609 450 609 390 609 c 2,7,-1
 256 609 l 2,8,9
 234 609 234 609 221.5 595.5 c 128,-1,10
 209 582 209 582 209 560 c 1,11,-1
 82 560 l 1,12,13
 84 628 84 628 125 674 c 0,14,15
 165 720 165 720 232 720 c 2,16,-1
 429 720 l 2,17,18
 493 720 493 720 533 674 c 0,19,20
 574 627 574 627 574 563 c 2,21,-1
 574 0 l 1,22,-1
 450 0 l 1,23,-1
 450 29 l 1,24,25
 413 -1 413 -1 372 -1 c 2,26,-1
 251 -1 l 2,27,28
 182 -1 182 -1 130 41 c 1,29,30
 75 84 75 84 75 148 c 2,31,-1
 75 288 l 2,32,33
 75 354 75 354 130 397 c 1,34,35
 183 440 183 440 251 440 c 2,36,-1
 394 440 l 2,37,38
 425 440 425 440 450 424 c 1,4,-1
447 173 m 2,39,-1
 447 264 l 2,40,41
 447 294 447 294 431 312.5 c 128,-1,42
 415 331 415 331 386 331 c 2,43,-1
 260 331 l 2,44,45
 231 331 231 331 216 312.5 c 128,-1,46
 201 294 201 294 201 264 c 2,47,-1
 201 173 l 2,48,49
 201 143 201 143 216 124 c 128,-1,50
 231 105 231 105 260 105 c 2,51,-1
 386 105 l 2,52,53
 415 105 415 105 431 124 c 128,-1,54
 447 143 447 143 447 173 c 2,39,-1
EndSplineSet
EndChar

StartChar: aacute
Encoding: 225 225 165
Width: 576
GlyphClass: 2
Flags: W
HStem: -2 146 0 143 449 148 826 151 1008 207
VStem: 102 171 610 168
LayerCount: 2
Fore
SplineSet
399 743 m 1,0,-1
 448 896 l 1,1,-1
 582 896 l 1,2,-1
 455 743 l 1,3,-1
 399 743 l 1,0,-1
450 424 m 1,4,-1
 450 547 l 2,5,6
 450 609 450 609 390 609 c 2,7,-1
 256 609 l 2,8,9
 234 609 234 609 221.5 595.5 c 128,-1,10
 209 582 209 582 209 560 c 1,11,-1
 82 560 l 1,12,13
 84 628 84 628 125 674 c 0,14,15
 165 720 165 720 232 720 c 2,16,-1
 429 720 l 2,17,18
 493 720 493 720 533 674 c 0,19,20
 574 627 574 627 574 563 c 2,21,-1
 574 0 l 1,22,-1
 450 0 l 1,23,-1
 450 29 l 1,24,25
 413 -1 413 -1 372 -1 c 2,26,-1
 251 -1 l 2,27,28
 182 -1 182 -1 130 41 c 1,29,30
 75 84 75 84 75 148 c 2,31,-1
 75 288 l 2,32,33
 75 354 75 354 130 397 c 1,34,35
 183 440 183 440 251 440 c 2,36,-1
 394 440 l 2,37,38
 425 440 425 440 450 424 c 1,4,-1
447 173 m 2,39,-1
 447 264 l 2,40,41
 447 294 447 294 431 312.5 c 128,-1,42
 415 331 415 331 386 331 c 2,43,-1
 260 331 l 2,44,45
 231 331 231 331 216 312.5 c 128,-1,46
 201 294 201 294 201 264 c 2,47,-1
 201 173 l 2,48,49
 201 143 201 143 216 124 c 128,-1,50
 231 105 231 105 260 105 c 2,51,-1
 386 105 l 2,52,53
 415 105 415 105 431 124 c 128,-1,54
 447 143 447 143 447 173 c 2,39,-1
EndSplineSet
EndChar

StartChar: acircumflex
Encoding: 226 226 166
Width: 576
GlyphClass: 2
Flags: W
HStem: -2 146 0 143 449 148 826 151 1017 200
VStem: 102 171 610 168
LayerCount: 2
Fore
SplineSet
275 897 m 1,0,-1
 379 897 l 1,1,-1
 480 750 l 1,2,-1
 408 750 l 1,3,-1
 327 818 l 1,4,-1
 247 750 l 1,5,-1
 167 750 l 1,6,-1
 275 897 l 1,0,-1
450 424 m 1,7,-1
 450 547 l 2,8,9
 450 609 450 609 390 609 c 2,10,-1
 256 609 l 2,11,12
 234 609 234 609 221.5 595.5 c 128,-1,13
 209 582 209 582 209 560 c 1,14,-1
 82 560 l 1,15,16
 84 628 84 628 125 674 c 0,17,18
 165 720 165 720 232 720 c 2,19,-1
 429 720 l 2,20,21
 493 720 493 720 533 674 c 0,22,23
 574 627 574 627 574 563 c 2,24,-1
 574 0 l 1,25,-1
 450 0 l 1,26,-1
 450 29 l 1,27,28
 413 -1 413 -1 372 -1 c 2,29,-1
 251 -1 l 2,30,31
 182 -1 182 -1 130 41 c 1,32,33
 75 84 75 84 75 148 c 2,34,-1
 75 288 l 2,35,36
 75 354 75 354 130 397 c 1,37,38
 183 440 183 440 251 440 c 2,39,-1
 394 440 l 2,40,41
 425 440 425 440 450 424 c 1,7,-1
447 173 m 2,42,-1
 447 264 l 2,43,44
 447 294 447 294 431 312.5 c 128,-1,45
 415 331 415 331 386 331 c 2,46,-1
 260 331 l 2,47,48
 231 331 231 331 216 312.5 c 128,-1,49
 201 294 201 294 201 264 c 2,50,-1
 201 173 l 2,51,52
 201 143 201 143 216 124 c 128,-1,53
 231 105 231 105 260 105 c 2,54,-1
 386 105 l 2,55,56
 415 105 415 105 431 124 c 128,-1,57
 447 143 447 143 447 173 c 2,42,-1
EndSplineSet
EndChar

StartChar: atilde
Encoding: 227 227 167
Width: 576
GlyphClass: 2
Flags: W
HStem: -2 146 0 143 449 148 826 151 1032 111
VStem: 102 171 111 172 610 168
LayerCount: 2
Fore
SplineSet
412 843 m 0,0,1
 472 843 472 843 501 887 c 1,2,-1
 529 858 l 1,3,4
 520 819 520 819 495.5 795 c 128,-1,5
 471 771 471 771 444 765.5 c 128,-1,6
 417 760 417 760 394.5 761 c 128,-1,7
 372 762 372 762 361 769 c 1,8,9
 351 774 351 774 323 796 c 0,10,11
 300 815 300 815 273 815 c 0,12,13
 248 815 248 815 222 800 c 128,-1,14
 196 785 196 785 184 762 c 1,15,-1
 158 785 l 1,16,17
 158 826 158 826 192 863 c 0,18,19
 227 901 227 901 268 901 c 2,20,-1
 302 901 l 2,21,22
 321 901 321 901 346 881 c 1,23,24
 365 864 365 864 372.5 858 c 128,-1,25
 380 852 380 852 390.5 847.5 c 128,-1,26
 401 843 401 843 412 843 c 0,0,1
450 424 m 1,27,-1
 450 547 l 2,28,29
 450 609 450 609 390 609 c 2,30,-1
 256 609 l 2,31,32
 234 609 234 609 221.5 595.5 c 128,-1,33
 209 582 209 582 209 560 c 1,34,-1
 82 560 l 1,35,36
 84 628 84 628 125 674 c 0,37,38
 165 720 165 720 232 720 c 2,39,-1
 429 720 l 2,40,41
 493 720 493 720 533 674 c 0,42,43
 574 627 574 627 574 563 c 2,44,-1
 574 0 l 1,45,-1
 450 0 l 1,46,-1
 450 29 l 1,47,48
 413 -1 413 -1 372 -1 c 2,49,-1
 251 -1 l 2,50,51
 182 -1 182 -1 130 41 c 1,52,53
 75 84 75 84 75 148 c 2,54,-1
 75 288 l 2,55,56
 75 354 75 354 130 397 c 1,57,58
 183 440 183 440 251 440 c 2,59,-1
 394 440 l 2,60,61
 425 440 425 440 450 424 c 1,27,-1
447 173 m 2,62,-1
 447 264 l 2,63,64
 447 294 447 294 431 312.5 c 128,-1,65
 415 331 415 331 386 331 c 2,66,-1
 260 331 l 2,67,68
 231 331 231 331 216 312.5 c 128,-1,69
 201 294 201 294 201 264 c 2,70,-1
 201 173 l 2,71,72
 201 143 201 143 216 124 c 128,-1,73
 231 105 231 105 260 105 c 2,74,-1
 386 105 l 2,75,76
 415 105 415 105 431 124 c 128,-1,77
 447 143 447 143 447 173 c 2,62,-1
EndSplineSet
EndChar

StartChar: adieresis
Encoding: 228 228 168
Width: 576
GlyphClass: 2
Flags: W
HStem: -2 146 0 143 449 148 826 151 1015 159
VStem: 102 171 610 168
LayerCount: 2
Fore
SplineSet
421 865 m 128,-1,1
 454 865 454 865 467 852 c 128,-1,2
 480 839 480 839 480 806 c 0,3,4
 480 774 480 774 467 761 c 128,-1,5
 454 748 454 748 421 748 c 128,-1,6
 388 748 388 748 375 761 c 128,-1,7
 362 774 362 774 362 806 c 0,8,9
 362 839 362 839 375 852 c 128,-1,0
 388 865 388 865 421 865 c 128,-1,1
233 865 m 128,-1,11
 266 865 266 865 279 852 c 128,-1,12
 292 839 292 839 292 806 c 0,13,14
 292 774 292 774 279 761 c 128,-1,15
 266 748 266 748 233 748 c 128,-1,16
 200 748 200 748 187 761 c 128,-1,17
 174 774 174 774 174 806 c 0,18,19
 174 839 174 839 187 852 c 128,-1,10
 200 865 200 865 233 865 c 128,-1,11
450 424 m 1,20,-1
 450 547 l 2,21,22
 450 609 450 609 390 609 c 2,23,-1
 256 609 l 2,24,25
 234 609 234 609 221.5 595.5 c 128,-1,26
 209 582 209 582 209 560 c 1,27,-1
 82 560 l 1,28,29
 84 628 84 628 125 674 c 0,30,31
 165 720 165 720 232 720 c 2,32,-1
 429 720 l 2,33,34
 493 720 493 720 533 674 c 0,35,36
 574 627 574 627 574 563 c 2,37,-1
 574 0 l 1,38,-1
 450 0 l 1,39,-1
 450 29 l 1,40,41
 413 -1 413 -1 372 -1 c 2,42,-1
 251 -1 l 2,43,44
 182 -1 182 -1 130 41 c 1,45,46
 75 84 75 84 75 148 c 2,47,-1
 75 288 l 2,48,49
 75 354 75 354 130 397 c 1,50,51
 183 440 183 440 251 440 c 2,52,-1
 394 440 l 2,53,54
 425 440 425 440 450 424 c 1,20,-1
447 173 m 2,55,-1
 447 264 l 2,56,57
 447 294 447 294 431 312.5 c 128,-1,58
 415 331 415 331 386 331 c 2,59,-1
 260 331 l 2,60,61
 231 331 231 331 216 312.5 c 128,-1,62
 201 294 201 294 201 264 c 2,63,-1
 201 173 l 2,64,65
 201 143 201 143 216 124 c 128,-1,66
 231 105 231 105 260 105 c 2,67,-1
 386 105 l 2,68,69
 415 105 415 105 431 124 c 128,-1,70
 447 143 447 143 447 173 c 2,55,-1
EndSplineSet
EndChar

StartChar: aring
Encoding: 229 229 169
Width: 576
GlyphClass: 2
Flags: W
HStem: -2 146 0 143 449 148 826 151 1011 38 1190 38
VStem: 102 171 339 38 514 38 610 168
LayerCount: 2
Fore
SplineSet
330 905 m 0,0,1
 407 905 407 905 407 825 c 128,-1,2
 407 745 407 745 330 745 c 0,3,4
 292 745 292 745 271 766 c 128,-1,5
 250 787 250 787 250 825 c 128,-1,6
 250 863 250 863 271 884 c 128,-1,7
 292 905 292 905 330 905 c 0,0,1
450 424 m 1,8,-1
 450 547 l 2,9,10
 450 609 450 609 390 609 c 2,11,-1
 256 609 l 2,12,13
 234 609 234 609 221.5 595.5 c 128,-1,14
 209 582 209 582 209 560 c 1,15,-1
 82 560 l 1,16,17
 84 628 84 628 125 674 c 0,18,19
 165 720 165 720 232 720 c 2,20,-1
 429 720 l 2,21,22
 493 720 493 720 533 674 c 0,23,24
 574 627 574 627 574 563 c 2,25,-1
 574 0 l 1,26,-1
 450 0 l 1,27,-1
 450 29 l 1,28,29
 413 -1 413 -1 372 -1 c 2,30,-1
 251 -1 l 2,31,32
 182 -1 182 -1 130 41 c 1,33,34
 75 84 75 84 75 148 c 2,35,-1
 75 288 l 2,36,37
 75 354 75 354 130 397 c 1,38,39
 183 440 183 440 251 440 c 2,40,-1
 394 440 l 2,41,42
 425 440 425 440 450 424 c 1,8,-1
379 825 m 128,-1,44
 379 877 379 877 328 877 c 0,45,46
 278 877 278 877 278 825 c 128,-1,47
 278 773 278 773 328 773 c 0,48,43
 379 773 379 773 379 825 c 128,-1,44
447 173 m 2,49,-1
 447 264 l 2,50,51
 447 294 447 294 431 312.5 c 128,-1,52
 415 331 415 331 386 331 c 2,53,-1
 260 331 l 2,54,55
 231 331 231 331 216 312.5 c 128,-1,56
 201 294 201 294 201 264 c 2,57,-1
 201 173 l 2,58,59
 201 143 201 143 216 124 c 128,-1,60
 231 105 231 105 260 105 c 2,61,-1
 386 105 l 2,62,63
 415 105 415 105 431 124 c 128,-1,64
 447 143 447 143 447 173 c 2,49,-1
EndSplineSet
EndChar

StartChar: ae
Encoding: 230 230 170
Width: 885
GlyphClass: 2
Flags: W
HStem: -2 146 0 150 411 148 826 151
VStem: 101 171 577 170 1035 167
LayerCount: 2
Fore
SplineSet
750 303 m 2,0,-1
 551 303 l 1,1,-1
 549 170 l 2,2,3
 549 111 549 111 609 111 c 2,4,-1
 706 111 l 2,5,6
 731 111 731 111 746.5 125 c 128,-1,7
 762 139 762 139 761 165 c 1,8,-1
 888 165 l 1,9,10
 885 53 885 53 801 13 c 1,11,12
 770 0 770 0 737 0 c 2,13,-1
 577 0 l 2,14,15
 508 0 508 0 465 51 c 1,16,17
 412 -1 412 -1 349 -1 c 2,18,-1
 251 -1 l 2,19,20
 181 -1 181 -1 129 41 c 1,21,22
 74 84 74 84 74 148 c 2,23,-1
 74 288 l 2,24,25
 74 353 74 353 129 397 c 0,26,27
 184 440 184 440 251 440 c 2,28,-1
 379 440 l 2,29,30
 387 440 387 440 394 437 c 128,-1,31
 401 434 401 434 412.5 425.5 c 128,-1,32
 424 417 424 417 425 417 c 1,33,-1
 425 564 l 2,34,35
 425 583 425 583 406.5 596 c 128,-1,36
 388 609 388 609 367 609 c 2,37,-1
 255 609 l 2,38,39
 233 609 233 609 220.5 595.5 c 128,-1,40
 208 582 208 582 208 560 c 1,41,-1
 81 560 l 1,42,43
 83 627 83 627 124 673 c 0,44,45
 165 720 165 720 231 720 c 2,46,-1
 406 720 l 2,47,48
 452 720 452 720 487 695 c 1,49,50
 522 723 522 723 570 723 c 2,51,-1
 742 723 l 2,52,53
 808 723 808 723 847 673 c 0,54,55
 886 623.5 886 623.5 886 556 c 2,56,-1
 886 460 l 2,57,58
 886 393 886 393 849 349 c 1,59,60
 813 303 813 303 750 303 c 2,0,-1
763 474 m 2,61,-1
 763 550 l 2,62,63
 763 579 763 579 744.5 594 c 128,-1,64
 726 609 726 609 696 609 c 2,65,-1
 609 609 l 2,66,67
 574 609 574 609 556 583 c 0,68,69
 551 577 551 577 551 564 c 2,70,-1
 551 412 l 1,71,-1
 696 412 l 2,72,73
 725 412 725 412 744 428.5 c 128,-1,74
 763 445 763 445 763 474 c 2,61,-1
425 173 m 2,75,-1
 425 264 l 2,76,77
 425 293 425 293 408.5 312 c 128,-1,78
 392 331 392 331 363 331 c 2,79,-1
 259 331 l 2,80,81
 201 331 201 331 201 264 c 2,82,-1
 201 173 l 2,83,84
 201 143 201 143 215.5 124 c 128,-1,85
 230 105 230 105 259 105 c 2,86,-1
 363 105 l 2,87,88
 391 105 391 105 408 124.5 c 128,-1,89
 425 144 425 144 425 173 c 2,75,-1
EndSplineSet
EndChar

StartChar: ccedilla
Encoding: 231 231 171
Width: 540
GlyphClass: 2
Flags: W
HStem: -303 80 0 150 826 151
VStem: 98 168 500 138 563 172
LayerCount: 2
Fore
SplineSet
367 0 m 1,0,-1
 348 -39 l 1,1,2
 470 -60 470 -60 470 -129 c 0,3,4
 470 -174 470 -174 431 -198 c 1,5,6
 393 -223 393 -223 357 -223 c 0,7,8
 293 -223 293 -223 255.5 -202.5 c 128,-1,9
 218 -182 218 -182 218 -142 c 0,10,11
 218 -132 218 -132 221 -123 c 1,12,-1
 270 -133 l 1,13,14
 267 -163 267 -163 321 -164 c 0,15,16
 351 -165 351 -165 364.5 -134 c 128,-1,17
 378 -103 378 -103 354 -89 c 0,18,19
 341 -81 341 -81 321 -76 c 128,-1,20
 301 -71 301 -71 276.5 -67.5 c 128,-1,21
 252 -64 252 -64 248 -63 c 1,22,-1
 295 0 l 1,23,-1
 224 0 l 2,24,25
 158 0 158 0 115 47 c 128,-1,26
 72 94 72 94 72 161 c 2,27,-1
 72 563 l 2,28,29
 72 627 72 627 113 674 c 0,30,31
 153 720 153 720 217 720 c 2,32,-1
 391 720 l 2,33,34
 458 720 458 720 498 674 c 1,35,36
 541 627 541 627 542 560 c 1,37,-1
 415 560 l 1,38,39
 414 582 414 582 401.5 595.5 c 128,-1,40
 389 609 389 609 368 609 c 2,41,-1
 256 609 l 2,42,43
 196 609 196 609 196 547 c 2,44,-1
 196 170 l 2,45,46
 196 111 196 111 256 111 c 2,47,-1
 360 111 l 2,48,49
 386 111 386 111 400.5 125 c 128,-1,50
 415 139 415 139 415 165 c 1,51,-1
 542 165 l 1,52,53
 539 0 539 0 367 0 c 1,0,-1
EndSplineSet
EndChar

StartChar: egrave
Encoding: 232 232 172
Width: 540
GlyphClass: 2
Flags: W
HStem: 0 150 411 148 826 155 1008 207
VStem: 98 168 573 172 576 167
LayerCount: 2
Fore
SplineSet
68 896 m 1,0,-1
 201 896 l 1,1,-1
 249 743 l 1,2,-1
 193 743 l 1,3,-1
 68 896 l 1,0,-1
422 165 m 1,4,-1
 549 165 l 1,5,6
 547 54 547 54 463 13 c 0,7,8
 437 0 437 0 399 0 c 2,9,-1
 224 0 l 2,10,11
 158 0 158 0 115 47 c 128,-1,12
 72 94 72 94 72 161 c 2,13,-1
 72 563 l 2,14,15
 72 629 72 629 112 676 c 128,-1,16
 152 723 152 723 217 723 c 2,17,-1
 404 723 l 2,18,19
 470 723 470 723 509 673 c 0,20,21
 548 622 548 622 548 556 c 2,22,-1
 548 460 l 2,23,24
 548 395.5 548 395.5 512 349 c 1,25,26
 475 303 475 303 411 303 c 2,27,-1
 196 303 l 1,28,-1
 196 170 l 2,29,30
 196 111 196 111 256 111 c 2,31,-1
 368 111 l 2,32,33
 393 111 393 111 408 125 c 128,-1,34
 423 139 423 139 422 165 c 1,4,-1
358 609 m 2,35,-1
 256 609 l 2,36,37
 196 609 196 609 196 547 c 2,38,-1
 196 412 l 1,39,-1
 358 412 l 2,40,41
 387 412 387 412 406 428 c 128,-1,42
 425 444 425 444 425 474 c 2,43,-1
 425 550 l 2,44,45
 425 579 425 579 406.5 594 c 128,-1,46
 388 609 388 609 358 609 c 2,35,-1
EndSplineSet
EndChar

StartChar: eacute
Encoding: 233 233 173
Width: 540
GlyphClass: 2
Flags: W
HStem: 0 150 411 148 826 155 1008 207
VStem: 98 168 573 172 576 167
LayerCount: 2
Fore
SplineSet
369 743 m 1,0,-1
 419 896 l 1,1,-1
 552 896 l 1,2,-1
 425 743 l 1,3,-1
 369 743 l 1,0,-1
422 165 m 1,4,-1
 549 165 l 1,5,6
 547 54 547 54 463 13 c 0,7,8
 437 0 437 0 399 0 c 2,9,-1
 224 0 l 2,10,11
 158 0 158 0 115 47 c 128,-1,12
 72 94 72 94 72 161 c 2,13,-1
 72 563 l 2,14,15
 72 629 72 629 112 676 c 128,-1,16
 152 723 152 723 217 723 c 2,17,-1
 404 723 l 2,18,19
 470 723 470 723 509 673 c 0,20,21
 548 622 548 622 548 556 c 2,22,-1
 548 460 l 2,23,24
 548 395.5 548 395.5 512 349 c 1,25,26
 475 303 475 303 411 303 c 2,27,-1
 196 303 l 1,28,-1
 196 170 l 2,29,30
 196 111 196 111 256 111 c 2,31,-1
 368 111 l 2,32,33
 393 111 393 111 408 125 c 128,-1,34
 423 139 423 139 422 165 c 1,4,-1
358 609 m 2,35,-1
 256 609 l 2,36,37
 196 609 196 609 196 547 c 2,38,-1
 196 412 l 1,39,-1
 358 412 l 2,40,41
 387 412 387 412 406 428 c 128,-1,42
 425 444 425 444 425 474 c 2,43,-1
 425 550 l 2,44,45
 425 579 425 579 406.5 594 c 128,-1,46
 388 609 388 609 358 609 c 2,35,-1
EndSplineSet
EndChar

StartChar: ecircumflex
Encoding: 234 234 174
Width: 540
GlyphClass: 2
Flags: W
HStem: 0 150 411 148 826 155 1017 200
VStem: 98 168 573 172 576 167
LayerCount: 2
Fore
SplineSet
268 897 m 1,0,-1
 372 897 l 1,1,-1
 473 750 l 1,2,-1
 400 750 l 1,3,-1
 320 818 l 1,4,-1
 240 750 l 1,5,-1
 160 750 l 1,6,-1
 268 897 l 1,0,-1
422 165 m 1,7,-1
 549 165 l 1,8,9
 547 54 547 54 463 13 c 0,10,11
 437 0 437 0 399 0 c 2,12,-1
 224 0 l 2,13,14
 158 0 158 0 115 47 c 128,-1,15
 72 94 72 94 72 161 c 2,16,-1
 72 563 l 2,17,18
 72 629 72 629 112 676 c 128,-1,19
 152 723 152 723 217 723 c 2,20,-1
 404 723 l 2,21,22
 470 723 470 723 509 673 c 0,23,24
 548 622 548 622 548 556 c 2,25,-1
 548 460 l 2,26,27
 548 395.5 548 395.5 512 349 c 1,28,29
 475 303 475 303 411 303 c 2,30,-1
 196 303 l 1,31,-1
 196 170 l 2,32,33
 196 111 196 111 256 111 c 2,34,-1
 368 111 l 2,35,36
 393 111 393 111 408 125 c 128,-1,37
 423 139 423 139 422 165 c 1,7,-1
358 609 m 2,38,-1
 256 609 l 2,39,40
 196 609 196 609 196 547 c 2,41,-1
 196 412 l 1,42,-1
 358 412 l 2,43,44
 387 412 387 412 406 428 c 128,-1,45
 425 444 425 444 425 474 c 2,46,-1
 425 550 l 2,47,48
 425 579 425 579 406.5 594 c 128,-1,49
 388 609 388 609 358 609 c 2,38,-1
EndSplineSet
EndChar

